<svg width="517" height="202" viewBox="0 0 517 202" fill="none" xmlns="http://www.w3.org/2000/svg">
<g filter="url(#filter0_d_40_11)">
<path d="M79.4971 4.75562H79.9854C80.4736 4.75562 80.9619 5.2439 81.4502 6.22046H79.4971V4.75562ZM82.4268 6.22046L84.3799 8.17358L83.4033 9.63843V10.615C84.1357 10.615 84.7868 10.7778 85.3564 11.1033V10.615C85.0309 10.0453 84.8682 9.39429 84.8682 8.66187H86.333C86.333 9.88257 87.3096 10.6964 89.2627 11.1033L88.7744 12.0798L90.7275 13.5447V13.0564L89.2627 10.615H90.2393C91.1344 10.9405 92.762 12.8936 95.1221 16.4744L94.6338 19.4041H95.6104V21.8455C97.3193 25.4262 98.4587 27.2166 99.0283 27.2166C99.0283 27.5421 98.8656 28.0304 98.54 28.6814C98.54 30.6345 99.1911 31.6111 100.493 31.6111V32.0994L100.005 33.0759C100.656 33.1573 100.981 33.4828 100.981 34.0525C100.981 34.7849 100.819 35.436 100.493 36.0056C101.144 37.6332 101.47 38.9353 101.47 39.9119H100.981C100.33 39.5863 99.8421 39.4236 99.5166 39.4236L99.0283 40.4001H100.981V41.865C100.981 42.5974 101.144 43.2485 101.47 43.8181C101.307 45.1202 100.819 45.7712 100.005 45.7712V46.7478L101.47 45.7712L101.958 46.7478V48.2126H99.5166V48.7009C100.819 48.7009 101.47 49.0264 101.47 49.6775L100.981 50.6541C101.307 51.3051 101.47 51.7934 101.47 52.1189L100.005 51.1423H99.5166V51.6306C99.5166 51.9561 99.6794 52.1189 100.005 52.1189L99.5166 53.0955V53.5837H100.981V54.072C100.981 54.7231 100.493 55.0486 99.5166 55.0486L100.005 58.4666V58.9548L98.54 60.908L99.5166 64.3259C98.8656 64.6514 98.3773 64.8142 98.0518 64.8142L98.54 65.7908L97.0752 66.7673L96.0986 66.2791V68.2322H97.0752V68.7205C97.0752 69.046 96.4242 69.5343 95.1221 70.1853C95.4476 70.8363 95.6104 71.3246 95.6104 71.6501C96.2614 71.6501 96.5869 70.9991 96.5869 69.697H97.5635V70.1853C97.5635 70.6736 96.7497 71.8129 95.1221 73.6033C95.7731 73.9288 96.2614 74.0916 96.5869 74.0916V76.0447C96.5869 76.2888 96.0986 76.7771 95.1221 77.5095L95.6104 79.9509C94.6338 84.1827 93.6572 86.2986 92.6807 86.2986L93.1689 87.2751C93.1689 87.9262 92.8434 88.2517 92.1924 88.2517V87.2751C91.5413 87.3565 91.2158 87.682 91.2158 88.2517H92.1924C92.1924 89.4724 91.5413 91.4255 90.2393 94.1111L90.7275 95.0876C90.402 95.7387 90.2393 96.227 90.2393 96.5525L89.2627 96.0642L89.751 95.0876V94.5994H89.2627C89.2627 95.9014 88.9372 96.5525 88.2861 96.5525C88.7744 97.8546 89.2627 98.5056 89.751 98.5056C89.751 98.1801 89.9137 98.0173 90.2393 98.0173V98.9939C89.3441 98.9939 88.042 100.784 86.333 104.365V105.342L86.8213 106.318H86.333L86.8213 107.295C86.1702 109.248 85.5192 110.224 84.8682 110.224C84.8682 109.899 84.7054 109.736 84.3799 109.736V110.713C84.3799 110.875 84.7054 111.364 85.3564 112.177C84.7054 112.259 84.3799 112.584 84.3799 113.154C85.0309 113.48 85.5192 113.642 85.8447 113.642V114.619H84.8682L83.8916 114.131V115.107L84.3799 116.084L83.4033 116.572L83.8916 117.549L81.9385 123.408C81.9385 125.036 81.613 125.849 80.9619 125.849L81.4502 126.826C81.1247 127.477 80.9619 127.965 80.9619 128.291C81.613 128.372 81.9385 128.698 81.9385 129.267C81.5316 129.267 80.7178 130.244 79.4971 132.197C79.8226 132.848 79.9854 133.336 79.9854 133.662C79.6598 134.313 79.4971 134.801 79.4971 135.127H79.9854C78.6833 138.382 77.0557 146.357 75.1025 159.052C75.1025 159.378 75.2653 159.541 75.5908 159.541C75.1025 163.773 74.6143 165.888 74.126 165.888L74.6143 166.865V167.842L73.6377 169.306C74.6143 169.306 75.1025 169.632 75.1025 170.283L74.6143 171.26C74.9398 171.829 75.1025 172.48 75.1025 173.213H74.6143C74.9398 173.864 75.1025 174.352 75.1025 174.677C74.2074 177.038 72.7425 178.828 70.708 180.049C70.708 180.211 70.5452 180.862 70.2197 182.002H69.2432L67.7783 181.025V182.49H67.29C66.639 182.49 66.3135 182.164 66.3135 181.513L67.29 180.049H66.3135C66.3135 181.025 65.6624 181.513 64.3604 181.513C64.3604 181.188 64.1976 181.025 63.8721 181.025L64.3604 180.049V179.56C63.7093 179.56 63.3838 179.072 63.3838 178.095H62.8955C62.8955 179.072 62.57 179.56 61.9189 179.56C61.2679 179.235 60.7796 179.072 60.4541 179.072L61.4307 177.607V177.119L58.9893 175.654L59.4775 174.677V173.213C58.1755 173.213 57.5244 172.399 57.5244 170.771H58.0127L57.5244 169.795V169.306H58.501V168.33L57.5244 168.818C57.5244 168.493 57.3617 168.33 57.0361 168.33L57.5244 167.353V166.377H56.5479V165.888C56.5479 165.563 56.7106 165.4 57.0361 165.4L56.5479 164.424L57.0361 163.447C56.3851 163.447 56.0596 163.122 56.0596 162.47C56.3851 162.47 56.5479 162.308 56.5479 161.982C56.141 161.982 55.3271 161.168 54.1064 159.541H53.6182V159.052H54.5947V158.564C53.6995 158.564 52.5602 156.448 51.1768 152.217H51.665C51.3395 151.647 51.1768 150.996 51.1768 150.263L50.2002 150.752C50.2002 148.066 49.2236 145.95 47.2705 144.404L47.7588 143.427C46.7822 143.427 46.2939 143.265 46.2939 142.939C46.2939 142.614 46.4567 142.451 46.7822 142.451C46.7822 140.661 45.8057 138.87 43.8525 137.08C43.8525 136.754 44.0153 136.592 44.3408 136.592C44.0153 134.638 42.7132 132.034 40.4346 128.779H39.9463V128.291L40.4346 127.314C39.1325 127.314 38.4814 126.826 38.4814 125.849C38.4814 125.524 38.6442 125.361 38.9697 125.361L37.5049 122.431C37.8304 122.431 37.9932 122.269 37.9932 121.943C36.6911 121.943 36.04 120.804 36.04 118.525C35.2262 119.176 34.738 119.502 34.5752 119.502C34.5752 119.176 34.4124 119.013 34.0869 119.013C34.4124 118.037 34.738 117.549 35.0635 117.549L34.5752 116.572L35.0635 115.595C34.1683 115.595 33.1917 113.805 32.1338 110.224C31.4827 109.004 30.5062 108.19 29.2041 107.783V107.295C29.6924 107.295 30.1807 106.806 30.6689 105.83C29.8551 105.83 29.3669 105.179 29.2041 103.877V102.412C28.5531 102.086 28.0648 101.924 27.7393 101.924C27.7393 102.249 27.5765 102.412 27.251 102.412L26.7627 99.4822H27.7393V98.5056C26.7627 98.5056 26.2744 98.1801 26.2744 97.5291C26.2744 97.2035 26.4372 97.0408 26.7627 97.0408C25.8675 94.4366 25.0537 93.1345 24.3213 93.1345C24.3213 93.46 24.1585 93.6228 23.833 93.6228L23.3447 92.6462C23.9144 92.3207 24.5654 92.158 25.2979 92.158V91.6697C24.6468 91.6697 23.833 90.6931 22.8564 88.74H21.8799C21.8799 88.4145 22.0426 88.2517 22.3682 88.2517C21.7171 87.1938 21.3916 86.2172 21.3916 85.322L20.415 85.8103L19.9268 83.3689H20.415L19.9268 82.3923C20.2523 81.7413 20.415 81.253 20.415 80.9275H19.9268L18.4619 81.9041V81.4158L19.9268 79.4626C19.113 79.4626 18.6247 78.8116 18.4619 77.5095H18.9502C18.6247 76.8585 18.4619 76.3702 18.4619 76.0447C17.8109 76.0447 17.4854 76.533 17.4854 77.5095H16.5088C16.5088 77.184 16.346 76.6957 16.0205 76.0447C16.6715 76.0447 16.9971 75.7192 16.9971 75.0681C16.9971 74.6612 16.5088 73.8474 15.5322 72.6267V71.1619C14.9626 71.1619 14.4743 70.3481 14.0674 68.7205L15.0439 68.2322C15.0439 68.5577 15.2067 68.7205 15.5322 68.7205C15.5322 68.3949 15.695 68.2322 16.0205 68.2322C15.695 67.6625 15.5322 67.0115 15.5322 66.2791C15.0439 66.2791 14.5557 66.9301 14.0674 68.2322L13.0908 67.7439H12.6025V69.2087H11.626C11.626 68.0694 12.277 66.7673 13.5791 65.3025C12.6025 64.4887 12.1143 63.6749 12.1143 62.8611L11.1377 63.3494C10.4867 62.5356 10.1611 62.0473 10.1611 61.8845C10.8122 61.8845 11.1377 61.559 11.1377 60.908C11.7887 60.9893 12.1143 61.3149 12.1143 61.8845C12.7653 61.559 13.2536 61.3962 13.5791 61.3962V60.908C13.5791 60.2569 13.2536 59.9314 12.6025 59.9314H11.1377C11.1377 60.7452 10.4867 61.2335 9.18457 61.3962V60.908C9.51009 60.3383 9.67285 59.6873 9.67285 58.9548C9.34733 58.9548 9.18457 58.7921 9.18457 58.4666L10.1611 57.9783V59.4431C10.6494 59.1176 11.626 58.9548 13.0908 58.9548C13.0908 58.3038 12.4398 57.9783 11.1377 57.9783L12.1143 56.5134H9.67285L10.1611 55.5369C9.51009 54.4789 9.18457 53.5024 9.18457 52.6072L10.1611 52.1189H10.6494V52.6072L10.1611 53.5837C10.4867 53.5837 10.9749 53.7465 11.626 54.072V53.5837C10.9749 52.5258 10.6494 51.5492 10.6494 50.6541H11.1377C10.8122 50.003 10.6494 49.5147 10.6494 49.1892H10.1611C9.34733 49.8403 8.85905 50.1658 8.69629 50.1658H8.20801C7.55697 50.1658 7.23145 49.8403 7.23145 49.1892C7.55697 48.6195 7.71973 47.9685 7.71973 47.2361C8.37077 47.2361 8.69629 47.8871 8.69629 49.1892L10.1611 48.2126C10.1611 46.9106 8.69629 45.7712 5.7666 44.7947C5.7666 45.4457 5.44108 45.7712 4.79004 45.7712C4.79004 45.4457 4.62728 44.9574 4.30176 44.3064H7.71973C7.39421 43.8995 7.23145 43.0857 7.23145 41.865H7.71973V41.3767L7.23145 40.4001C7.55697 40.4001 7.71973 40.2374 7.71973 39.9119H6.74316V39.4236L7.23145 38.447C6.90592 38.447 6.74316 38.2843 6.74316 37.9587L7.71973 37.4705C8.04525 38.7725 8.20801 39.9119 8.20801 40.8884H8.69629C8.69629 40.2374 9.34733 39.4236 10.6494 38.447H8.69629C8.69629 36.1684 7.71973 34.378 5.7666 33.0759H6.25488L7.23145 33.5642C7.23145 32.9945 8.04525 32.5063 9.67285 32.0994C10.2425 32.4249 10.8936 32.5876 11.626 32.5876L11.1377 31.6111L12.1143 31.1228H12.6025L13.5791 31.6111V30.6345C12.6025 30.6345 12.1143 30.309 12.1143 29.658C12.7653 29.658 13.0908 29.4952 13.0908 29.1697L14.0674 29.658H14.5557L14.0674 25.2634H15.0439C15.0439 26.24 15.2067 26.7283 15.5322 26.7283L17.9736 25.2634H19.9268L19.4385 26.24V26.7283C19.6012 26.7283 20.2523 26.891 21.3916 27.2166L20.9033 26.24H21.8799V27.2166H22.3682C22.3682 26.891 22.5309 26.4028 22.8564 25.7517C22.2868 25.4262 21.6357 25.2634 20.9033 25.2634V23.7986C24.8096 25.1007 26.7627 26.24 26.7627 27.2166C25.7048 27.8676 24.891 28.1931 24.3213 28.1931V28.6814H24.8096L26.7627 27.7048C27.5765 29.4138 28.8786 30.8787 30.6689 32.0994L31.6455 31.6111C32.2152 31.9366 32.8662 32.0994 33.5986 32.0994C33.5986 31.7738 33.7614 31.6111 34.0869 31.6111L34.5752 32.5876C34.3311 33.8897 34.0055 34.5408 33.5986 34.5408C32.9476 34.2153 32.4593 34.0525 32.1338 34.0525V35.0291C32.7848 35.0291 33.7614 35.6801 35.0635 36.9822C35.0635 36.0056 35.389 35.5173 36.04 35.5173C37.9932 36.4125 38.9697 37.0636 38.9697 37.4705L37.9932 37.9587C37.9932 37.3077 37.6676 36.9822 37.0166 36.9822L34.5752 39.9119H36.5283V40.8884H35.5518V41.3767C35.8773 41.3767 36.3656 41.5395 37.0166 41.865L36.04 46.2595L37.9932 46.7478C38.6442 46.4223 39.1325 46.2595 39.458 46.2595V46.7478C39.458 47.2361 38.9697 47.7244 37.9932 48.2126C37.9932 47.8871 37.8304 47.7244 37.5049 47.7244L37.0166 48.7009V49.1892C37.0166 49.352 37.3421 49.8403 37.9932 50.6541C37.6676 50.6541 37.5049 50.8168 37.5049 51.1423H38.4814V52.1189C37.8304 52.1189 37.5049 52.2817 37.5049 52.6072C37.5049 55.13 38.1559 57.0831 39.458 58.4666C38.8883 58.4666 38.4001 59.4431 37.9932 61.3962C38.9697 61.3962 39.458 61.7218 39.458 62.3728L37.5049 64.8142L38.4814 65.3025V64.8142C39.7835 65.1397 40.4346 66.1163 40.4346 67.7439L39.458 68.2322V66.2791H38.9697V68.2322C39.458 68.2322 40.109 68.8832 40.9229 70.1853C40.5973 70.755 40.4346 71.406 40.4346 72.1384C41.4111 72.1384 41.8994 72.4639 41.8994 73.115V73.6033C41.8994 74.2543 41.4111 74.5798 40.4346 74.5798V75.0681C42.0622 75.0681 42.876 76.0447 42.876 77.9978V78.4861L41.8994 79.9509C42.5505 80.0323 42.876 80.3578 42.876 80.9275L41.8994 82.3923H43.3643L42.876 84.8337C43.8525 84.8337 44.3408 85.6475 44.3408 87.2751C44.0153 87.8448 43.8525 88.4958 43.8525 89.2283C44.2594 89.2283 44.9105 90.3676 45.8057 92.6462C45.4801 93.2159 45.3174 93.8669 45.3174 94.5994L46.2939 94.1111V94.5994C46.2939 95.2504 45.9684 95.5759 45.3174 95.5759L45.8057 96.5525V97.5291L45.3174 98.5056C45.887 98.5056 46.5381 100.133 47.2705 103.388C46.945 103.388 46.7822 103.551 46.7822 103.877C47.2705 103.877 47.7588 104.365 48.2471 105.342V105.83C48.2471 106.155 48.0843 106.318 47.7588 106.318L49.2236 108.76L48.7354 109.736C50.0374 109.899 50.6885 110.387 50.6885 111.201C50.363 111.201 50.2002 111.364 50.2002 111.689C50.5257 111.689 50.6885 111.852 50.6885 112.177C50.363 112.177 50.2002 112.34 50.2002 112.666C50.8512 112.747 51.1768 113.073 51.1768 113.642L50.6885 114.619C51.014 114.619 51.1768 114.782 51.1768 115.107H50.6885C51.8278 119.013 52.8044 120.967 53.6182 120.967L53.1299 121.943V122.431L55.083 122.92C54.7575 123.896 54.432 124.385 54.1064 124.385C54.432 126.582 55.2458 128.047 56.5479 128.779L56.0596 129.756C56.7106 131.465 57.5244 132.441 58.501 132.685C58.5824 132.034 58.9079 131.709 59.4775 131.709H59.9658L58.0127 135.127H58.9893L58.501 137.568C58.8265 137.568 58.9893 137.731 58.9893 138.056L59.9658 137.568H60.4541C60.4541 138.545 61.1051 139.033 62.4072 139.033V139.521H60.9424L59.9658 139.033H59.4775V139.521C60.4541 139.521 61.2679 140.172 61.9189 141.474L61.4307 142.451C62.4072 142.451 62.8955 142.939 62.8955 143.916H61.9189V144.892C62.0003 145.543 62.3258 145.869 62.8955 145.869H63.3838V144.892C63.3838 144.567 63.221 144.404 62.8955 144.404L63.3838 143.427L62.8955 142.451L63.8721 141.963C63.8721 142.614 64.1976 142.939 64.8486 142.939C64.8486 143.265 64.6859 143.427 64.3604 143.427L64.8486 144.404L63.8721 146.845L64.8486 147.334C64.8486 147.008 65.0114 146.845 65.3369 146.845V147.822H65.8252C65.8252 146.845 66.1507 146.357 66.8018 146.357V148.31C67.1273 148.31 67.6156 148.473 68.2666 148.799C68.5107 146.194 68.8363 144.892 69.2432 144.892L68.7549 143.916V142.939L69.2432 141.963C68.5921 141.963 68.2666 141.637 68.2666 140.986C68.348 140.335 68.6735 140.01 69.2432 140.01L68.7549 139.033L69.7314 137.568V137.08L68.7549 137.568L68.2666 136.592C68.9176 136.266 69.4059 136.103 69.7314 136.103L69.2432 133.662H69.7314C69.7314 133.336 69.5687 133.174 69.2432 133.174L70.2197 125.361C69.8942 124.791 69.7314 124.14 69.7314 123.408L70.2197 122.431L69.7314 121.455C69.7314 119.827 70.057 119.013 70.708 119.013L70.2197 116.572V115.595C70.2197 115.27 70.3825 115.107 70.708 115.107C70.708 114.782 70.5452 114.619 70.2197 114.619C70.2197 114.293 70.3825 113.805 70.708 113.154L70.2197 108.76L70.708 107.783C70.3825 107.213 70.2197 106.562 70.2197 105.83C70.2197 105.504 70.3825 105.342 70.708 105.342L70.2197 104.365V103.388C70.5452 101.435 70.708 99.9705 70.708 98.9939C70.057 98.9939 69.7314 98.6684 69.7314 98.0173C70.708 97.6918 71.1963 97.3663 71.1963 97.0408L70.708 96.0642L71.1963 95.0876C70.8708 94.4366 70.708 93.9483 70.708 93.6228H71.1963L70.708 92.6462C70.708 92.3207 70.8708 91.0186 71.1963 88.74C70.8708 87.6007 70.708 86.9496 70.708 86.7869C71.0335 86.1358 71.1963 85.6475 71.1963 85.322V83.8572C71.8473 83.8572 72.1729 83.5317 72.1729 82.8806V82.3923H70.708V81.9041C70.7894 79.6254 71.1149 78.4861 71.6846 78.4861L71.1963 77.5095L71.6846 76.533C71.359 75.9633 71.1963 75.3123 71.1963 74.5798C71.8473 74.5798 72.1729 74.2543 72.1729 73.6033C72.1729 72.9522 71.8473 72.6267 71.1963 72.6267C71.1963 72.3826 71.359 71.406 71.6846 69.697L70.2197 60.908C70.5452 60.2569 70.708 59.7686 70.708 59.4431C70.3825 59.4431 70.2197 59.2804 70.2197 58.9548L71.1963 58.4666L70.2197 54.072C70.8708 54.072 71.1963 53.7465 71.1963 53.0955C70.708 53.0955 70.2197 52.6072 69.7314 51.6306H70.2197L69.7314 50.6541C70.3825 48.2126 70.708 46.9106 70.708 46.7478L69.7314 46.2595C70.057 42.4347 70.2197 39.6677 70.2197 37.9587V37.4705L69.7314 35.0291C70.057 35.0291 70.2197 34.8663 70.2197 34.5408C69.5687 34.5408 69.2432 34.2153 69.2432 33.5642C69.8942 33.5642 70.2197 33.2387 70.2197 32.5876C69.2432 32.5876 68.7549 32.2621 68.7549 31.6111C68.8363 30.96 69.1618 30.6345 69.7314 30.6345C69.4059 29.3324 68.9176 28.1931 68.2666 27.2166C68.2666 26.891 68.4294 26.7283 68.7549 26.7283L68.2666 25.7517V25.2634H69.7314V26.24H70.708C70.708 25.4262 70.057 24.2869 68.7549 22.822V21.8455H69.7314L70.708 22.3337C70.708 21.8455 71.0335 21.1944 71.6846 20.3806V19.8923H69.7314V20.3806H68.7549V19.8923C70.3825 18.5903 71.1963 17.4509 71.1963 16.4744L69.7314 14.033L70.708 13.5447L71.6846 14.033C71.6846 12.0798 72.6611 10.7778 74.6143 10.1267C74.6143 8.82463 74.9398 8.17358 75.5908 8.17358C76.8929 8.41772 77.5439 8.74325 77.5439 9.15015L78.5205 8.66187C78.846 8.66187 79.0088 8.82463 79.0088 9.15015L79.9854 8.66187L80.9619 9.15015C81.0433 8.4991 81.3688 8.17358 81.9385 8.17358L81.4502 7.19702C81.5316 6.54598 81.8571 6.22046 82.4268 6.22046ZM77.0557 10.615C77.0557 11.1033 78.0322 11.7543 79.9854 12.5681C80.555 12.2426 81.2061 12.0798 81.9385 12.0798V11.1033L78.5205 10.615H77.0557ZM87.3096 13.5447V14.5212H88.2861C88.2861 13.8702 87.9606 13.5447 87.3096 13.5447ZM71.6846 15.0095V15.9861H72.1729V15.0095H71.6846ZM78.5205 15.0095V15.4978C78.6019 16.1488 78.9274 16.4744 79.4971 16.4744V15.9861C79.4971 15.335 79.1715 15.0095 78.5205 15.0095ZM16.0205 15.0095H16.9971V15.4978H16.0205V15.0095ZM13.0908 17.4509V17.9392C13.0908 18.5903 12.7653 18.9158 12.1143 18.9158V18.4275C12.1956 17.7764 12.5212 17.4509 13.0908 17.4509ZM15.5322 17.9392H16.0205V18.4275C15.695 19.0785 15.5322 19.5668 15.5322 19.8923H14.5557V18.9158C14.637 18.2647 14.9626 17.9392 15.5322 17.9392ZM22.3682 17.9392H23.3447V18.4275H22.3682V17.9392ZM20.9033 20.3806L21.8799 21.8455C20.9033 21.8455 20.415 22.171 20.415 22.822L19.4385 22.3337C19.9268 21.0317 20.415 20.3806 20.9033 20.3806ZM16.5088 21.8455V22.822H15.5322C15.6136 22.171 15.9391 21.8455 16.5088 21.8455ZM30.1807 21.8455H31.1572V22.822C30.5062 22.822 30.1807 22.4965 30.1807 21.8455ZM23.3447 22.822H24.3213V23.3103H23.3447V22.822ZM16.0205 23.7986H16.5088V24.7751H16.0205V23.7986ZM11.1377 24.7751H12.6025V25.7517H12.1143C11.4632 25.7517 11.1377 25.4262 11.1377 24.7751ZM28.2275 25.2634H28.7158V26.24H28.2275V25.2634ZM28.7158 26.24H29.6924C29.6924 26.9724 30.1807 27.949 31.1572 29.1697V29.658C31.1572 30.309 30.8317 30.6345 30.1807 30.6345H29.6924V29.658L30.1807 28.6814H29.6924L28.7158 29.1697C28.7158 28.8442 28.5531 28.3559 28.2275 27.7048C28.8786 27.7048 29.2041 27.3793 29.2041 26.7283C28.8786 26.7283 28.7158 26.5655 28.7158 26.24ZM70.2197 26.7283V27.7048H70.708V26.7283H70.2197ZM9.18457 27.2166H9.67285V27.7048L9.18457 28.6814V29.1697H9.67285V28.1931H10.6494C10.3239 30.1462 9.83561 31.1228 9.18457 31.1228H8.69629C8.69629 30.6345 8.37077 29.9835 7.71973 29.1697C8.20801 27.8676 8.69629 27.2166 9.18457 27.2166ZM16.9971 28.6814H17.9736V27.7048C17.3226 27.7862 16.9971 28.1117 16.9971 28.6814ZM13.0908 27.7048H14.0674V28.6814H13.0908V27.7048ZM21.3916 28.1931V29.1697H21.8799V28.1931H21.3916ZM23.3447 28.1931C23.3447 29.1697 22.8564 29.658 21.8799 29.658V30.1462H22.8564L23.833 28.6814V28.1931H23.3447ZM25.7861 29.658V30.6345H26.2744V29.658H25.7861ZM12.6025 33.0759H14.0674V32.0994H13.5791C12.9281 32.1807 12.6025 32.5063 12.6025 33.0759ZM9.18457 33.0759V34.0525L9.67285 35.0291C10.3239 34.7035 10.8122 34.5408 11.1377 34.5408V33.5642L9.18457 33.0759ZM29.2041 33.5642C29.2041 34.0525 29.6924 34.5408 30.6689 35.0291V33.0759C30.0179 33.4014 29.5296 33.5642 29.2041 33.5642ZM99.0283 35.0291V35.5173H100.005V35.0291H99.0283ZM9.18457 35.5173V36.4939H9.67285V35.5173H9.18457ZM10.1611 36.0056V36.9822C10.8122 36.9822 11.1377 36.6567 11.1377 36.0056H10.1611ZM8.69629 41.3767C8.69629 42.1091 8.53353 42.7602 8.20801 43.3298H9.18457V41.3767H8.69629ZM8.69629 43.8181V45.283H9.67285V44.7947C9.67285 44.1436 9.34733 43.8181 8.69629 43.8181ZM5.7666 45.7712H6.25488V46.2595C6.25488 46.9106 5.92936 47.2361 5.27832 47.2361L4.79004 46.2595L5.7666 45.7712ZM7.23145 46.2595H7.71973V47.2361H7.23145V46.2595ZM5.27832 47.7244H6.25488V48.7009H5.27832V47.7244ZM11.626 50.1658V51.1423H12.1143V50.1658H11.626ZM5.7666 52.1189H6.74316V53.0955H5.7666V52.1189ZM39.9463 55.0486V56.5134H38.9697V56.0251C39.0511 55.3741 39.3766 55.0486 39.9463 55.0486ZM13.0908 56.0251V56.5134H14.0674V56.0251H13.0908ZM7.71973 57.9783H8.69629V58.9548H7.71973V57.9783ZM39.9463 61.3962H40.9229V61.8845H39.9463V61.3962ZM13.0908 62.3728V62.8611H14.0674V62.3728H13.0908ZM38.9697 63.3494H39.458V64.3259H38.9697V63.3494ZM97.0752 63.8376V64.3259H98.54V63.8376H97.0752ZM10.6494 63.8376L11.1377 64.8142V65.7908C10.6494 65.7908 10.1611 65.3025 9.67285 64.3259L10.6494 63.8376ZM13.5791 70.6736H14.0674C14.7184 70.755 15.0439 71.0805 15.0439 71.6501L14.5557 72.6267C14.8812 72.6267 15.0439 72.7895 15.0439 73.115H14.0674C14.0674 72.1384 13.5791 71.6501 12.6025 71.6501C12.6839 70.9991 13.0094 70.6736 13.5791 70.6736ZM14.0674 75.0681H15.0439V75.5564H14.0674V75.0681ZM17.9736 77.9978H18.4619V78.9744H17.9736V77.9978ZM42.876 78.9744C43.527 79.0557 43.8525 79.3813 43.8525 79.9509H42.876V78.9744ZM93.1689 80.4392V81.4158H93.6572V80.4392H93.1689ZM43.8525 80.9275H44.3408C44.9919 81.0089 45.3174 81.3344 45.3174 81.9041L44.3408 82.3923L43.8525 81.4158V80.9275ZM92.6807 81.9041V82.8806H93.1689V81.9041H92.6807ZM92.6807 84.3455V85.322H93.1689V84.3455H92.6807ZM18.4619 84.8337H19.4385V85.8103H18.4619V84.8337ZM19.4385 85.8103H20.415V86.7869C19.764 86.7869 19.4385 86.4613 19.4385 85.8103ZM90.2393 90.2048V91.1814H90.7275V90.2048H90.2393ZM21.8799 90.6931H22.8564V91.1814H21.8799V90.6931ZM23.833 94.5994H24.3213V95.5759H23.833V94.5994ZM86.333 101.435V102.412H86.8213V101.435H86.333ZM49.7119 113.154V114.131H50.2002V113.154H49.7119ZM53.6182 117.549H54.1064V118.037C54.1064 118.688 53.7809 119.013 53.1299 119.013L52.6416 118.037L53.6182 117.549ZM63.8721 148.31L63.3838 149.287H65.3369V148.799C65.0114 148.799 64.5231 148.636 63.8721 148.31ZM65.3369 149.775V150.752H66.3135C66.3135 150.101 65.988 149.775 65.3369 149.775ZM65.8252 151.728C66.1507 152.379 66.3135 152.868 66.3135 153.193C66.8831 152.868 67.5342 152.705 68.2666 152.705V151.728H65.8252ZM72.1729 180.049H72.6611V181.513H70.708C70.708 181.025 71.1963 180.537 72.1729 180.049ZM63.3838 182.49H64.3604V183.467H63.3838V182.49ZM69.7314 183.467H70.708V183.955H69.7314V183.467ZM193.594 0.727295L194.57 0.849365V1.82593L193.594 1.70386V0.727295ZM185.781 0.605225C186.432 0.767985 186.758 1.09351 186.758 1.58179H185.781V0.605225ZM192.861 4.63354H193.838L193.716 5.12183H192.739L192.861 4.63354ZM188.223 6.22046H189.199V7.19702L190.176 6.83081H190.664L192.007 7.92944C192.658 8.01082 193.024 7.56323 193.105 6.58667L195.547 6.83081C195.465 7.88875 195.588 8.70256 195.913 9.27222L196.89 8.90601H197.378V9.39429C196.971 9.96395 196.768 10.4522 196.768 10.8591C197.337 10.8591 198.192 11.8764 199.331 13.9109L199.453 12.9343L200.43 13.0564L200.186 15.4978L201.895 18.5496C202.546 18.3054 203.075 18.1833 203.481 18.1833L201.772 20.0144C202.749 21.0723 203.522 21.642 204.092 21.7234V22.7L203.115 22.5779L203.481 23.6765L202.871 24.531V25.0193H203.359L203.481 24.1648C204.132 24.1648 204.377 24.8158 204.214 26.1179L205.312 25.7517H205.801L205.679 26.24L205.19 27.2166C205.597 27.2166 206.045 27.7455 206.533 28.8035L206.411 29.2917L205.557 28.6814L204.946 29.658C204.865 30.6345 205.312 31.1635 206.289 31.2449L205.557 33.5642C206.208 33.727 206.533 34.0932 206.533 34.6628L205.557 34.5408L205.435 35.0291C206.086 35.1104 206.411 35.3139 206.411 35.6394L205.679 38.9353C205.923 39.5863 206.004 40.1153 205.923 40.5222C205.679 40.4408 205.516 40.5629 205.435 40.8884C206.086 41.0512 206.37 41.4174 206.289 41.9871V42.4753L205.679 43.4519C206.655 43.696 207.062 45.0388 206.899 47.4802L206.411 47.3582C206.655 49.7182 207.347 50.9389 208.486 51.0203V51.5085L206.777 53.8279L208.364 58.3445C207.713 58.3445 207.388 58.6293 207.388 59.199C208.039 59.3617 208.324 59.7279 208.242 60.2976V60.7859L207.632 61.6404C208.608 61.7218 209.056 62.4135 208.975 63.7156L208.364 64.6921L208.73 65.6687C208.405 66.3197 208.201 66.808 208.12 67.1335L209.097 67.7439C209.097 67.4184 209.259 67.2556 209.585 67.2556C209.585 67.5811 209.748 67.7439 210.073 67.7439L209.463 68.7205V69.697L209.829 70.6736L208.853 71.1619C209.666 72.7081 210.073 73.6847 210.073 74.0916L209.463 75.0681C209.707 75.6378 209.829 76.2888 209.829 77.0212C209.422 77.9978 209.056 78.4861 208.73 78.4861C208.975 79.0557 209.056 79.8695 208.975 80.9275L210.562 80.073H211.05L209.951 81.5378C210.358 81.5378 210.806 82.0668 211.294 83.1248L209.585 85.8103C210.806 86.1358 211.416 86.7055 211.416 87.5193L209.707 89.8386C210.033 91.4662 210.602 92.3207 211.416 92.4021L210.684 94.8435L212.148 94.9656L211.66 95.8201C212.067 98.9939 212.677 101.354 213.491 102.9L212.271 105.219C213.573 105.301 214.183 105.83 214.102 106.806H213.613C213.613 107.132 213.776 107.295 214.102 107.295L213.369 109.736V110.224H214.346L214.224 111.689H213.247C214.549 114.7 215.729 116.247 216.787 116.328V116.816L216.177 117.793C216.584 119.42 217.316 120.275 218.374 120.356L216.787 122.187C217.113 122.269 217.275 122.472 217.275 122.798L218.252 122.309L219.229 122.431L219.106 123.408C218.455 123.327 218.13 123.449 218.13 123.774C218.374 124.913 218.415 126.094 218.252 127.314L217.886 127.192L217.764 127.68L218.74 127.802C218.74 127.477 218.903 127.314 219.229 127.314V127.802L218.496 130.244C218.984 130.325 219.839 132.197 221.06 135.859C221.873 135.941 222.28 136.632 222.28 137.934L221.304 138.301C221.304 137.975 221.141 137.812 220.815 137.812V138.301C220.734 138.952 221.182 139.318 222.158 139.399L221.914 142.817C223.216 142.899 223.867 143.102 223.867 143.427L224.844 143.061C225.169 143.061 225.332 143.224 225.332 143.55C228.831 143.305 231.313 142.532 232.778 141.23C232.778 141.881 232.941 142.207 233.267 142.207C233.918 141.963 234.406 141.841 234.731 141.841C234.65 142.573 235.871 143.509 238.394 144.648L239.37 144.282C239.858 144.282 241.283 146.845 243.643 151.972L243.521 154.414C243.358 156.367 242.625 157.262 241.323 157.099L241.689 158.198V158.564H241.201L240.225 158.076C238.597 160.517 236.725 161.657 234.609 161.494C234.528 162.145 233.511 162.389 231.558 162.226V161.738C231.232 161.657 231.069 161.779 231.069 162.104L230.093 161.616C227.244 163.325 225.413 164.139 224.6 164.057L224.844 166.499C224.193 166.58 223.826 166.906 223.745 167.475V167.842C224.722 168.004 225.129 169.022 224.966 170.893L222.402 172.724L222.28 173.213L223.135 174.677V175.166H222.158L222.402 177.607V178.584L221.426 177.973L221.304 178.95L222.28 179.072L222.158 180.537L221.67 180.415L220.815 179.927L220.693 180.415L221.182 181.391L219.473 184.199C219.717 184.85 219.839 185.338 219.839 185.664H219.351L218.374 185.053C218.293 185.705 217.438 185.989 215.811 185.908L216.665 188.349C215.851 189.814 215.119 190.587 214.468 190.669L214.102 189.692H215.078V188.716H214.102V189.692L211.66 189.448V188.96L212.271 187.983L211.294 187.495L211.172 188.471C209.626 187.007 208.568 186.233 207.998 186.152C207.917 186.803 207.55 187.129 206.899 187.129L207.021 186.64C207.021 186.152 207.55 185.705 208.608 185.298L209.463 185.786L209.585 184.321C208.934 184.647 208.446 184.769 208.12 184.687C206.818 184.118 206.208 183.589 206.289 183.1L206.899 182.124C206.004 182.042 205.231 181.188 204.58 179.56L203.604 179.927H203.115C203.278 177.566 202.627 175.695 201.162 174.311H200.674L200.552 175.288H200.063C199.412 175.206 199.128 174.84 199.209 174.189V173.701L200.186 174.311V173.823C200.348 171.626 199.697 169.754 198.232 168.208H198.721L197.012 165.644C197.663 165.726 197.988 165.441 197.988 164.79C197.337 164.708 197.052 164.342 197.134 163.691L196.157 164.179L193.716 163.447C192.576 163.366 190.42 163.65 187.246 164.302L186.392 163.813L183.34 164.546C182.77 164.139 182.119 163.895 181.387 163.813H180.41C180.003 163.732 179.474 164.179 178.823 165.156L176.504 164.424H176.016C175.12 164.993 174.591 165.278 174.429 165.278L174.062 164.179L173.086 164.668C172.76 164.586 172.598 164.383 172.598 164.057L171.621 164.546L170.645 163.935C170.563 164.912 169.709 165.319 168.081 165.156L167.837 167.597L168.203 170.161L167.227 169.551C167.145 171.015 166.901 171.951 166.494 172.358C166.738 173.091 166.86 173.62 166.86 173.945C166.86 174.271 166.698 174.393 166.372 174.311C166.453 176.59 166.657 178.095 166.982 178.828C166.576 179.398 166.372 179.886 166.372 180.293C166.698 180.293 166.82 180.455 166.738 180.781L165.762 180.659L165.884 179.682H165.396C164.907 179.601 164.378 180.049 163.809 181.025C164.785 181.107 165.233 181.473 165.151 182.124L165.029 183.589L162.71 182.856H162.222C162.14 183.914 160.309 186.356 156.729 190.18C156.403 190.18 156.24 190.018 156.24 189.692C153.555 189.936 151.724 190.425 150.747 191.157L149.771 190.669C149.771 190.994 149.608 191.116 149.282 191.035C149.364 190.384 149.079 190.058 148.428 190.058C148.346 190.709 147.98 190.994 147.329 190.913C146.678 190.831 146.393 190.465 146.475 189.814L145.376 190.302C144.155 189.651 143.626 188.431 143.789 186.64L143.911 185.176H142.935V184.199H143.911C143.341 183.141 143.097 182.327 143.179 181.758H143.667C142.528 179.723 141.999 178.38 142.08 177.729L142.935 178.34H143.423C143.504 177.689 142.894 177.322 141.592 177.241V176.753C143.057 175.369 143.789 174.433 143.789 173.945L143.545 171.015C144.196 171.015 144.806 169.917 145.376 167.719V167.231H144.888L144.766 168.696L143.789 168.574C143.87 167.272 143.586 166.58 142.935 166.499H142.446L142.935 167.475L142.812 167.964H141.958C141.226 167.882 140.575 167.638 140.005 167.231L139.028 167.719C138.377 167.313 137.889 167.109 137.563 167.109C137.482 167.76 137.116 168.045 136.465 167.964L135.977 167.842C133.535 166.539 132.396 164.668 132.559 162.226C132.152 162.226 131.257 161.168 129.873 159.052H129.385L131.216 154.78C130.646 154.373 130.199 154.17 129.873 154.17L129.995 152.217L130.972 152.339L130.605 151.24L131.582 150.874C131.582 151.199 131.745 151.362 132.07 151.362C132.152 150.06 132.681 149.45 133.657 149.531C136.017 147.985 137.279 146.642 137.441 145.503H138.418L138.296 146.968C140.168 146.723 141.51 146.357 142.324 145.869L143.179 146.479C144.562 145.91 145.579 145.665 146.23 145.747L146.597 146.723C147.166 146.805 148.509 146.601 150.625 146.113L150.503 147.09H150.991C151.479 147.171 152.008 146.723 152.578 145.747L152.212 144.77C152.944 143.956 153.351 142.858 153.433 141.474L152.944 141.352C153.026 140.701 153.717 140.457 155.02 140.62V140.132L154.165 138.545L154.287 137.08C154.368 136.429 154.897 136.144 155.874 136.225V135.249H154.897L155.02 134.272C155.589 134.272 156.525 132.848 157.827 130L157.461 129.023C158.519 124.629 159.74 121.292 161.123 119.013L160.757 118.037L160.879 117.06L161.367 116.084C161.042 116.084 160.92 115.921 161.001 115.595C161.571 115.677 162.14 114.741 162.71 112.788C162.059 112.706 161.733 112.381 161.733 111.811C162.384 111.811 162.995 110.55 163.564 108.027C163.239 107.946 163.076 107.742 163.076 107.417C163.727 107.498 164.093 107.051 164.175 106.074L163.809 105.097C164.297 103.144 164.704 102.168 165.029 102.168L164.785 99.7263L165.029 96.7966C165.68 96.878 165.965 97.407 165.884 98.3835H166.372V97.407C165.721 97.407 165.436 97.0815 165.518 96.4304L166.494 95.9421L164.907 92.4021H165.396L166.25 93.0125C166.413 91.7104 166.86 90.6117 167.593 89.7166L167.104 88.74C167.186 87.7634 167.715 87.3158 168.691 87.3972L168.813 86.4207C167.837 86.3393 167.43 85.1593 167.593 82.8806H168.569L168.691 82.3923L168.203 81.4158L169.302 81.0496L168.813 79.9509C169.22 79.3813 169.424 78.9337 169.424 78.6082C169.18 77.9571 169.058 77.4688 169.058 77.1433C169.709 77.1433 170.522 75.3936 171.499 71.8943L171.133 70.9177C171.865 69.2901 172.272 68.1508 172.354 67.4998C171.702 67.4998 171.418 67.1742 171.499 66.5232V66.0349L172.598 64.6921C172.598 64.2852 172.476 63.7563 172.231 63.1052L172.964 60.2976L171.255 56.6355L171.743 56.7576L172.72 57.2458C172.801 56.5948 173.005 56.31 173.33 56.3914L172.842 55.4148L172.964 54.9265C172.964 54.1941 173.167 53.5431 173.574 52.9734L172.72 50.8982C173.127 50.3285 173.33 49.8809 173.33 49.5554C173.086 48.9044 172.964 48.3754 172.964 47.9685C173.615 48.0499 173.981 47.7651 174.062 47.114H173.574C172.923 47.0326 172.557 47.4802 172.476 48.4568H171.987L172.109 46.9919C173.086 47.0733 173.656 46.3002 173.818 44.6726L173.33 44.5505V43.696C174.469 43.7774 175.202 42.8416 175.527 40.8884H176.016C175.365 37.0636 175.039 35.0697 175.039 34.907C175.771 33.9304 176.178 33.1573 176.26 32.5876H175.771C175.202 32.8318 174.551 32.9132 173.818 32.8318L176.382 30.6345L174.185 27.5828L174.307 27.0945L176.26 27.2166L176.87 25.2634V24.7751H176.382V25.7517L175.405 25.6296C175.487 24.8972 175.69 24.2869 176.016 23.7986C175.771 23.1475 175.649 22.4558 175.649 21.7234C176.951 21.8861 177.643 21.4792 177.725 20.5027L176.26 20.3806L178.213 15.1316C177.236 15.0502 176.789 14.684 176.87 14.033C177.358 13.7888 178.335 13.7074 179.8 13.7888C179.881 13.1378 179.271 12.7716 177.969 12.6902V12.2019L179.434 12.324L179.067 11.2253C179.718 11.3067 180.044 11.0219 180.044 10.3708C179.718 10.3708 179.596 10.2081 179.678 9.88257L182.119 9.15015C182.201 9.80119 182.526 10.1267 183.096 10.1267C183.177 8.98739 184.886 7.6853 188.223 6.22046ZM187.734 7.07495L187.612 7.56323L188.589 7.6853L188.711 7.19702L187.734 7.07495ZM201.162 15.6199H201.65C202.301 15.7826 202.627 16.1488 202.627 16.7185L201.528 17.0847L201.162 16.1082V15.6199ZM204.092 27.5828V28.5593C204.743 28.6407 205.068 28.3559 205.068 27.7048L204.092 27.5828ZM174.062 29.5359L175.527 29.658C175.446 30.309 175.08 30.5938 174.429 30.5125L174.062 29.5359ZM206.655 37.5925L207.632 37.7146L207.51 39.1794C206.859 39.0981 206.574 38.7319 206.655 38.0808V37.5925ZM209.707 71.6501L210.195 71.7722C210.846 71.8536 211.172 72.1791 211.172 72.7488L211.05 73.2371C210.48 72.9115 210.033 72.7081 209.707 72.6267V71.6501ZM170.278 69.3308L171.255 69.4529L171.133 69.9412L170.156 69.8191L170.278 69.3308ZM168.203 76.533H168.691L168.569 77.0212C168.569 77.6723 168.244 77.9978 167.593 77.9978L167.104 76.8992L168.203 76.533ZM209.829 82.5144L209.707 83.491H210.195L210.317 82.5144H209.829ZM210.562 84.9558H211.05V85.9324H210.562V84.9558ZM209.951 86.9089L209.829 87.8855H210.317L210.439 86.9089H209.951ZM211.172 89.9607H212.148L212.026 90.449H211.05L211.172 89.9607ZM187.246 93.7449C187.083 95.698 186.717 96.6746 186.147 96.6746L186.514 97.6511C186.107 98.2208 185.903 98.8718 185.903 99.6042C186.473 99.767 186.758 100.093 186.758 100.581H185.781L185.659 101.557C185.985 101.557 186.473 101.761 187.124 102.168C186.473 103.388 185.944 103.999 185.537 103.999L185.049 103.877V102.9L184.072 103.388L184.805 106.318C184.154 106.562 183.665 106.684 183.34 106.684C183.258 107.01 183.381 107.173 183.706 107.173C183.055 110.021 182.607 111.811 182.363 112.544C182.933 112.625 183.218 112.951 183.218 113.52C182.811 114.822 182.119 115.433 181.143 115.351L181.021 115.84C181.672 115.84 181.997 116.002 181.997 116.328C181.183 118.362 180.736 119.664 180.654 120.234C180.98 120.885 181.102 121.373 181.021 121.699L180.044 121.577L180.532 122.676L180.41 123.652L179.434 123.53V124.018C179.596 125.402 179.637 126.541 179.556 127.436H179.067L179.312 130.854L177.236 132.685L177.603 133.662L177.358 137.08C177.277 137.568 176.748 138.016 175.771 138.423L176.138 139.399L176.016 141.352C175.365 141.271 174.998 141.393 174.917 141.719L175.405 142.817C174.998 143.387 174.795 143.834 174.795 144.16L176.016 146.235L177.114 145.869L178.091 145.991C178.416 145.991 178.538 146.154 178.457 146.479L179.556 146.113C179.881 146.113 180.003 146.276 179.922 146.601C182.852 146.439 184.683 146.113 185.415 145.625L185.293 146.601H185.781L185.903 145.625H186.392C187.043 145.788 187.327 146.154 187.246 146.723L189.81 146.479L190.664 146.968C191.315 146.723 191.966 146.642 192.617 146.723L192.251 145.625V145.136L193.228 145.747H193.716L194.448 142.451L193.472 142.817H192.983C193.146 142.166 193.512 141.841 194.082 141.841C193.187 140.213 192.78 139.074 192.861 138.423H193.35L194.326 139.033C194.326 138.626 194.53 138.138 194.937 137.568C193.634 137.487 193.024 136.795 193.105 135.493C193.431 135.493 193.594 135.33 193.594 135.005L192.739 134.394L191.152 135.249L190.786 134.272C191.763 134.028 192.292 133.743 192.373 133.418C192.129 132.278 192.007 131.627 192.007 131.465L192.129 130L191.641 129.878L191.763 128.413L192.373 127.558C191.722 127.477 191.315 126.46 191.152 124.507H191.641L191.152 123.53L191.274 123.042L191.885 120.6C191.152 120.6 190.461 119.42 189.81 117.06V116.084L190.786 116.206L190.908 115.718L189.932 115.595C189.85 115.921 189.647 116.084 189.321 116.084L189.443 115.595L189.932 114.619L190.054 113.154H190.542L190.664 111.689L189.443 109.614C189.443 109.288 189.606 109.166 189.932 109.248C189.606 107.376 189.24 106.033 188.833 105.219H189.321C188.67 101.395 187.897 98.5463 187.002 96.6746L188.467 96.7966L188.589 96.3083C188.019 95.4945 187.734 94.6807 187.734 93.8669L187.246 93.7449ZM165.273 99.8484L165.151 100.337H166.128L166.25 99.8484H165.273ZM214.346 103.877L214.834 104.975L213.735 105.342L213.369 104.365L214.346 103.877ZM215.566 119.746L215.444 120.6L215.933 120.722L216.055 119.746H215.566ZM159.658 120.356L159.536 121.333H158.56C158.722 120.682 159.089 120.356 159.658 120.356ZM219.717 127.436H220.693V128.413H219.717V127.436ZM220.693 139.765V140.254H221.67V139.765H220.693ZM153.311 136.958L153.677 138.056L152.7 138.423L152.334 137.446L153.311 136.958ZM244.863 149.531C245.433 150.67 245.677 151.688 245.596 152.583V153.071L244.619 152.949C244.619 152.135 244.334 151.321 243.765 150.508C243.927 149.857 244.294 149.531 244.863 149.531ZM138.662 165.644L138.54 166.621L139.028 166.743L139.15 165.766L138.662 165.644ZM199.819 177.607L200.796 177.729V178.218L199.819 178.095V177.607ZM165.029 178.218V178.706H166.006V178.218H165.029ZM204.458 182.002L205.923 182.124L205.801 183.1L204.336 182.978L204.458 182.002ZM198.965 182.49H199.453L199.331 183.467H198.843L198.965 182.49ZM212.393 186.03V186.518C212.962 187.413 213.206 188.105 213.125 188.594C213.776 188.675 214.142 188.39 214.224 187.739C213.735 187.658 213.125 187.088 212.393 186.03ZM205.068 185.908L205.557 186.03L205.435 187.007L204.946 186.885L205.068 185.908ZM141.714 181.635H142.69C142.609 182.287 142.243 182.612 141.592 182.612L141.714 181.635ZM210.195 188.349H210.684V189.326L209.219 189.204C209.382 188.553 209.707 188.268 210.195 188.349ZM144.766 186.274L144.644 188.227H145.132L145.254 186.274H144.766ZM152.7 191.401L152.578 192.378C152.497 193.029 152.131 193.314 151.479 193.232L151.602 192.256C151.764 191.605 152.131 191.32 152.7 191.401ZM146.719 192.378H147.207V192.866C147.126 193.517 146.759 193.802 146.108 193.72L145.742 192.744L146.719 192.378ZM263.623 13.3005L262.646 15.2537L263.623 15.7419C263.623 14.1143 263.949 13.3005 264.6 13.3005H265.088V13.7888C265.088 14.4399 264.762 14.7654 264.111 14.7654C264.437 15.4164 264.6 15.9047 264.6 16.2302H265.088L267.529 15.7419V16.2302C267.529 16.8813 266.878 17.2068 265.576 17.2068V17.6951C267.855 17.6951 268.994 18.1833 268.994 19.1599L269.971 18.6716V19.6482H268.994V20.6248H269.971L270.947 20.1365L273.389 24.0427H273.877C273.877 22.7406 274.202 22.0896 274.854 22.0896H275.342C275.342 22.6593 275.016 23.9613 274.365 25.9958H274.854L275.83 25.5076C275.83 25.8331 275.993 25.9958 276.318 25.9958L275.83 26.9724V27.949L276.807 27.4607H277.295C277.295 28.1117 278.109 28.4373 279.736 28.4373V28.9255H278.76C278.76 29.4952 280.062 30.7973 282.666 32.8318C282.34 32.8318 282.178 32.9945 282.178 33.3201C282.829 33.4014 283.154 33.727 283.154 34.2966C282.829 34.2966 282.666 34.4594 282.666 34.7849C282.992 34.7849 283.154 34.9477 283.154 35.2732L284.131 34.7849C284.782 35.1104 285.27 35.2732 285.596 35.2732V35.7615C285.596 36.087 285.433 36.2498 285.107 36.2498C287.386 40.4815 289.176 42.5974 290.479 42.5974V43.574H289.014L291.943 47.4802L291.455 48.4568L295.361 53.8279L294.873 54.8044V55.781C295.524 55.781 295.85 56.2693 295.85 57.2458L296.826 56.7576C297.477 57.8155 297.803 58.6293 297.803 59.199C297.477 59.199 297.314 59.3617 297.314 59.6873C298.535 60.9893 299.349 61.6404 299.756 61.6404V62.1287L299.268 63.1052C299.919 63.1052 301.872 66.1977 305.127 72.3826C305.778 72.4639 306.104 72.7895 306.104 73.3591C305.778 73.3591 305.615 73.5219 305.615 73.8474C306.266 74.1729 306.755 74.3357 307.08 74.3357L306.592 75.3123L311.963 84.5896L317.822 94.8435L318.799 95.3318L318.311 96.3083C320.02 100.133 322.135 103.388 324.658 106.074C324.333 106.644 324.17 107.295 324.17 108.027C328.076 113.154 331.006 117.874 332.959 122.187C336.214 126.094 338.981 130.488 341.26 135.371C344.515 139.684 346.143 142.288 346.143 143.183L347.119 142.695C347.119 143.021 347.282 143.183 347.607 143.183L347.119 144.16C350.212 148.88 352.327 151.81 353.467 152.949C353.141 152.949 352.979 153.112 352.979 153.437C354.606 154.332 356.396 156.774 358.35 160.761C360.628 162.715 361.768 164.505 361.768 166.133L362.744 165.644C362.744 166.133 363.232 166.621 364.209 167.109H364.697L364.209 166.133C364.209 165.807 364.372 165.644 364.697 165.644C364.046 163.691 363.395 160.761 362.744 156.855C363.07 156.204 363.232 155.716 363.232 155.39C362.581 155.39 362.256 155.065 362.256 154.414L363.232 152.949H362.256L362.744 150.508L361.768 150.019L362.256 149.043C362.256 148.066 361.768 147.578 360.791 147.578V146.601C360.791 146.276 360.954 146.113 361.279 146.113L360.791 145.136V144.16H361.768V143.183C360.465 143.183 359.814 142.858 359.814 142.207C359.814 141.881 359.977 141.719 360.303 141.719C359.896 138.219 359.082 135.941 357.861 134.883V134.394C357.861 134.069 358.024 133.906 358.35 133.906L357.373 131.953C357.699 131.953 357.861 131.79 357.861 131.465C356.885 131.465 356.071 129.837 355.42 126.582C355.013 126.582 354.688 125.442 354.443 123.164H353.955L352.979 123.652C353.63 121.211 353.955 119.583 353.955 118.769L352.979 119.258H352.49C351.839 115.026 350.7 112.91 349.072 112.91L350.049 110.957C349.398 110.957 349.072 110.469 349.072 109.492V108.027L347.607 107.051C347.607 107.376 347.445 107.539 347.119 107.539C346.794 102.005 345.98 99.238 344.678 99.238C344.678 99.5636 344.515 99.7263 344.189 99.7263L343.701 98.7498C344.352 98.4242 344.84 98.2615 345.166 98.2615C345.166 96.3897 344.027 95.4132 341.748 95.3318V94.3552C341.748 94.0297 341.911 93.8669 342.236 93.8669L340.283 90.9373H340.771L340.283 89.9607C340.609 89.3097 340.771 88.8214 340.771 88.4958H340.283L338.818 89.4724L339.307 87.031V85.0779L336.865 85.5662H336.377L336.865 84.5896C336.54 84.5896 336.377 84.4268 336.377 84.1013L337.354 83.613C337.354 83.9386 337.516 84.1013 337.842 84.1013V83.613C335.563 80.3578 334.424 78.0792 334.424 76.7771H334.912L335.889 77.2654V76.7771C335.889 76.1261 335.563 75.8005 334.912 75.8005C334.912 76.4516 334.261 76.7771 332.959 76.7771L333.936 78.2419H333.447C333.122 78.2419 332.959 78.0792 332.959 77.7537L331.982 78.2419H331.494V77.2654L333.447 74.824C332.471 74.0102 331.982 73.1964 331.982 72.3826L331.006 72.8708C330.355 72.8708 330.029 72.5453 330.029 71.8943C331.006 71.8943 331.494 71.406 331.494 70.4294V69.9412H331.006C331.006 70.5922 330.518 70.9177 329.541 70.9177L330.029 71.8943H329.541C328.89 71.8943 328.564 71.5688 328.564 70.9177C329.215 70.9177 329.541 70.5922 329.541 69.9412L329.053 68.9646H329.541L330.518 69.4529C330.518 69.1274 330.68 68.9646 331.006 68.9646C331.006 67.988 330.518 67.4998 329.541 67.4998V67.0115C330.192 66.1977 330.518 65.7094 330.518 65.5466H329.053V64.5701H330.518V63.5935H329.053L329.541 62.6169C329.541 62.2914 329.378 62.1287 329.053 62.1287L329.541 61.1521V60.6638L328.564 61.1521C328.564 60.5011 328.239 60.1755 327.588 60.1755L328.076 59.199C327.425 57.8969 326.449 57.2458 325.146 57.2458C325.146 57.5714 324.984 57.7341 324.658 57.7341V56.7576H326.123L325.146 55.2927C325.472 54.6417 325.635 54.1534 325.635 53.8279H326.123C326.774 53.9093 327.1 54.2348 327.1 54.8044C326.449 54.8858 326.123 55.2113 326.123 55.781H327.588C327.262 54.3975 327.1 53.2582 327.1 52.363C327.751 52.0375 328.239 51.8748 328.564 51.8748V51.3865H327.588C327.588 51.712 327.425 51.8748 327.1 51.8748C326.042 49.5961 325.228 48.4568 324.658 48.4568V46.5037H325.146L326.123 46.9919C326.123 46.6664 326.286 46.5037 326.611 46.5037C326.611 47.8057 326.937 48.4568 327.588 48.4568L328.564 46.9919C327.181 46.9919 326.042 45.8526 325.146 43.574H324.658C325.146 42.2719 325.635 41.6208 326.123 41.6208H327.1L328.076 42.1091L327.588 43.0857V44.5505C329.541 44.5505 330.518 45.0388 330.518 46.0154H331.494C331.169 44.7133 330.518 44.0623 329.541 44.0623V43.574L331.006 41.6208C330.68 41.0512 330.518 40.4001 330.518 39.6677L331.494 39.1794V40.156H332.959C332.959 39.7491 333.61 38.7725 334.912 37.2263V36.738C335.563 36.738 335.889 37.2263 335.889 38.2029H336.377L337.842 37.2263H340.283V36.738L339.307 35.2732V34.7849H340.283C340.283 35.2732 340.609 35.9242 341.26 36.738L340.771 37.7146L343.213 37.2263H343.701V38.6912C343.701 39.3422 343.213 39.6677 342.236 39.6677V40.156H343.213C343.213 39.8305 343.376 39.6677 343.701 39.6677C346.631 42.0278 348.096 43.4926 348.096 44.0623H348.584C348.584 43.0857 348.91 42.5974 349.561 42.5974V43.0857L350.537 42.5974C351.188 42.9229 351.676 43.0857 352.002 43.0857V45.0388H351.514C350.863 44.7133 350.374 44.5505 350.049 44.5505V46.0154L351.025 45.5271C352.165 46.8292 353.304 47.4802 354.443 47.4802V48.9451C353.467 48.9451 352.979 49.2706 352.979 49.9216C353.304 49.9216 353.467 50.0844 353.467 50.4099L354.443 49.9216H355.42C355.42 50.9796 355.583 51.7934 355.908 52.363C355.583 52.9327 355.42 53.5837 355.42 54.3162H355.908L355.42 55.2927L356.885 57.2458V57.7341L356.396 58.7107C357.048 58.7921 357.373 59.1176 357.373 59.6873L356.885 60.6638C357.536 60.6638 357.861 60.8266 357.861 61.1521L356.885 63.1052C357.536 63.1052 358.35 64.7328 359.326 67.988H358.838L359.326 68.9646V69.4529H357.861V68.4763C357.21 68.5577 356.885 68.8832 356.885 69.4529L359.326 70.4294V71.8943C358.675 72.7081 358.35 73.3591 358.35 73.8474V74.3357H358.838V73.3591C360.303 74.0102 361.117 74.6612 361.279 75.3123C361.279 75.9633 360.628 76.2888 359.326 76.2888V76.7771C360.303 76.7771 361.117 77.4281 361.768 78.7302C361.117 78.8116 360.791 79.1371 360.791 79.7068V80.1951C362.093 80.1951 362.744 80.8461 362.744 82.1482C362.093 82.4737 361.605 82.6365 361.279 82.6365C361.279 83.1248 361.93 83.613 363.232 84.1013L362.744 85.0779V85.5662L363.721 85.0779L363.232 87.031C363.232 88.9841 363.721 89.9607 364.697 89.9607V90.9373H363.721C363.721 91.1 364.046 91.5883 364.697 92.4021H363.721V92.8904C364.209 92.8904 364.86 93.3787 365.674 94.3552L365.186 95.3318L365.674 97.7732L366.65 97.2849H367.139V97.7732C367.139 98.4242 366.813 98.7498 366.162 98.7498C366.162 98.4242 365.999 98.2615 365.674 98.2615C365.674 100.215 366.162 101.191 367.139 101.191V101.679C367.139 102.33 366.65 102.656 365.674 102.656V103.633H366.65V104.609L365.674 106.074C366.406 106.074 366.895 106.888 367.139 108.515L366.65 110.957C367.627 110.957 368.115 111.282 368.115 111.933V112.91C368.115 113.235 367.952 113.398 367.627 113.398C369.58 117.386 370.557 119.664 370.557 120.234C370.231 123.082 370.068 124.873 370.068 125.605C370.475 125.605 371.289 126.582 372.51 128.535V129.023H371.533V129.511C372.51 129.511 372.998 130.163 372.998 131.465L372.021 131.953L372.51 132.929L372.021 135.371C373.324 135.534 373.975 136.022 373.975 136.836H372.998C372.998 137.894 373.486 139.196 374.463 140.742H373.486V141.23H374.951V141.719L373.975 143.183H374.951L373.975 144.648V145.136L374.951 146.601L374.463 147.578C376.09 148.31 376.904 149.775 376.904 151.972H377.393V150.996H378.369V151.484C378.369 154.088 377.718 155.39 376.416 155.39C376.416 155.879 376.904 156.367 377.881 156.855L378.369 155.879C379.346 156.204 379.834 156.53 379.834 156.855C379.264 158.483 378.451 159.297 377.393 159.297V163.691H377.881C377.881 161.413 378.857 160.273 380.811 160.273V161.25H379.346C379.346 162.226 379.997 162.715 381.299 162.715C380.973 164.017 380.16 164.668 378.857 164.668V165.156H380.322V165.644C380.322 165.97 380.16 166.133 379.834 166.133C380.16 166.702 380.322 167.353 380.322 168.086L381.299 167.597H381.787L382.275 170.039V171.015H381.299V170.527L381.787 169.551C381.055 169.551 380.404 169.388 379.834 169.062C379.834 169.795 379.671 170.446 379.346 171.015C379.834 171.015 380.322 171.504 380.811 172.48V172.969H379.834V173.457C380.322 173.457 380.973 173.782 381.787 174.433V173.457H382.764V175.41H382.275L381.299 174.922C380.973 176.712 380.322 178.177 379.346 179.316C379.997 179.398 380.322 179.723 380.322 180.293L379.346 182.246L378.369 181.758H377.881V182.246H378.857V183.222C377.148 187.129 375.684 189.245 374.463 189.57V190.058H373.975C373.649 190.058 373.486 189.896 373.486 189.57C372.51 189.896 372.021 190.221 372.021 190.547L371.045 190.058L368.115 190.547H367.627V189.082H366.65V189.57L367.139 190.547H366.65C365.999 190.547 365.674 190.221 365.674 189.57L366.65 188.105C365.592 188.105 364.29 187.454 362.744 186.152H362.256L363.232 187.617V188.105H362.256C362.256 187.536 361.768 186.722 360.791 185.664C361.442 185.664 361.768 185.338 361.768 184.687C358.187 183.304 356.396 182.327 356.396 181.758C356.722 181.758 356.885 181.595 356.885 181.269C355.908 181.269 353.955 179.153 351.025 174.922H350.049V174.433C350.049 174.108 350.212 173.945 350.537 173.945C347.607 168.818 344.84 165.4 342.236 163.691C342.236 162.145 341.423 160.355 339.795 158.32C339.795 157.669 339.469 157.344 338.818 157.344L339.307 156.367C336.784 152.135 335.156 150.019 334.424 150.019H333.936V149.531H334.912L331.982 146.113L332.471 145.136C331.169 144.648 330.518 144.16 330.518 143.672C330.843 143.672 331.006 143.509 331.006 143.183C326.611 136.022 324.17 132.441 323.682 132.441L324.17 131.465L317.822 122.187C318.148 122.187 318.311 122.024 318.311 121.699L310.986 110.469C310.986 109.166 310.335 108.515 309.033 108.515V108.027L309.521 107.051C308.464 106.074 307.161 103.958 305.615 100.703C304.557 100.703 303.418 98.7498 302.197 94.8435C301.465 94.8435 300.814 94.6807 300.244 94.3552L300.732 93.3787V92.8904C300.081 92.0766 299.756 91.5883 299.756 91.4255L300.244 90.449C299.756 90.449 298.617 89.1469 296.826 86.5427H297.314C297.314 85.5662 296.663 85.0779 295.361 85.0779L295.85 84.1013C295.199 83.2875 294.873 82.4737 294.873 81.6599H294.385V83.613L296.338 90.9373C296.012 90.9373 295.85 91.1 295.85 91.4255C296.419 91.4255 297.396 93.7042 298.779 98.2615C299.105 98.2615 299.268 98.4242 299.268 98.7498V99.238H298.291L298.779 101.679H298.291L299.268 103.633C298.942 104.284 298.779 104.772 298.779 105.097C299.43 105.423 299.919 105.586 300.244 105.586V106.074L299.268 107.539V108.027L300.244 107.539H300.732C300.732 107.864 300.895 108.353 301.221 109.004C300.57 109.085 300.244 109.411 300.244 109.98C300.895 110.062 301.221 110.387 301.221 110.957L300.732 111.933C301.058 114.131 301.383 115.595 301.709 116.328C301.383 116.979 301.221 117.467 301.221 117.793L302.197 118.281L301.709 119.258C302.035 119.827 302.197 120.478 302.197 121.211C301.872 121.211 301.709 121.373 301.709 121.699L302.686 122.187C302.686 122.513 302.523 122.676 302.197 122.676C302.197 123.245 302.523 124.547 303.174 126.582C302.848 127.151 302.686 127.802 302.686 128.535C303.337 128.616 303.662 128.942 303.662 129.511V130L302.197 132.441H303.174V133.906L303.662 136.836L303.174 137.812C303.499 138.382 303.662 139.033 303.662 139.765H302.686C303.174 141.067 303.662 141.719 304.15 141.719L303.174 143.672H305.127V144.16C305.127 144.811 304.801 145.136 304.15 145.136L304.639 146.113C304.639 146.439 304.476 146.601 304.15 146.601C304.15 146.927 304.313 147.09 304.639 147.09C304.232 150.019 303.906 151.81 303.662 152.461C303.988 153.112 304.15 153.6 304.15 153.926H303.662L304.15 154.902L303.662 155.879C304.313 155.96 304.639 156.286 304.639 156.855C304.069 156.855 303.581 158.32 303.174 161.25C303.662 162.552 304.15 163.203 304.639 163.203C304.313 163.773 304.15 164.586 304.15 165.644H303.174V164.668H302.686C302.686 167.597 302.36 169.062 301.709 169.062L302.197 170.039V170.527C302.197 171.178 301.872 171.504 301.221 171.504L301.709 172.48L300.244 175.41H301.221V176.386H299.756V175.41H299.268C299.268 176.468 299.105 177.282 298.779 177.851C299.105 178.502 299.268 178.991 299.268 179.316C297.965 179.967 297.314 180.781 297.314 181.758H296.826C296.501 181.758 295.85 181.107 294.873 179.804C293.245 180.455 292.106 180.781 291.455 180.781C291.455 180.455 290.153 178.991 287.549 176.386H288.525V175.41H287.549V176.386H286.572V174.922H287.549V173.457C286.572 173.457 286.084 173.131 286.084 172.48V171.992L287.061 172.48H287.549C287.549 171.666 286.898 171.178 285.596 171.015C285.596 170.364 286.084 170.039 287.061 170.039L286.572 169.062C286.898 168.493 287.061 167.842 287.061 167.109L286.084 167.597H285.596C285.596 167.109 285.27 166.458 284.619 165.644C285.596 165.319 286.084 164.993 286.084 164.668C286.084 163.773 285.596 161.819 284.619 158.808C284.945 158.239 285.107 157.588 285.107 156.855L284.619 155.879C285.27 154.821 285.596 154.007 285.596 153.437C284.945 153.437 284.619 152.949 284.619 151.972C284.945 150.996 285.27 150.508 285.596 150.508L285.107 149.531L285.596 148.554C284.945 148.554 284.619 148.066 284.619 147.09C284.619 146.764 284.782 146.276 285.107 145.625L284.131 141.23C284.456 140.661 284.619 140.01 284.619 139.277C283.968 138.219 283.643 137.243 283.643 136.347L284.619 134.883C283.968 134.883 283.643 134.557 283.643 133.906L284.131 132.929C283.48 132.929 283.154 132.604 283.154 131.953V129.511C283.154 129.186 283.317 129.023 283.643 129.023L282.178 126.582H282.666L282.178 125.605V124.629H283.154V123.652H281.201C281.283 123.001 281.608 122.676 282.178 122.676L281.689 121.699L282.178 115.84H281.201V115.351L281.689 114.375H280.713V113.398H281.689V112.91C281.038 112.91 280.713 112.747 280.713 112.422V109.98H280.225V109.004H281.201C280.713 107.702 280.225 107.051 279.736 107.051L280.225 106.074V104.121H279.248L279.736 103.144V102.168C278.923 102.168 278.434 101.517 278.271 100.215H278.76C278.109 98.9125 277.783 97.936 277.783 97.2849C278.109 97.2849 278.271 97.1222 278.271 96.7966C277.783 96.7966 277.132 96.1456 276.318 94.8435C276.644 94.1925 276.807 93.7042 276.807 93.3787L275.83 93.8669L275.342 92.8904L275.83 91.9138C275.505 91.9138 275.342 91.7511 275.342 91.4255C275.993 91.4255 276.318 91.1 276.318 90.449L275.342 89.9607L275.83 88.9841V88.0076H274.854V87.031C274.854 86.7055 275.016 86.5427 275.342 86.5427C274.365 83.8572 272.738 81.0903 270.459 78.2419C271.11 77.9164 271.598 77.7537 271.924 77.7537C270.703 76.2074 269.564 74.4171 268.506 72.3826L268.994 69.9412C268.587 69.9412 267.773 68.6391 266.553 66.0349V63.5935H265.088C265.739 62.7797 266.064 62.2914 266.064 62.1287H265.088V61.6404L265.576 60.6638C264.6 60.6638 264.111 59.6873 264.111 57.7341L263.135 58.2224H262.646V57.7341C262.972 57.0831 263.135 56.5948 263.135 56.2693L261.67 55.2927C261.995 54.3162 262.321 53.8279 262.646 53.8279C262.321 53.2582 262.158 52.6072 262.158 51.8748H261.67V52.8513H260.205V51.3865L261.182 49.9216H260.205V50.8982H259.229C259.229 50.1658 259.391 49.5147 259.717 48.9451L259.229 47.9685V46.5037H258.74L259.229 45.5271V45.0388C258.252 45.0388 257.764 44.8761 257.764 44.5505C258.089 43.8995 258.252 43.4112 258.252 43.0857C257.601 43.0857 257.275 42.7602 257.275 42.1091L258.252 41.6208C257.926 40.6443 257.601 40.156 257.275 40.156L257.764 39.1794C257.764 38.447 257.601 37.796 257.275 37.2263L257.764 36.2498C257.764 35.9242 257.113 34.9477 255.811 33.3201C256.462 32.9945 256.95 32.8318 257.275 32.8318V32.3435L256.787 31.3669C257.438 31.3669 257.764 31.0414 257.764 30.3904C256.95 29.7393 256.299 29.4138 255.811 29.4138V28.9255H257.275L256.787 26.4841L255.811 26.9724L256.299 24.531C255.973 22.822 255.811 21.8455 255.811 21.6013H256.299L257.275 22.0896L257.764 21.113V20.1365L257.275 19.1599C258.252 19.1599 259.066 18.5089 259.717 17.2068L259.229 14.2771L260.205 13.7888H260.693L260.205 14.7654V15.2537H260.693C260.938 13.9516 261.914 13.3005 263.623 13.3005ZM262.158 15.7419V16.2302C262.24 16.8813 262.565 17.2068 263.135 17.2068V16.7185C263.135 16.0675 262.809 15.7419 262.158 15.7419ZM268.506 15.2537H268.994V16.2302H268.506V15.2537ZM258.252 21.6013V22.0896H259.229V21.6013H258.252ZM340.771 27.949H341.26V28.9255H340.771V27.949ZM331.006 29.4138H331.494V30.3904H331.006V29.4138ZM334.912 29.9021H335.889C335.889 30.5531 335.563 30.8787 334.912 30.8787V29.9021ZM337.354 30.8787H338.33V31.3669H337.354V30.8787ZM328.564 32.3435H329.053C328.239 33.9711 327.588 34.7849 327.1 34.7849L326.611 33.8083L328.564 32.3435ZM330.029 33.3201H331.006V34.2966H330.029V33.3201ZM346.143 33.3201H347.119V34.2966H346.143V33.3201ZM336.865 33.8083L337.354 34.7849V35.2732C336.702 34.9477 336.214 34.7849 335.889 34.7849H334.912V35.2732H336.377V36.2498C335.645 36.2498 334.993 36.4125 334.424 36.738C334.098 36.3311 333.936 35.5173 333.936 34.2966C335.645 33.9711 336.621 33.8083 336.865 33.8083ZM325.146 35.7615H326.123V36.2498H325.146V35.7615ZM331.494 35.7615H332.471V36.2498C332.471 36.9008 332.145 37.2263 331.494 37.2263V35.7615ZM326.611 36.738H327.588V37.2263H326.611V36.738ZM329.541 36.738H330.518V37.7146H329.541V36.738ZM331.982 37.2263H332.471C333.122 37.3077 333.447 37.6332 333.447 38.2029H331.982V37.2263ZM346.631 37.2263V37.7146L346.143 38.6912C346.712 38.6912 347.526 39.1794 348.584 40.156C348.096 41.4581 347.607 42.1091 347.119 42.1091C345.817 40.807 345.166 39.3422 345.166 37.7146C345.492 37.7146 345.98 37.5518 346.631 37.2263ZM338.33 38.2029V38.6912H339.307V38.2029H338.33ZM329.053 38.2029H329.541V40.156H327.588V39.1794C328.564 39.1794 329.053 38.8539 329.053 38.2029ZM339.795 40.156V40.6443H341.748V40.156H339.795ZM346.631 40.156V40.6443H347.607V40.156H346.631ZM333.447 41.6208V42.1091H333.936C334.587 42.1091 334.912 41.7836 334.912 41.1326V40.6443H334.424C333.773 40.7257 333.447 41.0512 333.447 41.6208ZM348.584 40.6443H349.072C349.723 40.7257 350.049 41.0512 350.049 41.6208H349.561C348.91 41.6208 348.584 41.2953 348.584 40.6443ZM326.123 42.5974V43.574H326.611V42.5974H326.123ZM344.189 42.5974V43.0857H345.166V42.5974H344.189ZM327.1 45.0388V46.0154H328.564C328.564 45.3643 328.239 45.0388 327.588 45.0388H327.1ZM348.096 45.0388V46.0154C348.747 45.6899 349.235 45.5271 349.561 45.5271V45.0388H348.096ZM354.443 46.0154C355.094 46.0968 355.42 46.4223 355.42 46.9919C355.094 46.9919 354.932 47.1547 354.932 47.4802C354.281 47.1547 353.792 46.9919 353.467 46.9919C353.548 46.3409 353.874 46.0154 354.443 46.0154ZM355.908 46.9919H356.885V47.9685C356.234 47.9685 355.908 47.643 355.908 46.9919ZM325.635 50.8982L326.123 53.3396H325.635C324.984 53.3396 324.658 53.0141 324.658 52.363C324.984 52.363 325.146 52.2003 325.146 51.8748C324.821 51.8748 324.658 51.712 324.658 51.3865L325.635 50.8982ZM324.658 52.8513V53.8279H323.682C323.763 53.1768 324.089 52.8513 324.658 52.8513ZM357.861 55.781H358.838V56.7576C358.838 57.4086 358.512 57.7341 357.861 57.7341H357.373V57.2458C357.699 56.5948 357.861 56.1065 357.861 55.781ZM327.588 57.2458V57.7341H328.564V57.2458H327.588ZM324.658 58.2224V59.6873H323.682V59.199C323.763 58.5479 324.089 58.2224 324.658 58.2224ZM357.861 59.6873H358.838V60.1755H357.861V59.6873ZM327.1 60.1755C327.751 60.2569 328.076 60.5824 328.076 61.1521L327.1 61.6404H325.635C325.635 61.1521 326.123 60.6638 327.1 60.1755ZM330.518 61.6404V62.6169H331.006V61.6404H330.518ZM325.146 63.5935C325.798 63.6749 326.123 64.0004 326.123 64.5701H325.146V63.5935ZM359.326 64.0818C359.977 64.1632 360.303 64.4887 360.303 65.0583L359.326 65.5466V64.0818ZM332.471 66.5232V67.0115H333.447V66.5232H332.471ZM331.494 68.4763C331.82 69.046 331.982 69.697 331.982 70.4294C332.471 70.4294 332.959 69.9412 333.447 68.9646C332.308 68.6391 331.657 68.4763 331.494 68.4763ZM327.588 68.9646H328.564V69.4529H327.588V68.9646ZM330.518 74.3357H331.982V75.3123H330.518V74.3357ZM359.326 74.824V75.8005H360.303V74.824H359.326ZM272.412 78.2419V79.2185H272.9V78.2419H272.412ZM335.889 78.7302V79.2185H336.865V78.7302H335.889ZM333.936 79.2185C334.587 79.2999 334.912 79.6254 334.912 80.1951V81.1716H333.936V80.1951L332.959 80.6833H332.471C332.471 80.1951 332.959 79.7068 333.936 79.2185ZM335.4 82.6365V83.1248C335.4 83.7758 335.075 84.1013 334.424 84.1013V83.613C334.505 82.962 334.831 82.6365 335.4 82.6365ZM364.697 88.9841H365.674V89.9607C365.023 89.9607 364.697 89.6352 364.697 88.9841ZM339.795 91.4255V91.9138C339.795 92.5649 339.469 92.8904 338.818 92.8904V92.4021C338.9 91.7511 339.225 91.4255 339.795 91.4255ZM343.701 100.703H344.678V101.191H343.701V100.703ZM329.053 113.886H330.029V114.375H329.053V113.886ZM371.533 125.117H372.998V126.094H371.533V125.117ZM331.982 147.09H332.471V148.066H331.982V147.09ZM375.928 147.09C376.579 147.171 376.904 147.497 376.904 148.066V148.554H375.928V147.09ZM375.439 152.461L375.928 154.902H376.904C376.904 153.844 377.067 153.03 377.393 152.461H375.439ZM283.643 153.926H284.619V154.902H283.643V153.926ZM375.928 157.832V158.32H376.904V157.832H375.928ZM343.213 163.203V164.179H343.701V163.203H343.213ZM284.619 163.691H285.107V164.668H284.619V163.691ZM378.369 177.363V177.851H379.834V177.363H378.369ZM364.209 188.594H365.186V189.082H364.209V188.594ZM373.486 190.547L373.975 191.523L372.998 192.011L372.51 191.035L373.486 190.547ZM367.627 191.523H368.604V192.5H367.627V191.523ZM462.07 27.5828H463.047C463.047 28.6407 464.593 29.3324 467.686 29.658C467.686 30.0649 468.377 30.3904 469.761 30.6345C469.761 30.309 469.924 30.1462 470.249 30.1462V30.6345L471.226 30.1462H471.836V31.7332L472.812 31.1228H473.789C474.033 31.1228 474.562 31.489 475.376 32.2214C475.376 31.8959 475.539 31.7332 475.864 31.7332C475.864 32.2214 478.794 33.9304 484.653 36.8601C488.071 39.2201 490.106 41.0919 490.757 42.4753C493.117 42.4753 494.46 44.3471 494.785 48.0906C495.192 48.0906 495.396 47.9278 495.396 47.6023C496.86 47.9278 497.878 48.7823 498.447 50.1658L497.959 51.1423C498.61 51.2237 498.936 51.5492 498.936 52.1189H497.959V52.7292H498.936C498.936 52.3223 499.098 52.1189 499.424 52.1189C499.424 54.4789 499.79 56.1879 500.522 57.2458C500.116 57.2458 499.912 57.4086 499.912 57.7341C500.075 57.7341 500.604 58.1003 501.499 58.8328C501.499 60.8673 500.807 61.8845 499.424 61.8845L499.912 62.8611C499.017 64.7328 497.674 66.2791 495.884 67.4998L496.372 68.5984V69.0867C495.233 69.0867 494.378 69.2494 493.809 69.575C493.809 68.9239 493.483 68.5984 492.832 68.5984H492.222V70.0632H491.733L490.269 69.0867C490.269 70.0632 489.902 70.5515 489.17 70.5515C487.135 69.7377 486.118 68.8832 486.118 67.988L485.142 68.5984C484.653 68.5984 483.799 67.7439 482.578 66.0349H481.479V64.9363H482.578V63.9597L480.503 64.9363L480.015 61.8845C480.34 61.8845 480.503 61.7218 480.503 61.3962H480.015L480.503 60.2976V59.321C479.852 59.321 479.526 58.6293 479.526 57.2458H480.015V55.781C478.631 55.781 477.614 55.0893 476.963 53.7058C477.288 53.7058 477.451 53.5431 477.451 53.2175C475.01 53.2175 473.789 52.363 473.789 50.6541H472.324L472.812 49.5554V49.0671L471.836 49.5554C471.836 49.2299 471.632 49.0671 471.226 49.0671C471.226 49.3927 471.063 49.5554 470.737 49.5554C469.435 47.6837 466.221 46.3409 461.094 45.5271V45.0388C460.361 45.3643 459.832 45.5271 459.507 45.5271L456.943 43.9402C453.2 44.4285 451.328 44.9574 451.328 45.5271L450.352 45.0388H449.253L447.788 46.0154H447.178V44.4285C446.527 44.8354 446.038 45.0388 445.713 45.0388L446.201 46.0154L445.225 46.5037C444.492 45.8526 443.271 45.5271 441.562 45.5271V46.5037H441.074C440.26 45.8526 439.731 45.5271 439.487 45.5271H438.511C438.511 46.0154 438.185 46.7071 437.534 47.6023L438.022 48.5789L437.046 49.0671C437.046 48.0906 436.842 47.6023 436.436 47.6023C433.994 49.3113 432.489 50.1658 431.919 50.1658C431.919 49.7589 431.715 49.5554 431.309 49.5554C430.169 52.1596 429.152 53.8686 428.257 54.6824L428.745 55.781C428.094 56.8389 427.769 57.6934 427.769 58.3445L428.745 57.7341H429.844V58.8328H428.745V59.321C429.559 59.321 432.326 62.5763 437.046 69.0867H437.534L437.046 67.988V67.4998H438.022L438.511 69.575C438.185 69.575 438.022 69.7377 438.022 70.0632C440.301 72.0977 442.173 73.2778 443.638 73.6033L444.614 75.6785L445.713 75.1902H446.201V75.6785L445.713 76.7771C446.852 77.3468 449.904 79.7068 454.868 83.8572L455.967 83.3689H456.455C457.676 84.8337 460.931 86.5427 466.221 88.4958C467.035 89.5538 469.395 91.1 473.301 93.1345C477.451 94.518 479.526 95.5352 479.526 96.1863C479.526 96.7559 480.177 97.4477 481.479 98.2615V97.1628H482.09C482.09 97.8953 482.741 98.9532 484.043 100.337L485.142 99.7263C485.793 99.8891 486.118 100.255 486.118 100.825C485.793 100.825 485.63 100.988 485.63 101.313C486.688 101.313 488.56 102.493 491.245 104.853L494.785 107.905C495.518 107.905 496.209 108.597 496.86 109.98L503.574 119.258L503.086 120.234V120.722C504.062 120.722 504.551 121.414 504.551 122.798L505.527 122.309H506.138L506.626 124.873H506.138L508.091 131.465C507.765 131.465 507.603 131.668 507.603 132.075C508.66 132.075 509.189 133.418 509.189 136.103H508.701V139.155H510.166C510.166 139.481 510.003 139.643 509.678 139.643L510.166 140.742C510.166 141.067 510.003 141.23 509.678 141.23L510.654 143.305C509.352 143.468 508.701 143.956 508.701 144.77C509.271 144.77 509.759 146.316 510.166 149.409H509.189V149.897L509.678 152.461L508.701 151.972C508.05 151.972 507.521 152.827 507.114 154.536C507.44 155.187 507.603 155.716 507.603 156.123C506.951 156.123 506.26 157.466 505.527 160.151H504.551L505.039 161.25C502.923 165.644 499.017 170.08 493.32 174.555V175.044L492.222 174.555C492.222 175.288 491.204 176.142 489.17 177.119V177.607H488.193V176.509H487.705L487.217 178.584C486.81 178.584 486.606 178.421 486.606 178.095C485.549 178.747 484.694 179.072 484.043 179.072V178.584L483.066 179.072H482.578V178.095L478.916 179.072L479.526 180.171V180.659L477.939 179.682V180.659H476.353L476.963 179.682V179.072H476.353V180.171H475.376C474.562 179.438 473.87 179.072 473.301 179.072C473.057 179.072 472.039 179.275 470.249 179.682C469.679 179.275 468.988 179.072 468.174 179.072C468.174 179.804 467.848 180.171 467.197 180.171C467.197 179.438 466.872 179.072 466.221 179.072H464.634V178.584L462.07 179.072C461.745 179.072 461.582 178.909 461.582 178.584L460.483 179.072H458.53V178.095H456.943C456.943 178.747 456.781 179.072 456.455 179.072C454.99 178.421 453.81 177.404 452.915 176.02L451.816 176.509H450.84C450.84 175.695 447.585 174.677 441.074 173.457L441.562 172.48V171.992H441.074L440.098 172.48C438.47 170.771 436.598 169.917 434.482 169.917V169.428L434.971 168.33C431.553 165.237 429.844 163.528 429.844 163.203V162.715L430.82 163.203H431.309V162.715C430.169 162.389 429.518 162.226 429.355 162.226C429.355 162.552 429.152 162.715 428.745 162.715V160.639C427.524 159.988 426.67 158.646 426.182 156.611L425.205 157.099C424.554 157.099 424.229 156.774 424.229 156.123L424.717 155.024L423.618 154.536L424.229 153.559V150.996H423.618L422.642 151.484C422.642 150.101 422.113 149.409 421.055 149.409H420.566L421.665 144.77L420.566 145.381V143.305H420.078L420.566 142.207C420.241 141.637 420.078 140.986 420.078 140.254C420.404 140.254 420.566 140.05 420.566 139.643H419.59V139.155C420.973 138.341 421.665 137.324 421.665 136.103V133.54C420.933 133.54 420.566 133.214 420.566 132.563C421.95 131.831 422.967 131.465 423.618 131.465L423.13 130.488H423.618L423.13 129.511V128.901H424.229V125.849C427.158 123.001 429.518 121.292 431.309 120.722C431.309 119.746 431.675 119.258 432.407 119.258H432.896L433.872 119.746V119.258C435.256 119.746 435.947 120.234 435.947 120.722C435.296 121.129 434.808 121.333 434.482 121.333V122.309H434.971L437.046 121.333C438.674 123.205 439.487 124.71 439.487 125.849C439.162 125.849 438.999 126.012 438.999 126.338H440.586V126.948L440.098 127.925C441.4 128.087 442.051 128.616 442.051 129.511H441.562C442.132 130.814 442.661 131.465 443.149 131.465C443.149 131.139 443.312 130.976 443.638 130.976V131.465C443.638 131.872 443.475 132.075 443.149 132.075L443.638 133.052L443.149 134.028H444.614V134.638C444.614 134.964 444.451 135.127 444.126 135.127C444.451 137.161 444.818 138.178 445.225 138.178L444.614 139.155V139.643H445.225V138.667C446.527 139.236 447.178 140.416 447.178 142.207C447.178 142.614 447.015 142.817 446.689 142.817C446.934 144.526 447.788 145.381 449.253 145.381V145.869H448.276L448.765 146.845C448.114 147.008 447.788 147.374 447.788 147.944C448.114 147.944 448.602 148.107 449.253 148.432V147.334H450.352C450.352 147.497 450.514 148.188 450.84 149.409C450.107 149.49 449.741 149.857 449.741 150.508L454.38 153.559C454.38 153.234 454.543 153.071 454.868 153.071C455.601 154.129 455.967 154.943 455.967 155.512H456.943L457.92 155.024C457.92 155.268 458.774 156.123 460.483 157.588C461.216 157.262 461.745 157.099 462.07 157.099C462.152 157.75 462.477 158.076 463.047 158.076H467.686L468.784 157.588C468.784 158.483 469.964 159.175 472.324 159.663V158.686L473.301 159.175L473.789 158.076L474.888 158.686C482.7 157.14 486.606 154.577 486.606 150.996C487.99 149.775 488.682 148.392 488.682 146.845V145.381C489.089 145.381 489.618 145.177 490.269 144.77L489.17 141.23C489.821 140.905 490.35 140.742 490.757 140.742C490.024 139.603 489.658 138.585 489.658 137.69V136.103L490.269 135.127L486.118 127.436C484.653 126.053 483.311 124.344 482.09 122.309C480.788 122.065 479.079 120.356 476.963 117.182C476.23 117.182 474.155 115.311 470.737 111.567H470.249C470.249 111.893 470.086 112.055 469.761 112.055C469.761 111.73 466.506 110.021 459.995 106.928V105.952L459.019 106.44H458.53C458.53 105.382 456.984 104.691 453.892 104.365C452.508 104.121 451.816 103.633 451.816 102.9H449.253C448.602 102.9 448.276 102.534 448.276 101.802L447.178 102.29H446.689C446.689 100.988 446.527 100.337 446.201 100.337C445.55 100.662 445.021 100.825 444.614 100.825L442.051 98.7498L441.074 99.238C439.609 97.5291 437.9 96.1863 435.947 95.2097C435.947 95.8608 435.622 96.1863 434.971 96.1863C434.971 95.6166 432.244 93.3787 426.792 89.4724V88.9841L425.693 89.4724C423.903 87.8448 422.723 87.031 422.153 87.031L422.642 85.9324C422.642 84.7117 421.299 82.311 418.613 78.7302C417.718 76.6957 416.864 75.6785 416.05 75.6785V74.7019H417.026V73.6033H416.05L416.538 72.6267H414.951V72.1384L415.439 71.1619C415.114 71.1619 414.626 70.9584 413.975 70.5515L414.463 69.575C414.463 68.517 413.934 67.988 412.876 67.988V67.4998C412.876 67.1742 413.079 67.0115 413.486 67.0115C413.079 66.1977 412.713 64.4887 412.388 61.8845H412.876C412.55 61.2335 412.388 60.7045 412.388 60.2976V58.8328H411.899V58.3445C411.981 56.6355 412.306 55.781 412.876 55.781L411.899 53.2175C411.899 51.8341 412.754 50.8168 414.463 50.1658L413.975 49.0671C414.3 46.3816 414.788 45.0388 415.439 45.0388C415.439 45.3643 415.643 45.5271 416.05 45.5271V43.9402H414.951V42.9636C416.742 42.2312 417.759 41.865 418.003 41.865V41.3767C417.026 41.3767 416.538 41.0512 416.538 40.4001L417.515 39.9119C417.515 40.2374 417.677 40.4001 418.003 40.4001C419.549 38.7725 420.566 37.3891 421.055 36.2498L428.257 32.2214H429.844C429.844 31.8145 431.715 31.1228 435.459 30.1462L434.971 31.1228H435.947V29.1697L438.511 29.658H438.999V28.071H440.586V29.1697H441.562C441.562 28.4373 441.725 28.071 442.051 28.071L443.149 28.5593L444.126 28.071C444.451 28.071 444.614 28.2338 444.614 28.5593L449.741 28.071H452.305L455.356 28.5593C456.089 28.2338 456.618 28.071 456.943 28.071L457.92 28.5593H459.507V29.1697C461.216 29.1697 462.07 28.6407 462.07 27.5828ZM487.705 67.4998V67.988C487.786 68.7205 488.112 69.0867 488.682 69.0867V67.4998H487.705ZM470.249 112.544H471.226V113.032H470.249V112.544ZM422.153 128.413H423.13C423.13 129.145 422.804 129.511 422.153 129.511V128.413ZM511.265 145.869H512.241V146.357H511.265V145.869ZM507.603 154.048H508.091V155.024H507.603V154.048ZM431.309 167.353H432.407V168.33H431.309V167.353ZM431.919 169.428H432.407V170.405H431.919V169.428Z" fill="#FFA0C2"/>
</g>
<defs>
<filter id="filter0_d_40_11" x="0.301758" y="0.605225" width="515.939" height="201.237" filterUnits="userSpaceOnUse" color-interpolation-filters="sRGB">
<feFlood flood-opacity="0" result="BackgroundImageFix"/>
<feColorMatrix in="SourceAlpha" type="matrix" values="0 0 0 0 0 0 0 0 0 0 0 0 0 0 0 0 0 0 127 0" result="hardAlpha"/>
<feOffset dy="4"/>
<feGaussianBlur stdDeviation="2"/>
<feComposite in2="hardAlpha" operator="out"/>
<feColorMatrix type="matrix" values="0 0 0 0 0.7875 0 0 0 0 0.7875 0 0 0 0 0.7875 0 0 0 0.25 0"/>
<feBlend mode="normal" in2="BackgroundImageFix" result="effect1_dropShadow_40_11"/>
<feBlend mode="normal" in="SourceGraphic" in2="effect1_dropShadow_40_11" result="shape"/>
</filter>
</defs>
</svg>
