<svg width="520" height="200" viewBox="0 0 520 200" fill="none" xmlns="http://www.w3.org/2000/svg">
<g filter="url(#filter0_d_40_7)">
<path d="M4.65234 9.38739C19.9258 9.38739 27.5625 14.4785 27.5625 24.6608H29.4717V18.9333H33.29C38.3812 33.8324 42.8359 54.197 46.6543 80.027H44.7451L46.6543 81.9362V99.1188H50.4727L48.5635 101.028V110.574H50.4727C55.4889 97.9209 65.6712 80.7383 81.0195 59.0261L82.9287 60.9352L86.7471 55.2077H84.8379L81.0195 59.0261V57.1169L102.021 34.2067H105.839L113.476 41.8434L103.93 53.2985H109.657C109.657 49.3304 113.476 44.8757 121.112 39.9343V45.6618C116.021 46.2608 113.476 48.1699 113.476 51.3893H117.294C117.294 47.571 119.203 45.6618 123.021 45.6618V51.3893C116.508 55.2077 106.962 66.6628 94.3838 85.7546L54.291 158.303H50.4727L48.5635 156.394C44.7451 156.394 42.8359 158.94 42.8359 164.031H39.0176C30.1081 164.031 25.6533 159.576 25.6533 150.667L27.5625 144.939L23.7441 148.758V154.485L25.6533 156.394V158.303L23.7441 160.213H19.9258L18.0166 150.667L19.9258 144.939H18.0166L19.9258 143.03V131.575C18.3535 61.5716 13.8988 26.57 6.56152 26.57L8.4707 20.8425L4.65234 9.38739ZM96.293 32.2975V34.2067L88.6562 41.8434H86.7471C89.7419 36.3031 92.9238 33.1211 96.293 32.2975ZM82.9287 45.6618V47.571L65.7461 70.4811V68.572C68.666 61.3845 74.3936 53.7477 82.9287 45.6618ZM98.2021 57.1169L92.4746 66.6628H94.3838L100.111 59.0261V57.1169H98.2021ZM21.835 66.6628V76.2087H23.7441V66.6628H21.835ZM60.0186 76.2087H61.9277V81.9362L60.0186 83.8454H58.1094V81.9362L60.0186 76.2087ZM23.7441 81.9362V102.937H25.6533V81.9362H23.7441ZM58.1094 83.8454V85.7546L52.3818 93.3913V91.4821L58.1094 83.8454ZM61.9277 122.029V123.938L67.6553 118.211V116.301L61.9277 122.029ZM52.3818 137.302L54.291 139.212H56.2002L60.0186 127.757C57.3981 128.355 54.8525 131.537 52.3818 137.302ZM199.052 0.964539C199.875 4.7829 204.966 6.69208 214.325 6.69208L229.599 73.5134H242.963V75.4225L231.508 77.3317V79.2409C235.326 79.2409 237.235 80.5137 237.235 83.0593H252.509V84.9684C252.509 87.8135 246.145 90.3591 233.417 92.6052L237.235 104.06L235.326 109.788L237.235 121.243L235.326 123.152H237.235L235.326 125.061L237.235 147.971V159.426L235.326 157.517H233.417L239.145 186.155H235.326C235.326 182.337 234.053 180.427 231.508 180.427V182.337L233.417 188.064H231.508L229.599 186.155H227.689C227.689 189.973 226.417 191.883 223.871 191.883L214.325 159.426H212.416V167.063H210.507L206.688 144.153L212.416 147.971V146.062C211.368 134.607 209.459 128.88 206.688 128.88L208.598 126.97V121.243H204.779V126.97H202.87V119.334L204.779 117.424H202.87L200.961 119.334V111.697H202.87L204.779 113.606H206.688L204.779 111.697V100.242L162.777 109.788V113.606L176.142 109.788L183.778 111.697L193.324 109.788V113.606C166.596 118.398 153.231 124.762 153.231 132.698C149.862 146.699 146.044 155.608 141.776 159.426V163.245H136.049L134.14 161.336H132.23V163.245L126.503 159.426L130.321 147.971H128.412C124.594 147.971 122.685 153.063 122.685 163.245L118.866 159.426L120.775 147.971L115.048 142.244L147.504 63.9675H149.413C149.413 67.7858 150.686 69.695 153.231 69.695L155.141 60.1491L153.231 62.0583H151.322V54.4216L153.231 44.8757L155.141 46.7849H157.05L155.141 44.8757V42.9665L158.959 35.3298H160.868L162.777 37.239H164.687V35.3298C164.687 32.7842 162.777 31.5114 158.959 31.5114L168.505 4.7829H176.142L174.232 6.69208V8.60126C183.067 3.51011 191.34 0.964539 199.052 0.964539ZM187.597 44.8757L172.323 84.9684H176.142C188.869 84.9684 195.87 81.1501 197.143 73.5134L189.506 44.8757H187.597ZM170.414 56.3307L166.596 69.695L164.687 67.7858H162.777L164.687 75.4225H166.596L172.323 58.2399V56.3307H170.414ZM149.413 73.5134L147.504 75.4225V79.2409H149.413L151.322 73.5134H149.413ZM160.868 81.1501L158.959 88.7868H160.868L162.777 86.8776V81.1501H160.868ZM143.686 83.0593L141.776 90.696H143.686L147.504 83.0593H143.686ZM176.142 88.7868V90.696H179.96C191.415 89.4232 197.143 87.514 197.143 84.9684H195.233L176.142 88.7868ZM202.87 130.789H206.688V142.244H204.779L202.87 130.789ZM229.599 144.153V147.971L231.508 155.608H233.417V151.79L231.508 144.153H229.599ZM210.507 149.881V153.699L216.234 151.79V147.971L210.507 149.881ZM296.645 10.6227L310.009 22.0778C310.009 18.2595 311.282 16.3503 313.827 16.3503H315.736L342.465 85.0807V88.8991H340.556L336.737 77.444H334.828V81.2624L348.192 113.718H350.102C355.193 80.626 362.53 46.0736 372.113 10.0612L377.841 13.8796L383.568 11.9704L395.023 17.6979V19.6071C391.205 19.6071 389.296 22.1527 389.296 27.2438H391.205L393.114 29.153H395.023L396.933 19.6071H400.751V21.5163L398.842 23.4255L400.751 25.3347V27.2438C391.168 56.6677 382.558 98.8568 374.921 153.811H371.103L374.921 123.264C372.375 123.264 368.557 135.356 363.466 159.539C358.749 163.357 354.294 165.266 350.102 165.266V169.085H348.192C348.192 166.539 345.647 165.266 340.556 165.266V151.902C340.556 146.137 327.828 114.317 302.372 56.4431H300.463C295.372 79.1286 290.917 109.675 287.099 148.084L285.189 146.174C277.553 148.421 273.734 151.603 273.734 155.72H269.916C267.37 150.929 266.098 142.656 266.098 130.901H264.188V148.084H260.37L258.461 138.538C258.461 103.948 266.098 61.946 281.371 12.5319L296.645 10.6227ZM269.916 58.3522V60.2614L271.825 62.1706L269.916 64.0798V67.8981H271.825L273.734 60.2614L271.825 58.3522H269.916ZM342.465 88.8991C345.759 88.8991 348.305 93.9903 350.102 104.173V106.082H348.192L342.465 88.8991ZM463.305 6.91669C466.674 9.46226 477.38 10.735 495.424 10.735L495.312 12.6442H481.947L481.835 14.5534C497.782 14.5534 507.74 18.3718 511.708 26.0085L511.483 29.8268H501.938L501.825 31.736L515.077 33.6452L514.965 35.5544H503.51L503.397 37.4636C507.216 37.4636 509.05 38.7363 508.9 41.2819C486.215 41.2819 465.963 49.555 448.144 66.1013L448.031 68.0104C472.663 74.599 492.167 89.236 506.542 111.922L506.43 113.831C501.788 130.302 488.798 145.576 467.46 159.651L455.78 161.56L455.668 163.469H459.486C459.337 166.913 447.657 170.732 424.447 174.924L424.672 171.106H434.218L434.442 169.197C426.282 169.197 418.907 164.742 412.318 155.833C406.628 152.913 403.783 147.335 403.783 139.099C403.783 138.351 403.821 137.564 403.896 136.741L409.848 132.923L415.351 136.741H419.169C455.106 131.126 473.637 119.671 474.76 102.376C459.711 94.739 449.753 90.9206 444.887 90.9206L444.774 92.8298L426.02 85.1931L427.816 87.1022L427.704 90.9206C411.832 79.2409 404.083 70.3314 404.457 64.1921L419.394 37.4636L429.389 29.8268L429.164 33.6452L463.305 6.91669ZM437.25 58.4645L437.138 60.3737L470.829 39.3727L486.327 35.5544L486.552 31.736H482.733C462.593 39.223 447.432 48.1325 437.25 58.4645ZM447.807 136.741H449.716L453.759 132.923H451.85L447.807 136.741ZM482.172 136.741L473.974 146.287H475.883L484.081 136.741H482.172ZM458.251 152.014V153.924H460.16L468.134 148.196L458.251 152.014ZM436.576 165.379L436.464 167.288H444.101L453.759 165.379V163.469H451.85L436.576 165.379Z" fill="#FFA0C2"/>
</g>
<defs>
<filter id="filter0_d_40_7" x="0.652344" y="0.964539" width="518.425" height="198.918" filterUnits="userSpaceOnUse" color-interpolation-filters="sRGB">
<feFlood flood-opacity="0" result="BackgroundImageFix"/>
<feColorMatrix in="SourceAlpha" type="matrix" values="0 0 0 0 0 0 0 0 0 0 0 0 0 0 0 0 0 0 127 0" result="hardAlpha"/>
<feOffset dy="4"/>
<feGaussianBlur stdDeviation="2"/>
<feComposite in2="hardAlpha" operator="out"/>
<feColorMatrix type="matrix" values="0 0 0 0 0.7875 0 0 0 0 0.7875 0 0 0 0 0.7875 0 0 0 0.25 0"/>
<feBlend mode="normal" in2="BackgroundImageFix" result="effect1_dropShadow_40_7"/>
<feBlend mode="normal" in="SourceGraphic" in2="effect1_dropShadow_40_7" result="shape"/>
</filter>
</defs>
</svg>
