<svg width="516" height="235" viewBox="0 0 516 235" fill="none" xmlns="http://www.w3.org/2000/svg">
<g filter="url(#filter0_d_40_9)">
<path d="M131.699 13.8478C134.173 15.6057 134.727 21.0744 133.359 30.2541C131.992 39.4338 127.207 56.2307 119.004 80.6447C110.801 105.059 103.639 125.827 97.5195 142.949C91.4648 160.007 86.5169 173.679 82.6758 183.965C78.8346 194.186 75.3841 199.85 72.3242 200.957C69.2643 202.129 66.6602 199.753 64.5117 193.828C62.4284 187.904 60.638 183.216 59.1406 179.766C57.7083 176.25 54.2578 169.87 48.7891 160.625C43.3203 151.38 30.8854 118.405 11.4844 61.6994C10.638 61.6994 9.88932 60.1695 9.23828 57.1096L10.6055 56.5236C11.7122 56.5887 13.3724 59.0627 15.5859 63.9455C18.5156 67.6564 21.8685 74.6551 25.6445 84.9416C29.4857 95.1629 30.2344 96.5627 27.8906 89.1408C25.612 81.7189 21.543 69.7398 15.6836 53.2033C9.88932 36.6668 6.50391 25.5991 5.52734 20.0002C4.55078 14.4012 7.51302 19.4468 14.4141 35.1369C21.25 50.7619 30.6576 78.0731 42.6367 117.07C46.2174 124.102 48.3984 127.682 49.1797 127.813C46.0547 102.162 41.3346 78.301 35.0195 56.2307C28.7044 34.1603 26.0677 23.1577 27.1094 23.2228C28.2161 23.2228 31.9271 32.9885 38.2422 52.5197C44.6224 71.9859 48.5612 86.8947 50.0586 97.2463C51.6211 107.533 53.0208 120.195 54.2578 135.235C54.2578 136.276 55.2018 138.425 57.0898 141.68C58.9779 144.87 58.5547 140.182 55.8203 127.617L34.9219 35.2346C35.0521 32.5653 35.6706 31.2632 36.7773 31.3283H37.3633C40.7487 31.3283 47.3242 47.3114 57.0898 79.2775C66.8555 111.244 72.3568 130.352 73.5938 136.602C74.8307 142.852 79.5833 131.686 87.8516 103.106C96.1849 74.4598 101.686 54.2775 104.355 42.5588C107.09 30.7749 109.01 24.4598 110.117 23.6135C111.289 22.702 111.647 29.5054 111.191 44.0236C110.736 58.4767 109.401 69.87 107.188 78.2033L115 53.4963C118.32 38.7827 121.315 28.0405 123.984 21.2697C126.719 14.4989 129.29 12.0249 131.699 13.8478ZM129.16 25.3713C130.788 10.7879 128.997 13.9129 123.789 34.7463C118.581 55.5796 112.461 75.9247 105.43 95.7814C98.3984 115.573 90.944 136.113 83.0664 157.403H84.4336C84.3034 154.733 85.7031 151.934 88.6328 149.004C99.1146 124.265 108.099 101.12 115.586 79.5705C123.073 58.021 127.598 39.9546 129.16 25.3713ZM106.504 49.4924C104.486 61.4715 102.858 70.521 101.621 76.6408C100.384 82.7606 97.5846 95.2606 93.2227 114.141C88.9258 133.021 90 131.035 96.4453 108.184C102.891 85.3322 106.699 66.8426 107.871 52.715C109.043 38.5223 108.587 37.4481 106.504 49.4924ZM91.5625 102.52C88.0469 113.522 82.9036 129.538 76.1328 150.567H77.5C86.4193 123.874 91.888 106.459 93.9062 98.3205C95.9245 90.1174 95.1432 91.5171 91.5625 102.52ZM37.6562 36.8947C54.1927 102.52 62.6888 138.685 63.1445 145.391C63.6654 152.097 64.9349 159.03 66.9531 166.192H67.5391C67.7344 162.09 68.0924 160.039 68.6133 160.039C68.6133 159.649 68.3529 159.453 67.832 159.453C67.832 158.998 68.8411 152.064 70.8594 138.653L41.8555 43.1447H41.3672L41.8555 42.0705C40.0977 40.3127 39.1211 38.5874 38.9258 36.8947H37.6562ZM33.457 104.57L33.5547 105.742C35.7031 113.945 38.7956 123.353 42.832 133.965C39.5768 120.358 36.6797 110.56 34.1406 104.57H33.457ZM48.7891 133.965L48.8867 136.211H49.5703L49.4727 133.965H48.7891ZM80.332 154.473V155.059H81.0156L84.3359 141.68L80.332 154.473ZM48.4961 142.949V143.535C50.7096 151.087 51.8164 155.222 51.8164 155.938H52.5L52.4023 154.766C52.207 151.836 51.1328 147.897 49.1797 142.949H48.4961ZM55.2344 144.707L55.332 147.539C55.4622 149.623 57.4805 154.115 61.3867 161.016H61.9727V160.528C61.0612 156.361 59.043 151.087 55.918 144.707H55.2344ZM56.6016 159.356C58.4245 168.015 61.0612 172.344 64.5117 172.344C64.6419 171.563 65.0977 171.205 65.8789 171.27C65.6836 168.796 64.0234 166.908 60.8984 165.606C58.5547 161.439 57.1224 159.356 56.6016 159.356ZM73.5938 166.289L75.1562 172.442L75.0586 171.367L74.2773 167.363C74.7331 167.363 74.9284 167.168 74.8633 166.778L73.5938 166.289ZM192.051 0.957214C195.111 0.957214 199.115 10.1043 204.062 28.3986C209.01 46.6929 211.517 54.7984 211.582 52.715C211.647 50.5666 211.159 45.9767 210.117 38.9455C209.141 31.9142 210.833 29.4077 215.195 31.426C219.557 33.3791 228.314 65.0523 241.465 126.445C242.507 130.026 243.906 131.817 245.664 131.817C250.482 133.444 252.956 134.844 253.086 136.016L244.395 138.067C245.241 139.499 245.762 140.541 245.957 141.192C246.999 148.679 251.296 167.689 258.848 198.223L259.336 201.445C259.531 202.813 258.88 203.496 257.383 203.496C255.885 203.496 255.007 202.813 254.746 201.445L253.574 193.926C250.579 193.926 246.706 185.169 241.953 167.656L230.527 136.992H227.109L227.5 140.215C229.193 151.804 232.155 164.206 236.387 177.422C240.618 190.638 242.539 197.246 242.148 197.246C241.823 197.246 241.237 197.246 240.391 197.246C239.544 197.246 232.057 177.162 217.93 136.992C193.906 136.341 175.352 136.016 162.266 136.016C158.099 147.279 153.444 166.257 148.301 192.949C149.082 197.897 148.333 200.371 146.055 200.371L142.344 198.223C141.823 200.371 139.674 201.445 135.898 201.445L133.164 198.223L131.895 189.727C136.191 165.117 140.228 147.539 144.004 136.992L141.66 136.016C140.879 136.016 140.521 136.341 140.586 136.992C127.63 136.341 120.99 134.942 120.664 132.793C121.901 132.142 125.189 131.459 130.527 130.742L130.918 132.793H143.418C147.129 127.259 148.594 121.66 147.812 115.996C133.75 113.587 126.523 111.081 126.133 108.477L126.035 107.5C125.579 104.896 134.694 102.455 153.379 100.176C165.488 53.6916 171.901 25.534 172.617 15.7033L172.324 13.6525H175.645C178.379 16.9728 179.909 19.4142 180.234 20.9767H181.309C180.918 18.1773 182.48 15.7359 185.996 13.6525H188.242C190.521 13.6525 191.855 15.0523 192.246 17.8517H193.32L192.832 14.7267L190.977 9.35565H192.148L190.684 7.20721L190.098 3.008C190.098 1.64081 190.749 0.957214 192.051 0.957214ZM186.387 16.7775C182.676 22.3765 181.016 26.6083 181.406 29.4728C182.448 30.7749 183.001 31.8166 183.066 32.5978C184.238 32.5978 185.247 29.0822 186.094 22.051L189.023 18.926C188.763 17.4937 187.884 16.7775 186.387 16.7775ZM194.98 28.3986C191.074 17.6564 188.34 19.7723 186.777 34.7463L186.387 39.9221C195.762 60.2997 201.1 70.521 202.402 70.5861L195.469 38.9455H196.543L194.98 36.7971L194.59 33.6721L194.98 28.3986ZM198.789 24.1017L200.059 31.5236L201.719 35.7228H202.891L202.695 34.7463L199.961 24.1017H198.789ZM179.551 31.5236C172.129 63.4247 167.897 85.9507 166.855 99.1017C168.743 97.0184 173.984 76.2502 182.578 36.7971C181.602 35.6903 180.983 33.9325 180.723 31.5236H179.551ZM217.93 43.633C215.391 37.7085 214.316 41.7775 214.707 55.84C215.163 69.8374 217.995 85.2346 223.203 102.031C228.477 118.828 232.48 128.399 235.215 130.742H238.633C234.661 109.258 230.853 90.8335 227.207 75.4689C223.561 60.1043 220.469 49.4924 217.93 43.633ZM201.23 39.9221C203.379 54.7658 204.779 63.1317 205.43 65.0197C206.146 66.8426 206.699 69.0562 207.09 71.6603L207.285 72.6369C207.35 73.353 206.992 73.7111 206.211 73.7111L207.773 75.8596L208.945 84.258C211.224 89.3361 212.396 92.1356 212.461 92.6564H213.633L211.484 78.008C208.88 60.495 206.146 47.1161 203.281 37.8713C201.719 38.1317 201.035 38.8153 201.23 39.9221ZM184.824 44.2189C182.546 53.7892 178.509 72.4416 172.715 100.176H173.789C184.531 100.306 196.25 102.39 208.945 106.426L208.652 105.352C206.829 97.6695 205.462 90.9963 204.551 85.3322L204.258 83.2814L185.996 44.2189H184.824ZM161.191 84.3557C158.978 90.0197 158.262 95.2932 159.043 100.176C165.814 74.7853 169.232 60.6577 169.297 57.7932C169.362 54.9286 168.581 57.2398 166.953 64.7267C165.326 72.1486 163.405 78.6916 161.191 84.3557ZM212.168 98.0275L213.145 104.278L215.391 111.797H216.465L215.488 105.352L213.34 98.0275H212.168ZM131.699 107.5L132.09 109.551C138.991 111.699 144.818 112.774 149.57 112.774C151.133 108.151 151.816 104.994 151.621 103.301L131.699 107.5ZM156.113 103.301C154.616 108.835 153.997 112.35 154.258 113.848L156.699 114.922H158.945C160.378 108.932 160.964 105.059 160.703 103.301H156.113ZM165.195 103.301L164.805 108.477L165 109.551H166.074C165.879 108.379 166.335 106.296 167.441 103.301H165.195ZM172.129 103.301L168.32 115.996C184.727 118.796 199.961 121.921 214.023 125.371C212.266 113.457 207.936 107.5 201.035 107.5C200.189 105.677 190.553 104.278 172.129 103.301ZM152.5 118.047C152.826 119.349 151.654 123.939 148.984 131.817L149.18 132.793H155.918C157.676 123.874 158.424 118.959 158.164 118.047H152.5ZM167.539 119.121C165.651 126.673 164.772 130.905 164.902 131.817L167.344 132.793C183.815 133.249 200.124 133.607 216.27 133.867L215.586 128.594L167.539 119.121ZM141.66 128.594L141.953 130.742L136.484 131.817H134.238L133.848 129.668L141.66 128.594ZM136.484 197.246H138.73C141.53 190.41 144.395 181.621 147.324 170.879C150.254 160.137 152.891 148.516 155.234 136.016H149.57C146.38 140.248 141.628 158.151 135.312 189.727L136.484 197.246ZM237.266 136.992C240.065 143.373 242.051 146.563 243.223 146.563L241.367 141.192L240.684 136.992H237.266ZM235.898 142.656C238.633 147.735 241.172 153.985 243.516 161.406C245.859 168.828 247.259 172.539 247.715 172.539C248.236 172.539 248.171 171.107 247.52 168.242C246.934 165.313 243.06 156.784 235.898 142.656ZM363.145 7.10956H364.902C365.749 7.10956 366.172 8.31399 366.172 10.7228H368.125C372.878 10.7228 377.435 18.5679 381.797 34.258V35.7228H380.527C378.77 33.5744 376.751 29.6682 374.473 24.0041C372.194 18.34 370.078 15.3452 368.125 15.0197L366.855 17.0705C366.855 25.0132 367.995 38.7176 370.273 58.1838C372.552 77.6499 374.831 100.86 377.109 127.813C379.388 154.766 380.82 168.242 381.406 168.242C382.057 168.242 382.22 166.908 381.895 164.238C381.569 161.504 380.918 152.259 379.941 136.504C380.072 92.3635 381.732 60.4299 384.922 40.7033C384.922 40.2476 384.727 40.0197 384.336 40.0197C384.792 35.7228 385.378 33.5744 386.094 33.5744C386.094 33.0536 385.898 32.7932 385.508 32.7932C387.266 22.8322 389.089 17.8517 390.977 17.8517C392.93 17.8517 394.427 19.7398 395.469 23.5158C395.469 24.4924 394.036 25.6968 391.172 27.1291C386.159 48.1577 383.652 67.5913 383.652 85.4299C383.652 103.268 383.913 124.004 384.434 147.637C385.02 171.205 386.842 182.988 389.902 182.988L390.488 187.188C390.163 187.188 389.544 187.904 388.633 189.336C389.089 190.182 389.316 191.159 389.316 192.266H390.488C390.488 190.834 390.911 189.141 391.758 187.188C391.367 186.276 391.172 185.56 391.172 185.039L393.613 182.988L394.883 186.504C394.883 191.452 393.646 195.749 391.172 199.395V200.86C394.036 210.886 396.51 219.447 398.594 226.543H397.91C395.371 226.543 391.66 217.005 386.777 197.93L385.508 197.246H384.336C382.188 199.134 380.918 200.078 380.527 200.078C374.668 200.078 362.819 188.164 344.98 164.336C325.449 135.3 309.271 108.607 296.445 84.258C296.836 100.404 297.812 114.043 299.375 125.176C300.938 136.309 303.118 148.32 305.918 161.211C308.783 174.102 311.354 182.533 313.633 186.504V184.356H314.902C314.902 186.569 315 188.197 315.195 189.238C315.391 190.28 315.488 191.029 315.488 191.485C316.465 194.805 317.93 197.442 319.883 199.395C321.12 199.395 321.413 194.382 320.762 184.356C321.413 182.923 322.78 187.448 324.863 197.93C324.863 198.451 324.668 198.711 324.277 198.711L324.863 200.078C324.863 202.943 323.431 204.375 320.566 204.375C319.264 204.375 316.953 202.487 313.633 198.711C312.591 201.055 310.964 202.227 308.75 202.227C298.464 202.227 291.465 184.616 287.754 149.395C285.605 140.475 284.434 124.037 284.238 100.078C284.043 76.12 284.141 63.7176 284.531 62.8713C284.141 61.9598 283.945 61.2437 283.945 60.7228H284.531C277.891 44.2515 274.049 35.853 273.008 35.5275C271.966 35.1369 271.348 40.3778 271.152 51.2502C270.957 62.0575 270.957 78.5288 271.152 100.664C271.348 122.735 272.129 143.177 273.496 161.992C274.928 180.742 280.202 194.382 289.316 202.91C291.921 205.189 293.581 206.393 294.297 206.524C295.794 206.524 296.836 204.636 297.422 200.86L298.691 200.078L299.375 201.543C299.375 203.561 299.375 204.994 299.375 205.84C298.529 208.705 296.836 210.137 294.297 210.137C289.609 210.137 285.182 206.035 281.016 197.832C276.849 189.629 273.919 182.012 272.227 174.981C270.534 167.884 269.102 146.042 267.93 109.453C266.823 72.7997 266.497 50.5991 266.953 42.8517C267.474 35.1043 268.939 31.133 271.348 30.9377C273.822 30.7424 276.621 32.0119 279.746 34.7463C282.936 37.4807 284.531 39.4663 284.531 40.7033H285.801V40.0197C287.428 19.0562 289.544 8.76971 292.148 9.16034C294.753 9.48586 296.315 11.3739 296.836 14.8244C297.422 18.2749 297.715 21.6603 297.715 24.9807C299.733 22.5718 301.882 21.8882 304.16 22.9299C306.439 23.9064 307.578 26.9663 307.578 32.1096C307.578 33.0861 307.155 33.5744 306.309 33.5744C305.072 33.5744 304.258 31.6538 303.867 27.8127H303.184C302.337 28.008 301.523 29.2124 300.742 31.426C307.513 37.09 313.958 45.6512 320.078 57.1096C329.388 73.3856 339.349 94.8374 349.961 121.465C350.547 121.595 354.714 126.836 362.461 137.188C359.987 116.875 358.327 101.087 357.48 89.8244C356.634 78.4963 356.504 64.4663 357.09 47.7346C357.741 30.9377 359.531 19.7723 362.461 14.2385C362.07 11.6994 361.875 9.55096 361.875 7.79315L363.145 7.10956ZM293.32 18.5353C291.172 25.2411 289.707 32.8583 288.926 41.3869L289.512 42.8517C289.121 43.7632 288.926 44.4793 288.926 45.0002C291.4 47.6043 292.637 49.4924 292.637 50.6642H293.32C294.102 41.745 295.143 34.6161 296.445 29.2775C295.794 29.2775 295.143 28.5614 294.492 27.1291V20.0002C294.492 19.0236 294.102 18.5353 293.32 18.5353ZM362.461 24.9807C360.833 35.9182 360.182 51.6083 360.508 72.051C360.833 92.4286 362.363 110.528 365.098 126.348C367.897 142.168 369.818 150.501 370.859 151.348C371.966 152.129 373.333 155.026 374.961 160.039H375.547C372.682 123.516 368.32 78.4963 362.461 24.9807ZM298.887 38.5549C297.65 45.9767 297.031 50.9898 297.031 53.5939V55.7424C304.844 68.1773 319.167 85.5601 340 107.891C332.253 88.034 325.026 72.8322 318.32 62.2853C311.68 51.7385 305.202 43.8283 298.887 38.5549ZM279.551 39.2385V40.7033C279.551 42.8517 281.439 44.5119 285.215 45.6838V44.3166C284.043 44.3166 282.578 42.8843 280.82 40.0197L279.551 39.2385ZM288.34 49.2971V50.6642C290.814 54.7658 292.051 57.1747 292.051 57.8908H293.32C293.32 55.482 291.66 52.6174 288.34 49.2971ZM297.031 65.0197L296.445 70.6838C304.193 90.6057 316.66 113.327 333.848 138.848C351.035 164.369 360.768 177.748 363.047 178.985C365.391 180.156 366.074 179.44 365.098 176.836C364.186 174.232 360.736 167.624 354.746 157.012C348.822 146.335 345.143 139.238 343.711 135.723H344.98C348.301 141.322 351.23 145.391 353.77 147.93L355.625 150.762C349.831 130.71 344.818 119.056 340.586 115.801C314.284 86.8947 299.766 69.9676 297.031 65.0197ZM287.656 67.1682C288.112 112.871 289.805 144.121 292.734 160.918C295.729 177.715 298.952 188.62 302.402 193.633C305.202 196.498 306.862 197.93 307.383 197.93C309.206 197.93 310.671 196.758 311.777 194.414C308.327 189.011 304.583 177.129 300.547 158.77C296.51 140.345 293.874 112.416 292.637 74.9807L287.656 67.1682ZM355.039 135.723C361.289 155.97 367.116 171.009 372.52 180.84C370.371 176.153 367.246 164.694 363.145 146.465L355.039 135.723ZM370.566 160.82V161.504C372.78 169.317 375.482 176.478 378.672 182.988V183.672H379.258V182.988C379.258 176.738 376.361 169.349 370.566 160.82ZM376.23 187.969V189.336L377.988 190.801V189.336C377.207 189.336 376.816 188.88 376.816 187.969H376.23ZM463.73 13.6525C469.264 13.327 473.919 13.4898 477.695 14.1408C481.536 14.7918 483.88 15.7033 484.727 16.8752C485.573 17.982 483.783 18.2424 479.355 17.6564C474.928 17.0054 470.664 16.9728 466.562 17.5588C462.526 18.1447 461.257 18.6981 462.754 19.2189C464.316 19.6747 465.195 20.2932 465.391 21.0744C485.052 21.0744 499.212 29.9937 507.871 47.8322L508.359 52.3244L506.113 53.3986C483.392 39.271 464.121 32.2072 448.301 32.2072C434.434 34.2905 427.467 39.1408 427.402 46.758H428.477C441.367 41.5497 450.84 38.9455 456.895 38.9455C477.793 40.1174 488.763 46.4325 489.805 57.8908L491.562 63.4572V64.6291H489.316C486.452 54.4077 481.862 48.2228 475.547 46.0744C469.297 43.8609 464.056 42.7215 459.824 42.6564C455.658 42.5262 450.872 43.1773 445.469 44.6096C440.13 46.0418 435.02 48.9715 430.137 53.3986C434.759 59.5184 448.333 69.2189 470.859 82.5002C495.664 102.422 508.685 118.796 509.922 131.621H508.75L510.02 133.867L510.703 141.68C511.159 145.912 510.247 152.259 507.969 160.723C509.857 181.751 494.395 195.912 461.582 203.203C456.374 203.203 453.086 203.236 451.719 203.301C437.266 203.952 421.934 195.716 405.723 178.594C402.988 173.19 401.589 169.837 401.523 168.535L401.23 166.289H403.477C404.518 178.399 417.051 189.206 441.074 198.711C442.181 199.427 446.315 200.176 453.477 200.957C460.964 200.957 471.152 198.353 484.043 193.145L483.945 191.973H485.02L487.461 193.145C487.331 192.103 490.749 188.75 497.715 183.086C501.491 175.86 503.314 171.009 503.184 168.535L502.988 167.363C500.905 167.363 498.268 170.716 495.078 177.422C494.427 177.422 492.734 179.668 490 184.16C480.625 191.582 471.25 195.293 461.875 195.293H455.234C439.609 195.293 425.449 186.732 412.754 169.61C405.592 156.914 401.654 146.498 400.938 138.36C400.938 131.654 401.784 128.301 403.477 128.301C409.661 132.012 413.014 136.862 413.535 142.852C414.186 148.972 414.935 152.748 415.781 154.18C416.693 155.547 416.79 156.231 416.074 156.231C420.892 170.488 439.089 178.301 470.664 179.668C474.115 179.668 476.686 179.668 478.379 179.668C487.493 174.655 492.311 170.195 492.832 166.289C491.79 154.05 478.509 138.783 452.988 120.488C443.678 117.494 434.238 111.895 424.668 103.692C413.405 94.7723 407.253 84.3557 406.211 72.4416C405.56 58.1187 410.768 45.6187 421.836 34.9416C432.969 24.1994 441.367 18.0471 447.031 16.4846C452.695 14.857 458.262 13.9129 463.73 13.6525ZM444.102 21.0744C442.018 23.1577 442.767 23.5158 446.348 22.1486C447.78 21.4325 448.984 20.9116 449.961 20.5861C451.003 20.2606 451.328 19.9025 450.938 19.5119C450.547 19.1213 449.733 19.284 448.496 20.0002C447.259 20.7163 445.794 21.0744 444.102 21.0744ZM459.824 23.2228C446.673 25.5015 440.228 27.7476 440.488 29.9611L445.762 28.8869H449.18C466.367 30.2541 483.685 36.2111 501.133 46.758H502.207C496.673 34.8439 489.414 28.4963 480.43 27.715C481.146 27.715 480.072 27.1616 477.207 26.0549C474.342 24.9481 468.548 24.0041 459.824 23.2228ZM415.098 59.0627L415.293 61.2111H416.367C416.172 59.258 417.083 57.0445 419.102 54.5705L418.906 52.3244C417.409 52.3244 416.139 54.5705 415.098 59.0627ZM424.57 53.3986C424.766 55.0913 424.538 56.5887 423.887 57.8908C428.379 72.0835 434.596 79.1799 442.539 79.1799H457.09L456.992 78.008C436.68 67.9168 426.23 59.7137 425.645 53.3986H424.57ZM419.688 61.2111C418.646 66.0939 418.19 69.4468 418.32 71.2697C422.878 81.8817 430.169 92.3309 440.195 102.617C441.302 103.985 450.612 108.086 468.125 114.922C479.583 120.977 488.014 127.682 493.418 135.039C494.915 135.039 495.566 133.9 495.371 131.621C494.134 118.47 487.754 105.449 476.23 92.5588C466.921 85.0718 458.75 81.6538 451.719 82.3049L444.98 83.2814C442.832 83.4767 439.251 82.3049 434.238 79.7658C429.225 77.1616 426.165 74.3296 425.059 71.2697C422.52 64.564 420.729 61.2111 419.688 61.2111ZM413.34 63.4572C412.233 68.7958 411.712 71.7905 411.777 72.4416C415.228 88.0666 420.762 95.8791 428.379 95.8791C419.134 84.4208 414.284 75.8596 413.828 70.1955L414.414 64.6291V63.4572H413.34ZM490.781 67.9494H493.027L493.223 71.2697H490.977L490.781 67.9494ZM427.695 100.371L427.891 101.445C436.029 108.932 441.562 112.676 444.492 112.676C442.279 109.681 436.68 105.58 427.695 100.371ZM488.34 103.692L488.438 104.863C493.841 114.564 498.04 128.334 501.035 146.172L505.918 150.664C505.658 147.669 505.658 145.619 505.918 144.512C506.178 143.405 506.048 139.857 505.527 133.867C503.835 124.818 498.496 114.759 489.512 103.692H488.34ZM452.305 112.676C461.745 120.098 474.733 127.91 491.27 136.113L491.172 135.039C483.815 128.529 472.389 121.432 456.895 113.75C455.527 113.034 453.997 112.676 452.305 112.676ZM476.426 132.793V133.867C487.949 145.065 493.906 152.52 494.297 156.231H495.371L495.859 150.664L495.371 145.098C491.725 141.061 485.41 136.96 476.426 132.793ZM500.645 153.985L500.059 159.551L500.352 161.797C500.938 161.797 501.914 160.69 503.281 158.477C502.5 157.175 502.012 155.677 501.816 153.985H500.645ZM422.812 170.781L422.91 171.856C434.434 183.77 443.971 189.792 451.523 189.922C460.443 190.573 469.492 188.555 478.672 183.867L467.051 183.672C448.626 183.281 433.88 178.985 422.812 170.781Z" fill="#FFA0C2"/>
</g>
<defs>
<filter id="filter0_d_40_9" x="0.0625" y="0.957214" width="515.324" height="233.586" filterUnits="userSpaceOnUse" color-interpolation-filters="sRGB">
<feFlood flood-opacity="0" result="BackgroundImageFix"/>
<feColorMatrix in="SourceAlpha" type="matrix" values="0 0 0 0 0 0 0 0 0 0 0 0 0 0 0 0 0 0 127 0" result="hardAlpha"/>
<feOffset dy="4"/>
<feGaussianBlur stdDeviation="2"/>
<feComposite in2="hardAlpha" operator="out"/>
<feColorMatrix type="matrix" values="0 0 0 0 0.7875 0 0 0 0 0.7875 0 0 0 0 0.7875 0 0 0 0.25 0"/>
<feBlend mode="normal" in2="BackgroundImageFix" result="effect1_dropShadow_40_9"/>
<feBlend mode="normal" in="SourceGraphic" in2="effect1_dropShadow_40_9" result="shape"/>
</filter>
</defs>
</svg>
