<svg width="120" height="42" viewBox="0 0 120 42" fill="none" xmlns="http://www.w3.org/2000/svg">
<path d="M116.836 20.5191H109.953C109.286 18.825 108.539 17.5088 104.682 17.5088C102.014 17.5088 100.87 18.6076 100.87 19.7102C100.87 20.9158 101.82 21.9307 104.758 22.5831L110.993 24.2466C115.075 25.3378 117.053 28.5808 117.053 32.0069C117.053 33.9145 116.642 36.2037 114.835 38.1113C113.486 39.5191 111.443 41.3772 104.67 41.3772C95.3552 41.3772 92.2948 35.4826 92.2948 31.9229H99.5364C100.249 34.5249 102.033 35.5131 105.562 35.5131C108.009 35.5131 110.109 34.6394 110.109 32.7661C110.109 30.9844 108.585 30.3129 106.621 29.7749L101.693 28.4434C99.3193 27.7185 97.3332 27.1386 95.9307 25.952C92.2605 22.8387 92.5275 17.2188 96.5177 14.2963C98.7283 12.6787 100.992 11.8355 104.586 11.8355C108.809 11.8355 111.222 13.0411 113.12 14.3535C114.804 15.4982 116.805 18.3138 116.805 20.5343M0.560547 0.607061C0.617717 0.855055 14.9673 41.0491 14.9673 41.0491H23.5313L36.7222 7.58904H118.665L119.287 0.595616H30.445L19.4989 28.3213L9.66192 0.591797H0.579603M71.4051 26.5701L82.0997 41.0262H88.792V12.4382H81.0858V27.9856L71.4051 12.4382H64.0111V41.0262H71.4051V26.5701ZM119.561 39.5421C119.561 39.2402 119.471 38.9452 119.304 38.6942C119.136 38.4432 118.898 38.2476 118.62 38.1321C118.341 38.0166 118.034 37.9864 117.739 38.0453C117.443 38.1041 117.172 38.2495 116.958 38.463C116.745 38.6764 116.6 38.9483 116.541 39.2444C116.483 39.5404 116.513 39.8472 116.628 40.1261C116.743 40.4049 116.939 40.6433 117.19 40.811C117.44 40.9787 117.735 41.0682 118.036 41.0682C118.238 41.0707 118.438 41.0331 118.625 40.9575C118.813 40.882 118.983 40.77 119.127 40.628C119.27 40.486 119.385 40.3169 119.462 40.1305C119.54 39.9441 119.58 39.7441 119.58 39.5421H119.561ZM119.385 39.5421C119.385 39.8077 119.305 40.0671 119.158 40.2876C119.009 40.508 118.799 40.6795 118.554 40.7804C118.309 40.8814 118.038 40.9072 117.779 40.8547C117.518 40.8021 117.28 40.6735 117.092 40.4852C116.905 40.2969 116.779 40.0572 116.727 39.7965C116.677 39.5359 116.704 39.2659 116.806 39.0208C116.908 38.7757 117.081 38.5664 117.302 38.4195C117.523 38.2725 117.782 38.1945 118.047 38.1953C118.226 38.1922 118.403 38.2249 118.568 38.2913C118.733 38.3578 118.883 38.4567 119.01 38.5822C119.136 38.7077 119.237 38.8574 119.305 39.0222C119.372 39.1871 119.406 39.3638 119.405 39.5421H119.385ZM118.768 39.2254C118.767 39.1467 118.75 39.069 118.717 38.9978C118.683 38.9266 118.634 38.8634 118.575 38.8127C118.514 38.7619 118.444 38.7248 118.368 38.7039C118.292 38.6829 118.213 38.6786 118.136 38.6912H117.419V40.3089H117.777V39.7901H118.059L118.403 40.3089H118.818L118.437 39.729C118.542 39.6955 118.634 39.628 118.697 39.5369C118.761 39.4458 118.793 39.3363 118.787 39.2254H118.768ZM118.406 39.2445C118.407 39.2791 118.399 39.3133 118.385 39.3448C118.371 39.3763 118.35 39.4043 118.324 39.4268C118.298 39.4493 118.267 39.4659 118.234 39.4753C118.201 39.4846 118.166 39.4866 118.132 39.481H117.773V39.008H118.12C118.157 38.9977 118.195 38.9962 118.232 39.0036C118.27 39.011 118.304 39.0271 118.334 39.0505C118.363 39.0739 118.387 39.104 118.403 39.1384C118.419 39.1728 118.426 39.2104 118.425 39.2483L118.406 39.2445ZM30.6241 41.0262H38.8375L40.362 36.5547H51.2356L52.8098 41.0262H60.8973L50.5458 12.4382H41.837L30.6241 41.0262ZM42.6679 31.3812L45.8503 21.8773L48.9908 31.3812H42.6488H42.6679Z" fill="black"/>
</svg>
