<svg width="147" height="50" viewBox="0 0 147 50" fill="none" xmlns="http://www.w3.org/2000/svg">
<path d="M143.124 24.4109H134.692C133.875 22.3357 132.96 20.7233 128.235 20.7233C124.967 20.7233 123.566 22.0693 123.566 23.42C123.566 24.8969 124.729 26.1402 128.328 26.9394L135.966 28.9771C140.967 30.3138 143.39 34.2865 143.39 38.4835C143.39 40.8203 142.886 43.6246 140.673 45.9614C139.02 47.686 136.517 49.9621 128.221 49.9621C116.81 49.9621 113.061 42.7412 113.061 38.3806H121.932C122.805 41.5681 124.99 42.7786 129.313 42.7786C132.311 42.7786 134.883 41.7083 134.883 39.4135C134.883 37.2309 133.016 36.4083 130.611 35.7493L124.574 34.1182C121.666 33.2302 119.233 32.5198 117.515 31.0663C113.019 27.2525 113.346 20.3681 118.234 16.788C120.942 14.8064 123.715 13.7735 128.118 13.7735C133.291 13.7735 136.247 15.2504 138.572 16.8581C140.635 18.2603 143.086 21.7095 143.086 24.4296M0.686523 0.0186989C0.756556 0.322491 18.3348 49.5602 18.3348 49.5602H28.8257L44.9846 8.57162H145.365L146.126 0.00467829H37.295L23.886 33.9687L11.8357 0H0.709867M87.4711 31.8234L100.572 49.5322H108.77V14.5119H99.33V33.5574L87.4711 14.5119H78.4135V49.5322H87.4711V31.8234ZM146.462 47.7141C146.462 47.3443 146.352 46.9829 146.147 46.6754C145.942 46.368 145.65 46.1284 145.309 45.9869C144.968 45.8454 144.592 45.8084 144.23 45.8805C143.868 45.9526 143.535 46.1307 143.274 46.3922C143.013 46.6536 142.835 46.9867 142.763 47.3494C142.691 47.712 142.728 48.0879 142.869 48.4295C143.01 48.7711 143.25 49.0631 143.557 49.2685C143.864 49.4739 144.225 49.5836 144.594 49.5836C144.842 49.5867 145.087 49.5406 145.316 49.448C145.546 49.3555 145.754 49.2183 145.93 49.0443C146.106 48.8704 146.246 48.6633 146.341 48.4349C146.436 48.2066 146.485 47.9616 146.485 47.7141H146.462ZM146.247 47.7141C146.246 48.0395 146.149 48.3573 145.968 48.6273C145.786 48.8973 145.529 49.1074 145.228 49.2311C144.928 49.3548 144.597 49.3864 144.279 49.322C143.96 49.2576 143.668 49.1001 143.438 48.8694C143.209 48.6387 143.054 48.3451 142.991 48.0258C142.929 47.7065 142.962 47.3758 143.087 47.0755C143.212 46.7753 143.424 46.5189 143.695 46.3389C143.965 46.1589 144.283 46.0633 144.608 46.0643C144.827 46.0605 145.043 46.1005 145.246 46.1819C145.448 46.2633 145.632 46.3845 145.787 46.5382C145.942 46.692 146.065 46.8753 146.148 47.0772C146.231 47.2792 146.272 47.4957 146.271 47.7141H146.247ZM145.491 47.3262C145.49 47.2298 145.469 47.1346 145.428 47.0474C145.387 46.9601 145.327 46.8827 145.254 46.8206C145.18 46.7584 145.094 46.7129 145.001 46.6873C144.908 46.6616 144.811 46.6563 144.716 46.6718H143.838V48.6535H144.277V48.0179H144.622L145.043 48.6535H145.552L145.085 47.9431C145.214 47.902 145.327 47.8193 145.404 47.7077C145.482 47.5961 145.521 47.462 145.514 47.3262H145.491ZM145.047 47.3495C145.048 47.3919 145.039 47.4338 145.022 47.4724C145.004 47.511 144.979 47.5453 144.947 47.5729C144.915 47.6005 144.877 47.6208 144.836 47.6323C144.796 47.6437 144.753 47.6461 144.711 47.6393H144.272V47.0598H144.697C144.742 47.0472 144.789 47.0454 144.834 47.0545C144.88 47.0635 144.922 47.0832 144.959 47.1119C144.995 47.1406 145.024 47.1775 145.044 47.2196C145.063 47.2617 145.072 47.3078 145.071 47.3542L145.047 47.3495ZM37.5144 49.5322H47.5758L49.4433 44.0546H62.7635L64.6918 49.5322H74.5991L61.9185 14.5119H51.2502L37.5144 49.5322ZM52.268 37.717L56.1665 26.0747L60.0136 37.717H52.2446H52.268Z" fill="#D51920"/>
</svg>
