<svg width="489" height="185" viewBox="0 0 489 185" fill="none" xmlns="http://www.w3.org/2000/svg">
<path d="M66 184.314H65C63.8333 184.314 62.5 184.064 61 183.564C56.3333 181.897 52.4167 179.314 49.25 175.814C47.4167 173.647 46.1667 171.147 45.5 168.314L15.25 54.5641C12.75 44.8975 9.75 35.3141 6.25 25.8141L6 25.0641C5.16667 22.8975 3.91667 20.8975 2.25 19.0641C0.75 17.2308 2.16067e-07 15.2308 2.16067e-07 13.0641C2.16067e-07 11.5641 0.666667 10.4808 2 9.81414L4.25 9.31414C16.25 11.9808 24.75 18.6475 29.75 29.3141C33.4167 38.3141 36.5 47.6475 39 57.3141C49.5 97.6475 55.0833 118.564 55.75 120.064C55.9167 120.064 56.0833 119.897 56.25 119.564C56.5833 119.064 56.8333 118.397 57 117.564C70.5 70.3975 83 36.4808 94.5 15.8141L96.25 13.0641C97.25 11.3975 98.25 9.64747 99.25 7.81413C100.417 5.9808 102.083 5.06414 104.25 5.06414C108.583 5.56414 112.833 7.23081 117 10.0641C118.667 11.3975 120.417 12.8141 122.25 14.3141C124.083 15.6475 125 17.3975 125 19.5641C125 20.7308 124.583 21.8975 123.75 23.0641C108.583 46.7308 92.6667 89.9808 76 152.814C74.3333 159.814 72.75 166.897 71.25 174.064C71.0833 176.064 71 178.231 71 180.564C71 183.064 69.3333 184.314 66 184.314ZM232.387 182.314C230.72 182.314 229.053 181.981 227.387 181.314C222.72 179.481 218.72 176.731 215.387 173.064C213.72 171.064 212.637 168.897 212.137 166.564C210.803 160.231 209.22 151.481 207.387 140.314C206.387 134.481 205.72 131.481 205.387 131.314C205.053 130.981 202.637 130.814 198.137 130.814C177.137 132.314 162.053 135.231 152.887 139.564C150.887 140.564 148.887 141.064 146.887 141.064C145.387 141.064 143.887 140.814 142.387 140.314C136.887 138.647 132.47 135.481 129.137 130.814C127.637 128.647 126.887 126.481 126.887 124.314C126.887 122.814 127.137 121.314 127.637 119.814L134.387 101.814C139.72 87.1475 145.303 72.6475 151.137 58.3141C159.803 37.8141 168.387 21.6475 176.887 9.81414C177.72 8.31414 178.803 7.06414 180.137 6.06414C182.303 4.23081 184.47 3.31415 186.637 3.31415C188.137 3.31415 189.22 3.48081 189.887 3.81414C196.22 5.64747 201.72 8.81414 206.387 13.3141C209.387 16.1475 211.303 19.5641 212.137 23.5641C213.637 29.2308 214.887 34.9808 215.887 40.8141L220.137 69.3141C222.803 88.4808 225.72 107.647 228.887 126.814L231.137 141.314C234.97 163.814 237.22 176.064 237.887 178.064C237.887 180.231 236.72 181.564 234.387 182.064L232.387 182.314ZM164.887 113.064C171.553 112.064 178.553 111.564 185.887 111.564H200.387C201.553 111.564 202.137 111.231 202.137 110.564L201.887 107.314C195.72 63.4808 192.303 41.5641 191.637 41.5641C191.137 41.5641 190.887 41.6475 190.887 41.8141L190.637 42.3141C179.47 64.6475 169.637 87.4808 161.137 110.814L160.887 112.314C161.22 112.647 161.387 112.897 161.387 113.064C161.387 113.064 162.553 113.064 164.887 113.064ZM137.637 179.564L135.137 179.314C128.47 177.981 122.97 174.397 118.637 168.564C118.303 167.897 118.053 167.231 117.887 166.564C117.72 165.731 117.553 164.897 117.387 164.064C117.387 161.897 118.72 160.397 121.387 159.564C126.22 157.731 139.47 155.314 161.137 152.314C170.97 150.981 177.387 150.314 180.387 150.314C189.22 150.314 196.72 153.564 202.887 160.064C204.553 161.397 205.72 163.481 206.387 166.314C206.387 168.314 205.053 169.564 202.387 170.064H195.887V169.814L191.137 170.314C182.137 170.981 169.22 172.814 152.387 175.814L150.387 176.064C147.053 176.564 143.803 177.481 140.637 178.814C139.637 179.314 138.637 179.564 137.637 179.564ZM282.271 181.064H281.521C276.021 181.064 271.105 178.981 266.771 174.814L265.521 173.814C262.188 171.147 260.521 167.731 260.521 163.564V87.0641C260.521 65.2308 261.021 43.3975 262.021 21.5641C262.188 17.7308 262.271 13.0641 262.271 7.56414C262.605 6.2308 263.355 5.31414 264.521 4.81414C266.855 3.81415 269.105 3.31415 271.271 3.31415C273.105 3.31415 274.771 3.64748 276.271 4.31413C280.938 6.14747 285.188 8.73081 289.021 12.0641C292.855 15.3975 297.438 25.9808 302.771 43.8141C309.605 67.1475 315.938 86.8141 321.771 102.814L325.521 111.814C325.521 111.981 325.605 112.064 325.771 112.064C326.105 112.064 326.271 111.897 326.271 111.564L326.021 98.0641C325.688 89.5641 325.521 81.2308 325.521 73.0641C325.521 62.5641 326.438 40.3141 328.271 6.31414C328.271 2.98081 329.855 1.14747 333.021 0.814134C340.188 1.64747 346.605 4.9808 352.271 10.8141C353.938 12.6475 354.771 14.8141 354.771 17.3141C353.271 39.1475 352.271 61.0641 351.771 83.0641C351.938 97.8975 352.355 112.481 353.021 126.814C353.688 141.147 354.188 155.064 354.521 168.564L354.271 172.814C353.938 175.647 351.105 177.064 345.771 177.064C342.605 177.064 339.438 176.231 336.271 174.564C330.938 171.897 326.938 167.897 324.271 162.564C306.438 121.397 295.605 95.0641 291.771 83.5641L288.771 75.3141C288.605 74.6475 288.438 74.1475 288.271 73.8141C288.105 73.4808 287.855 73.2308 287.521 73.0641L287.271 73.3141C287.105 73.4808 286.938 103.147 286.771 162.314L287.021 175.564C286.855 179.064 285.271 180.897 282.271 181.064ZM414.588 176.814C407.588 176.814 401.255 173.897 395.588 168.064C393.755 166.397 392.838 164.481 392.838 162.314C392.838 159.814 393.838 158.314 395.838 157.814C404.505 157.647 413.171 157.147 421.838 156.314C446.005 154.314 458.088 149.731 458.088 142.564C458.088 141.064 457.338 139.564 455.838 138.064C450.838 132.731 442.671 127.147 431.338 121.314C424.505 117.814 417.838 114.231 411.338 110.564C397.505 103.231 387.338 94.5641 380.838 84.5641C377.671 79.2308 376.088 73.5641 376.088 67.5641C376.088 65.0641 376.338 62.5641 376.838 60.0641C378.838 51.5641 382.505 43.9808 387.838 37.3141C402.171 18.9808 419.338 9.06414 439.338 7.56414C442.338 7.56414 445.421 7.9808 448.588 8.81414C459.921 11.3141 469.505 16.9808 477.338 25.8141C482.505 31.6475 485.588 38.3975 486.588 46.0641C487.421 51.3975 487.921 56.9808 488.088 62.8141L488.338 69.3141L486.838 89.5641C486.671 91.2308 486.338 92.7308 485.838 94.0641C485.505 96.3975 484.171 97.5641 481.838 97.5641C474.838 97.5641 468.838 94.8141 463.838 89.3141C461.838 87.3141 460.838 84.9808 460.838 82.3141V80.5641C462.171 72.3975 462.838 64.2308 462.838 56.0641C462.838 49.5641 462.338 43.0641 461.338 36.5641C459.838 30.0641 458.088 26.8141 456.088 26.8141C448.255 26.8141 440.005 29.4808 431.338 34.8141C422.505 40.8141 415.088 48.1475 409.088 56.8141C405.421 62.3141 403.005 68.3141 401.838 74.8141L401.588 78.8141C401.588 84.8141 404.255 89.8141 409.588 93.8141C412.755 95.9808 416.088 98.0641 419.588 100.064L439.088 110.564C449.255 115.897 458.838 122.314 467.838 129.814C478.171 138.147 483.338 145.981 483.338 153.314C483.338 157.147 482.088 160.481 479.588 163.314C474.255 168.314 466.921 171.647 457.588 173.314C448.588 174.647 439.588 175.564 430.588 176.064L424.838 176.564C421.505 176.731 418.088 176.814 414.588 176.814Z" fill="#FFA0C2"/>
</svg>
