<svg width="482" height="224" viewBox="0 0 482 224" fill="none" xmlns="http://www.w3.org/2000/svg">
<g filter="url(#filter0_d_40_12)">
<path d="M55.75 157.51C56.0833 156.843 56.3333 156.177 56.5 155.51C56.8333 154.843 57 154.177 57 153.51C56.8333 152.677 56.8333 151.927 57 151.26C57.3333 150.593 57.6667 149.843 58 149.01C58.1667 148.177 58.25 147.343 58.25 146.51C58.4167 145.677 58.5 144.843 58.5 144.01C58.5 143.677 58.3333 143.343 58 143.01C56.6667 141.843 55.8333 140.593 55.5 139.26C55.5 138.927 55.5833 138.677 55.75 138.51C55.9167 138.177 56 137.843 56 137.51C56.1667 136.843 56.25 136.177 56.25 135.51C56.25 134.843 56.4167 134.093 56.75 133.26C57.0833 132.427 57.25 131.51 57.25 130.51C57.4167 129.51 57.75 128.593 58.25 127.76C58.5833 127.093 58.9167 125.927 59.25 124.26C59.75 122.76 60.25 121.26 60.75 119.76C61.4167 118.26 62 116.677 62.5 115.01C63 114.51 63.4167 114.177 63.75 114.01C64.0833 113.677 64.4167 113.427 64.75 113.26C64.25 112.593 64.25 111.927 64.75 111.26C65.0833 110.593 65.25 109.927 65.25 109.26C65.25 108.593 65.4167 107.927 65.75 107.26C66.0833 106.26 66.4167 105.26 66.75 104.26C67.25 103.26 67.75 102.343 68.25 101.51C68.4167 101.177 68.5833 100.843 68.75 100.51C68.9167 100.177 69.1667 99.7599 69.5 99.2599C69.1667 98.9266 69.25 98.3432 69.75 97.5099C70.0833 96.8432 70.3333 96.2599 70.5 95.7599C70.6667 95.0932 70.9167 94.4265 71.25 93.7599C72.0833 92.4266 72.75 91.1766 73.25 90.0099C73.9167 88.6765 74.6667 87.3432 75.5 86.0099C75.8333 85.1766 76.25 84.4266 76.75 83.7599C77.25 82.9266 77.6667 82.0932 78 81.2599C78.5 80.4265 78.9167 79.5932 79.25 78.7599C79.5833 77.7599 79.9167 76.8432 80.25 76.0099V75.7599C81.0833 75.4265 81.5 75.0099 81.5 74.5099C81.5 73.8432 81.6667 73.1765 82 72.5099C82.6667 71.5099 83.3333 70.4266 84 69.2599C84.5 67.9266 85 66.5932 85.5 65.2599C86 63.9265 86.5833 62.5932 87.25 61.2599C87.75 60.2599 88.25 59.3432 88.75 58.5099C89.4167 57.5099 90 56.5932 90.5 55.7599C90.8333 54.9266 91.0833 54.1766 91.25 53.5099C91.5833 52.8432 91.9167 52.1765 92.25 51.5099C92.5833 50.6765 92.9167 50.0099 93.25 49.5099C93.75 48.8432 94.1667 48.0932 94.5 47.2599C94.8333 46.4265 95.25 45.6765 95.75 45.0099C96.25 44.3432 96.6667 43.6765 97 43.0099C97.5 42.1765 97.9167 41.3432 98.25 40.5099C98.5833 39.6765 99.1667 39.0099 100 38.5099L100.25 38.2599C101.083 37.9265 101.833 37.6765 102.5 37.5099C103.333 37.1765 104.167 36.8432 105 36.5099C105.333 36.1766 105.833 36.3432 106.5 37.0099C106.5 37.5099 106.583 37.8432 106.75 38.0099C107.917 39.6765 107.75 41.0099 106.25 42.0099C105.417 42.6766 104.833 43.5099 104.5 44.5099C104.167 45.3432 103.833 46.2599 103.5 47.2599C103.333 47.9265 103.083 48.5099 102.75 49.0099C102.583 49.5099 102.333 50.0932 102 50.7599C102 51.0932 101.917 51.4265 101.75 51.7599C101.75 51.9265 101.75 52.1765 101.75 52.5099C102.083 54.0099 101.75 55.0099 100.75 55.5099C100.417 55.8432 100.167 56.2599 100 56.7599C99.8333 57.2599 99.6667 57.6765 99.5 58.0099L97.25 64.7599C96.9167 66.4266 96.5833 67.6766 96.25 68.5099L93.25 79.0099C92.75 80.5099 92.25 82.0932 91.75 83.7599C91.25 85.2599 90.75 86.7599 90.25 88.2599C89.5833 90.0932 89 91.9265 88.5 93.7599C88 95.5932 87.5 97.4266 87 99.2599C86.6667 100.093 86.3333 101.01 86 102.01C85.8333 103.01 85.5833 103.927 85.25 104.76C84.75 105.927 84.4167 107.093 84.25 108.26C84.25 109.26 83.9167 110.343 83.25 111.51C82.9167 112.177 82.5833 113.343 82.25 115.01C82.0833 115.343 81.9167 115.76 81.75 116.26C81.5833 116.76 81.4167 117.26 81.25 117.76C81.0833 118.927 80.75 120.01 80.25 121.01C79.75 121.843 79.3333 122.843 79 124.01C79 124.51 78.8333 125.01 78.5 125.51C78.1667 126.01 77.8333 126.427 77.5 126.76V127.26C77.8333 128.093 77.75 128.843 77.25 129.51C76.75 130.177 76.4167 130.927 76.25 131.76C75.9167 133.093 75.4167 134.343 74.75 135.51C74.25 136.677 73.75 137.927 73.25 139.26C72.9167 140.093 72.5 140.927 72 141.76C71.6667 142.427 71.4167 143.177 71.25 144.01C71.0833 145.01 70.75 145.927 70.25 146.76C69.9167 147.593 69.5 148.427 69 149.26C68.1667 151.26 67.0833 152.927 65.75 154.26C65.25 154.76 64.6667 155.26 64 155.76C63.3333 156.093 62.6667 156.427 62 156.76C61.5 157.26 61.25 157.51 61.25 157.51C61.25 158.677 61.1667 159.843 61 161.01C60.8333 162.177 60.9167 163.343 61.25 164.51C61.4167 165.343 61.6667 166.177 62 167.01C62.5 167.843 63.1667 168.51 64 169.01C64.3333 169.343 64.4167 169.76 64.25 170.26C64.25 170.593 64.0833 170.927 63.75 171.26C62.25 171.927 61 171.51 60 170.01C59.8333 169.677 59.3333 168.927 58.5 167.76C58.1667 168.427 58 168.76 58 168.76C57.3333 169.76 56.3333 170.093 55 169.76C54.6667 169.593 54.3333 169.343 54 169.01C53.8333 168.51 53.5833 168.093 53.25 167.76C52.9167 167.427 52.75 167.01 52.75 166.51C52.75 165.843 52.5833 165.26 52.25 164.76C51.5833 163.76 50.8333 163.177 50 163.01C49.3333 162.843 49 162.427 49 161.76C48.6667 160.927 48.4167 160.177 48.25 159.51C48.25 158.677 48 158.01 47.5 157.51C47 156.843 46.5833 156.177 46.25 155.51C46.0833 154.677 45.75 154.01 45.25 153.51H44.5C43.6667 154.01 42.8333 154.177 42 154.01C41.3333 153.677 40.5833 153.343 39.75 153.01C39.0833 152.677 38.75 152.01 38.75 151.01C38.75 148.843 38.3333 146.927 37.5 145.26C36.6667 143.593 35.9167 141.927 35.25 140.26C34.75 138.593 34.1667 136.927 33.5 135.26C33.1667 134.593 33 134.01 33 133.51C33 132.843 32.8333 132.177 32.5 131.51C32.3333 130.677 32.1667 130.01 32 129.51C31.8333 128.843 31.5833 128.177 31.25 127.51C30.4167 125.51 29.75 123.677 29.25 122.01C28.9167 120.843 28.5833 119.76 28.25 118.76C27.9167 117.593 27.5833 116.427 27.25 115.26C26.9167 114.427 26.6667 113.593 26.5 112.76C26.5 111.76 26.3333 110.843 26 110.01C26 109.677 25.9167 109.343 25.75 109.01C25.5833 108.51 25.4167 108.093 25.25 107.76C25.0833 107.26 24.9167 106.843 24.75 106.51C24.5833 106.01 24.4167 105.51 24.25 105.01C23.9167 103.677 23.5 102.51 23 101.51C22.5 100.343 22.0833 99.0932 21.75 97.7599C21.25 95.4265 20.4167 93.3432 19.25 91.5099C19.0833 91.3432 19 91.0099 19 90.5099C18.8333 89.6765 18.6667 88.8432 18.5 88.0099C18.5 87.0099 18.0833 86.1766 17.25 85.5099V85.2599L17 85.0099C16.8333 84.3432 16.6667 83.7599 16.5 83.2599C16.3333 82.7599 16.1667 82.1766 16 81.5099C15.6667 80.6766 15.4167 79.9266 15.25 79.2599C15.0833 78.4265 14.8333 77.5932 14.5 76.7599C14.1667 75.9266 13.8333 75.0099 13.5 74.0099C13.1667 73.0099 12.8333 72.0099 12.5 71.0099C12.3333 70.6766 12.25 70.4265 12.25 70.2599C12.25 69.9265 12.1667 69.5932 12 69.2599C11.8333 68.7599 11.6667 68.3432 11.5 68.0099C11.5 67.5099 11.4167 67.0099 11.25 66.5099V66.2599C11.5833 65.4266 11.4167 64.7599 10.75 64.2599C10.25 63.5932 9.91667 62.9265 9.75 62.2599C9.75 61.4265 9.58333 60.1765 9.25 58.5099C9.08333 57.8432 8.91667 57.1765 8.75 56.5099C8.75 55.8432 8.66667 55.0932 8.5 54.2599C8.33333 53.2599 8.16667 52.2599 8 51.2599C8 50.2599 7.83333 49.2599 7.5 48.2599C7.33333 47.4265 7.16667 46.7599 7 46.2599C7 45.5932 6.91667 44.8432 6.75 44.0099C6.41667 42.3432 6.16667 41.1765 6 40.5099C6 40.1765 5.83333 39.6765 5.5 39.0099C4.83333 38.3432 4.75 37.5932 5.25 36.7599C5.58333 36.4265 5.83333 36.0099 6 35.5099C6.33333 35.0099 6.66667 34.5932 7 34.2599C7 34.0932 7.16667 33.8432 7.5 33.5099L7.75 33.2599C8.91667 33.5932 9.58333 33.9266 9.75 34.2599C10.0833 34.9265 10.4167 35.5932 10.75 36.2599C11.0833 36.9266 11.25 37.6766 11.25 38.5099C11.4167 39.3432 11.5833 40.0932 11.75 40.7599C11.9167 41.4265 12.1667 42.1765 12.5 43.0099C12.8333 44.6766 13.1667 45.9266 13.5 46.7599C14 47.5932 14.6667 48.0099 15.5 48.0099C16 47.8432 16.3333 48.0099 16.5 48.5099C16.8333 48.8432 17.1667 49.1765 17.5 49.5099C17.8333 49.8432 18.0833 50.2599 18.25 50.7599C18.5833 51.0932 18.75 51.4265 18.75 51.7599C18.75 52.5932 18.8333 53.2599 19 53.7599C19.3333 54.0932 19.6667 54.5932 20 55.2599C20.1667 56.0932 20.1667 56.9265 20 57.7599C20 58.5932 20.1667 59.4265 20.5 60.2599C20.5 60.7599 20.6667 61.3432 21 62.0099C21.3333 62.5099 21.5 63.0099 21.5 63.5099C21.6667 64.0099 21.8333 64.4265 22 64.7599C22.5 66.7599 23.0833 68.3432 23.75 69.5099C23.75 70.0099 23.9167 70.5932 24.25 71.2599C24.4167 72.5932 24.75 73.8432 25.25 75.0099C25.9167 76.1766 26.4167 77.4266 26.75 78.7599C27.0833 79.0932 27.4167 79.2599 27.75 79.2599C28.9167 79.0932 29.5 79.1765 29.5 79.5099C29.6667 79.6765 29.75 80.2599 29.75 81.2599C29.5833 83.0932 29.75 85.0099 30.25 87.0099C30.5833 88.3432 30.9167 89.5932 31.25 90.7599C31.5833 91.9265 31.9167 93.0932 32.25 94.2599C32.5833 95.7599 32.9167 97.2599 33.25 98.7599C33.75 100.26 34.25 101.677 34.75 103.01C35.0833 103.843 35.3333 104.76 35.5 105.76C35.8333 106.593 36.1667 107.427 36.5 108.26C36.5 109.26 36.75 110.26 37.25 111.26C37.75 112.093 38.1667 112.927 38.5 113.76C39 115.26 39.5 116.76 40 118.26C40.6667 119.76 41.25 121.177 41.75 122.51C42.0833 123.843 42.3333 125.093 42.5 126.26C42.6667 127.427 42.9167 128.593 43.25 129.76C43.5833 131.093 44 132.343 44.5 133.51C45.1667 134.51 45.6667 135.593 46 136.76C46.3333 137.427 46.6667 138.427 47 139.76C47.3333 140.593 47.6667 141.51 48 142.51C48.5 143.51 48.9167 144.427 49.25 145.26C49.5833 146.427 49.9167 147.593 50.25 148.76C50.75 149.927 51.3333 151.093 52 152.26C52.3333 153.093 52.75 154.01 53.25 155.01C53.75 156.01 54.5833 156.843 55.75 157.51ZM66 114.51C66.3333 114.01 66.5833 113.51 66.75 113.01C67.0833 112.343 67.4167 111.76 67.75 111.26C67.5833 111.26 67.5 111.26 67.5 111.26C67.5 111.093 67.4167 111.01 67.25 111.01C66.75 111.677 66.3333 112.843 66 114.51L64 115.51C64.3333 115.677 64.5833 115.843 64.75 116.01C64.9167 116.01 65.1667 116.01 65.5 116.01C65.5 116.01 65.6667 115.677 66 115.01V114.51ZM82 105.76H81.5C81.3333 106.26 81.1667 106.76 81 107.26C80.8333 107.76 80.6667 108.26 80.5 108.76C80 109.593 79.5 110.51 79 111.51C78.6667 112.51 78.25 113.51 77.75 114.51C77.0833 115.843 76.6667 116.843 76.5 117.51C76.1667 118.343 75.8333 119.177 75.5 120.01C75.1667 120.677 74.8333 121.427 74.5 122.26C74.3333 122.593 74.0833 123.01 73.75 123.51C73.5833 124.01 73.5 124.51 73.5 125.01C73.5 126.343 73.1667 127.51 72.5 128.51C72 129.51 71.5833 130.593 71.25 131.76C71.0833 132.593 70.6667 133.677 70 135.01C69.6667 135.843 69.3333 136.593 69 137.26C68.6667 137.927 68.3333 138.677 68 139.51C67.8333 139.843 67.5833 140.177 67.25 140.51C67.0833 140.677 66.9167 140.927 66.75 141.26C65.75 143.093 64.9167 145.01 64.25 147.01C64.0833 147.343 64 147.677 64 148.01C64 148.177 63.9167 148.427 63.75 148.76C63.9167 148.927 64 149.01 64 149.01C64.5 148.343 65 147.76 65.5 147.26C66 146.76 66.4167 146.177 66.75 145.51C67.0833 144.677 67.4167 143.927 67.75 143.26C68.0833 142.427 68.4167 141.593 68.75 140.76C68.9167 139.76 69.25 138.843 69.75 138.01C70.0833 137.51 70.3333 137.093 70.5 136.76C70.6667 136.26 70.9167 135.76 71.25 135.26C71.9167 133.76 72.5 132.093 73 130.26C73.3333 129.26 73.6667 128.677 74 128.51C74.1667 128.51 74.25 128.427 74.25 128.26C74.25 127.927 74.3333 127.677 74.5 127.51V126.51L76.75 121.26C76.75 120.927 76.75 120.593 76.75 120.26C76.75 119.927 76.9167 119.677 77.25 119.51C77.9167 119.177 78.25 118.76 78.25 118.26C78.25 117.76 78.3333 117.26 78.5 116.76C78.5 116.093 78.5 115.76 78.5 115.76C79 114.927 79.4167 114.093 79.75 113.26C80.25 112.26 80.5833 111.26 80.75 110.26C80.9167 109.427 81.0833 108.677 81.25 108.01C81.4167 107.343 81.6667 106.593 82 105.76ZM66.5 125.76L68 122.76C68.3333 121.76 68.5833 121.093 68.75 120.76C69.4167 119.26 70.0833 117.843 70.75 116.51C71.5833 115.01 72.25 113.51 72.75 112.01C73.0833 111.01 73.5 110.01 74 109.01C74.5 108.01 74.9167 107.01 75.25 106.01C75.5833 105.01 75.8333 104.343 76 104.01C76 103.51 76.1667 102.927 76.5 102.26C76.8333 101.593 77.0833 101.177 77.25 101.01C77.5833 100.343 77.8333 99.6765 78 99.0099C78.3333 98.3432 78.3333 97.5099 78 96.5099C77.6667 97.0099 77.3333 97.4265 77 97.7599C76.8333 98.0932 76.5833 98.4266 76.25 98.7599C75.9167 100.427 75.5833 101.677 75.25 102.51C74.9167 102.843 74.6667 103.26 74.5 103.76C74.5 104.26 74.1667 104.593 73.5 104.76V105.01C73.5 105.343 73.5 105.51 73.5 105.51C73.6667 105.843 73.6667 106.26 73.5 106.76C73.3333 107.093 73.1667 107.427 73 107.76C72.6667 108.093 72.5 108.343 72.5 108.51C72 109.51 71.5833 110.593 71.25 111.76C70.9167 112.927 70.3333 113.927 69.5 114.76C69.3333 114.927 69.25 115.093 69.25 115.26C69.25 115.26 69.1667 115.343 69 115.51C68.6667 116.843 68.3333 118.093 68 119.26C67.6667 120.427 67.3333 121.51 67 122.51C66.5 122.843 66.0833 123.01 65.75 123.01C65.5833 123.01 65.3333 123.177 65 123.51C64.6667 123.51 64.5 123.843 64.5 124.51C64.5 124.51 64.75 124.76 65.25 125.26C65.4167 125.427 65.5833 125.51 65.75 125.51C65.9167 125.51 66.1667 125.593 66.5 125.76ZM22.5 85.7599H22C22 86.9265 22.0833 87.6765 22.25 88.0099C22.5833 88.8432 22.75 89.6765 22.75 90.5099C22.9167 91.3432 23.1667 92.1766 23.5 93.0099C24 94.5099 24.4167 96.0099 24.75 97.5099C25.25 99.0099 25.75 100.51 26.25 102.01C26.4167 102.01 26.5 102.093 26.5 102.26C26.6667 102.26 26.75 102.26 26.75 102.26C26.75 102.093 26.8333 102.01 27 102.01C26.6667 99.1765 25.9167 96.5099 24.75 94.0099C23.75 91.3432 23 88.5932 22.5 85.7599ZM30.5 114.01C30.6667 113.677 30.5833 112.927 30.25 111.76C29.9167 110.593 29.5 109.343 29 108.01C28.6667 106.677 28.25 105.51 27.75 104.51C27.25 103.51 26.8333 102.927 26.5 102.76C27.6667 106.593 29 110.343 30.5 114.01ZM81.75 105.01C83.75 104.01 84.5 102.26 84 99.7599C83.5 100.593 83 101.343 82.5 102.01C82.1667 102.677 81.8333 103.427 81.5 104.26C81.5 104.427 81.5 104.593 81.5 104.76C81.6667 104.76 81.75 104.843 81.75 105.01ZM34.75 125.51C34.75 125.343 34.9167 125.26 35.25 125.26C34.9167 124.427 34.5833 123.76 34.25 123.26C34.0833 122.593 33.8333 121.843 33.5 121.01C33.3333 121.177 33.1667 121.26 33 121.26C33.5 122.76 34.0833 124.177 34.75 125.51ZM32.75 120.51C32.9167 120.51 33 120.51 33 120.51C33 120.343 33.0833 120.26 33.25 120.26C32.9167 119.593 32.6667 118.927 32.5 118.26C32.5 117.593 32.3333 116.927 32 116.26C31.8333 116.26 31.6667 116.343 31.5 116.51C31.8333 117.177 32 117.843 32 118.51C32.1667 119.01 32.4167 119.677 32.75 120.51ZM85.75 74.0099H86C86.3333 73.3432 86.5833 72.6765 86.75 72.0099C86.9167 71.3432 87.1667 70.6766 87.5 70.0099C87.3333 70.0099 87.25 69.9265 87.25 69.7599C86.9167 70.5932 86.6667 71.3432 86.5 72.0099C86.3333 72.5099 86.0833 73.1766 85.75 74.0099ZM55.75 158.01C55.4167 158.677 55.4167 159.26 55.75 159.76C56.0833 160.093 56.3333 160.427 56.5 160.76C56.8333 160.427 57 160.177 57 160.01C57 159.677 56.5833 159.01 55.75 158.01ZM84 80.7599C84 79.7599 83.9167 79.0099 83.75 78.5099C83.4167 79.6766 83.25 80.3432 83.25 80.5099C83.25 80.6766 83.5 80.7599 84 80.7599ZM78.25 96.2599C79.4167 96.2599 79.6667 95.6766 79 94.5099C78.8333 95.0099 78.5833 95.5932 78.25 96.2599ZM69.25 108.26V106.26C69.0833 106.26 69 106.177 69 106.01C68.8333 106.343 68.6667 106.677 68.5 107.01C68.5 107.343 68.4167 107.677 68.25 108.01C68.5833 108.01 68.75 108.093 68.75 108.26C68.9167 108.26 69.0833 108.26 69.25 108.26ZM150.25 142.26C148.75 142.26 147.75 142.343 147.25 142.51C146.417 142.843 145.583 142.927 144.75 142.76C144.083 142.427 143.333 142.093 142.5 141.76C141.667 141.427 141.5 140.843 142 140.01C142.333 139.01 142.583 138.177 142.75 137.51C141.75 137.677 140.75 137.843 139.75 138.01C138.917 138.01 138.083 138.093 137.25 138.26C137.083 138.427 136.75 138.51 136.25 138.51C134.917 138.01 133.75 138.093 132.75 138.76C132.417 138.427 132 138.093 131.5 137.76C131.167 137.427 130.833 137.093 130.5 136.76C130.167 136.427 130.083 135.843 130.25 135.01C130.417 134.177 130.75 133.593 131.25 133.26C132.083 132.927 132.833 132.677 133.5 132.51C134.167 132.343 134.917 132.177 135.75 132.01C137.417 131.51 139.083 131.26 140.75 131.26C142.083 130.927 143.25 130.76 144.25 130.76C145.417 130.76 146.667 130.677 148 130.51L151.75 129.76C151.75 129.76 152 129.51 152.5 129.01C152.667 128.177 152.75 127.343 152.75 126.51C152.75 125.677 152.833 124.843 153 124.01C153.167 123.177 153.25 122.51 153.25 122.01C153.417 121.343 153.583 120.593 153.75 119.76C154.083 118.427 154.333 117.26 154.5 116.26C154.833 115.093 155.083 113.843 155.25 112.51C155.583 110.843 155.75 109.177 155.75 107.51C155.917 105.843 156.167 104.093 156.5 102.26C156.833 100.76 157.167 99.2599 157.5 97.7599C157.833 96.2599 158.167 94.7599 158.5 93.2599C158.833 92.0932 159 91.0099 159 90.0099C159.167 88.8432 159.417 87.6766 159.75 86.5099C160.083 85.3432 160.333 84.2599 160.5 83.2599C160.833 82.0932 161.167 80.9265 161.5 79.7599C161.667 79.2599 161.75 78.4266 161.75 77.2599C162.083 75.7599 162.333 74.2599 162.5 72.7599C162.667 71.0932 162.917 69.5099 163.25 68.0099C163.25 67.5099 163.333 67.0932 163.5 66.7599C163.667 66.2599 163.75 65.8432 163.75 65.5099C163.917 65.1766 164 64.6766 164 64.0099C164 63.6765 164 63.3432 164 63.0099C164.167 62.6765 164.25 62.3432 164.25 62.0099C164.583 60.6765 164.75 59.4265 164.75 58.2599C164.917 57.0932 165.167 55.8432 165.5 54.5099C166 53.1766 166.333 51.7599 166.5 50.2599C166.667 48.7599 166.917 47.3432 167.25 46.0099C167.417 44.8432 167.583 43.7599 167.75 42.7599C167.917 41.7599 168.083 40.6765 168.25 39.5099C168.417 39.1765 168.5 39.0099 168.5 39.0099C168.667 38.8432 168.833 38.5932 169 38.2599C170 36.7599 170.25 35.0099 169.75 33.0099C169.417 32.1765 169.167 31.3432 169 30.5099C168.833 29.5099 169.167 28.5932 170 27.7599V26.7599C170 25.9265 169.917 25.0932 169.75 24.2599C169.75 23.2599 169.667 22.3432 169.5 21.5099C169.333 20.6765 169.167 19.8432 169 19.0099C169 18.0099 168.833 17.0932 168.5 16.2599C168.333 15.5932 168.167 14.9266 168 14.2599C168 13.5932 167.917 12.8432 167.75 12.0099C168.583 11.3432 168.833 10.6765 168.5 10.0099C168.167 9.34321 168.083 8.67654 168.25 8.00988C168.25 6.50988 167.833 5.09321 167 3.75989C166.667 2.92654 166.75 2.17654 167.25 1.50988C167.75 0.676552 168.417 0.259886 169.25 0.259886C169.75 0.259886 170.167 0.343218 170.5 0.509883C171 0.676547 171.5 0.843212 172 1.00988C172.167 1.17654 172.25 1.34321 172.25 1.50988C172.417 2.00988 172.5 2.59321 172.5 3.25988C172.5 3.75988 172.5 4.25988 172.5 4.75987C172.667 5.25988 172.667 5.75988 172.5 6.25988C172.5 6.75988 172.583 7.25988 172.75 7.75988C172.75 8.25988 173.083 8.50988 173.75 8.50988C174.583 8.67655 175.167 8.50988 175.5 8.00988C176 7.50988 176.417 7.00988 176.75 6.50988C177.083 6.17654 177.5 5.92654 178 5.75987C178.667 5.42655 179.167 5.34321 179.5 5.50988C180.667 5.84321 181.083 6.50988 180.75 7.50988C180.417 7.84321 180.417 8.00988 180.75 8.00988C181.583 8.50988 181.833 9.09321 181.5 9.75988C181.333 10.4266 181.25 11.0932 181.25 11.7599C181.25 12.5932 181.167 13.3432 181 14.0099C181 14.5099 180.917 15.0932 180.75 15.7599V19.7599C180.583 20.5932 180.5 21.3432 180.5 22.0099C180.667 22.6765 180.667 23.4265 180.5 24.2599C180.5 25.7599 180.25 27.0932 179.75 28.2599C179.417 29.2599 179.333 30.2599 179.5 31.2599C179.667 32.2599 179.833 33.2599 180 34.2599C180.333 35.4266 180.583 36.5932 180.75 37.7599C181.083 38.9266 181.417 40.0932 181.75 41.2599C182.083 42.7599 182.417 44.2599 182.75 45.7599C183.083 47.2599 183.25 48.8432 183.25 50.5099C183.25 50.6765 183.333 50.8432 183.5 51.0099C184.167 52.0099 184.167 52.5932 183.5 52.7599C183.667 53.0932 183.833 53.3432 184 53.5099C184.167 53.6766 184.25 53.9265 184.25 54.2599C184.583 55.2599 184.75 56.2599 184.75 57.2599C184.917 58.2599 185.167 59.2599 185.5 60.2599C185.833 61.0932 186.083 61.9266 186.25 62.7599C186.417 63.4266 186.583 64.1766 186.75 65.0099C187.083 66.6766 187.25 68.0099 187.25 69.0099C187.583 69.3432 187.75 69.5932 187.75 69.7599C188.083 71.2599 188.417 72.7599 188.75 74.2599C189.083 75.5932 189.417 77.0099 189.75 78.5099C189.917 80.0099 190.333 81.8432 191 84.0099C191.167 84.6765 191.25 85.3432 191.25 86.0099C191.25 86.6765 191.333 87.3432 191.5 88.0099C191.667 88.5099 191.75 89.0099 191.75 89.5099C191.917 89.8432 192.083 90.2599 192.25 90.7599C192.25 91.0932 192.25 91.4266 192.25 91.7599C192.417 92.0932 192.5 92.4266 192.5 92.7599C192.667 93.0932 192.75 93.5099 192.75 94.0099C192.75 94.5099 192.833 94.9266 193 95.2599C193.333 96.5932 193.583 97.8432 193.75 99.0099C194.083 100.177 194.417 101.427 194.75 102.76C194.75 103.093 194.833 103.51 195 104.01C195.167 104.343 195.25 104.677 195.25 105.01L196.75 112.51L197.5 116.26C197.833 117.093 198.083 117.927 198.25 118.76C198.417 119.593 198.667 120.427 199 121.26C199.167 121.76 199.333 122.26 199.5 122.76C199.667 123.26 199.833 123.76 200 124.26C200.667 124.26 201.25 124.26 201.75 124.26C202.417 124.093 203 124.093 203.5 124.26C204.667 124.76 205.583 124.51 206.25 123.51C206.583 123.843 207.083 124.177 207.75 124.51C208.417 124.843 208.667 125.343 208.5 126.01C208.5 126.51 208.5 127.01 208.5 127.51C208.667 128.01 209.083 128.427 209.75 128.76C209.25 129.76 208.833 130.343 208.5 130.51C208.333 130.677 207.75 130.677 206.75 130.51C205.917 130.51 205.333 130.76 205 131.26C204.833 131.427 204.417 131.677 203.75 132.01C202.583 132.343 202.333 132.927 203 133.76C203.333 134.76 203.667 135.76 204 136.76C204.5 137.76 204.917 138.843 205.25 140.01C205.417 140.343 205.583 140.593 205.75 140.76C206.083 140.927 206.25 141.343 206.25 142.01C206.25 143.51 205.583 144.593 204.25 145.26C203.917 145.427 203.75 145.51 203.75 145.51C203.917 146.177 204 146.843 204 147.51C204 148.01 204.083 148.593 204.25 149.26C204.417 149.927 204.583 150.51 204.75 151.01C204.917 151.51 205.083 152.093 205.25 152.76C205.417 153.427 205.5 154.01 205.5 154.51C205.667 155.01 205.833 155.593 206 156.26V156.76C206.5 158.093 207 159.427 207.5 160.76C208 162.093 208.5 163.427 209 164.76C209.333 165.593 209.583 166.51 209.75 167.51C210.083 168.343 210.417 169.177 210.75 170.01C211.083 170.843 211.417 171.593 211.75 172.26C212.083 172.927 212.417 173.677 212.75 174.51C212.917 175.01 213.333 175.593 214 176.26C214 176.427 214 176.51 214 176.51C214.167 176.51 214.25 176.593 214.25 176.76C214.25 177.927 214.583 178.927 215.25 179.76C215.917 180.593 216.417 181.51 216.75 182.51C217.083 183.177 217.5 183.76 218 184.26C218.5 184.593 218.917 185.01 219.25 185.51C219.917 186.343 219.917 187.093 219.25 187.76C219.25 187.927 219.167 188.01 219 188.01C219 188.01 219 188.093 219 188.26C218.5 189.927 217.5 190.51 216 190.01C215.5 190.01 215.25 190.01 215.25 190.01C214.083 190.01 213.417 189.51 213.25 188.51C213.25 188.177 213.083 187.843 212.75 187.51C212.583 187.51 212.5 187.593 212.5 187.76C212.5 188.093 212.5 188.26 212.5 188.26C213.167 188.927 213.25 189.51 212.75 190.01C212.417 190.343 212.083 190.677 211.75 191.01C210.75 192.01 209.75 191.927 208.75 190.76C208.417 190.593 208.083 190.51 207.75 190.51C207.583 190.343 207.333 190.177 207 190.01C206.333 189.677 206.167 189.26 206.5 188.76C206.667 188.427 206.667 188.093 206.5 187.76C206.5 187.26 206.5 186.843 206.5 186.51C206 184.677 205.5 182.843 205 181.01C204.5 179.177 203.917 177.343 203.25 175.51C203.083 175.01 202.917 174.593 202.75 174.26C202.583 173.76 202.417 173.26 202.25 172.76C201.917 171.76 201.75 170.927 201.75 170.26C201.417 168.927 201.083 167.593 200.75 166.26C200.417 164.76 200.083 163.343 199.75 162.01C199.583 161.51 199.5 161.01 199.5 160.51C199.5 160.01 199.417 159.51 199.25 159.01C199.25 157.177 198.833 155.593 198 154.26C197.667 153.427 197.417 152.677 197.25 152.01C197.25 151.177 197.083 150.343 196.75 149.51L195.25 143.51C195.083 142.677 194.917 141.927 194.75 141.26C194.75 140.427 194.583 139.593 194.25 138.76C194.083 138.26 194 137.76 194 137.26C194 136.76 193.833 136.26 193.5 135.76C193.5 134.927 193 134.593 192 134.76C191.167 135.093 190.25 135.343 189.25 135.51C188.25 135.51 187.25 135.593 186.25 135.76C185.083 136.093 183.917 136.51 182.75 137.01C181.75 137.343 180.667 137.677 179.5 138.01C178.667 138.343 177.75 138.593 176.75 138.76C175.917 138.76 175 138.843 174 139.01C173.333 139.01 172.5 139.177 171.5 139.51C170.833 139.51 170.417 139.427 170.25 139.26C170.083 139.26 170 139.01 170 138.51C170.667 138.177 171.083 138.01 171.25 138.01C171.417 137.843 171.75 137.76 172.25 137.76C169.917 136.927 167.667 136.593 165.5 136.76C163.333 136.76 161.083 137.01 158.75 137.51C158.583 138.343 159 138.843 160 139.01H161.5L161.75 139.26C161.083 139.593 160.75 139.843 160.75 140.01C160.917 140.01 161.417 140.343 162.25 141.01C161.583 141.177 161 141.343 160.5 141.51C160 141.51 159.5 141.51 159 141.51C158.167 141.51 157.667 141.843 157.5 142.51C157.333 143.177 157.167 143.843 157 144.51C156.833 145.01 156.667 145.593 156.5 146.26C156.167 148.093 155.833 149.843 155.5 151.51C155.167 153.01 154.833 154.677 154.5 156.51C154.167 157.677 153.917 158.843 153.75 160.01C153.583 161.01 153.5 162.177 153.5 163.51C153.333 164.843 153.083 166.093 152.75 167.26C152.417 168.427 152.417 169.677 152.75 171.01C152.75 171.843 152.333 172.427 151.5 172.76C150.5 172.927 149.917 173.593 149.75 174.76C149.583 175.427 149.417 176.093 149.25 176.76C149.083 177.26 148.917 177.843 148.75 178.51C148.583 179.343 148.5 180.177 148.5 181.01C148.5 181.843 148.417 182.677 148.25 183.51L146.75 191.01C146.417 192.51 146.083 193.927 145.75 195.26C145.583 196.76 145.333 198.26 145 199.76C144.833 200.593 144.75 201.427 144.75 202.26C144.917 203.26 144.917 204.177 144.75 205.01C144.75 206.343 144.667 207.593 144.5 208.76C144.5 209.927 144.417 211.177 144.25 212.51V212.76C144.25 213.76 144.167 214.343 144 214.51C144 214.677 143.583 214.927 142.75 215.26C141.25 215.593 140.25 215.093 139.75 213.76L139 212.26C139 211.593 139.083 211.177 139.25 211.01C140.25 209.677 140.083 208.51 138.75 207.51C137.75 206.677 137.5 205.593 138 204.26C138.833 202.427 139.417 200.427 139.75 198.26C140.25 196.26 140.583 194.177 140.75 192.01C140.75 191.843 140.75 191.76 140.75 191.76C140.917 191.593 141 191.427 141 191.26C141.167 190.427 141.333 189.593 141.5 188.76C141.667 187.76 141.833 186.843 142 186.01C142.333 184.343 142.583 182.76 142.75 181.26C142.917 179.76 143.083 178.26 143.25 176.76C143.583 175.26 143.833 173.76 144 172.26C144.167 170.76 144.417 169.343 144.75 168.01C144.917 167.01 145.083 166.093 145.25 165.26C145.583 164.26 145.833 163.26 146 162.26C146.333 160.927 146.583 159.51 146.75 158.01C147.083 156.51 147.417 155.093 147.75 153.76C147.917 152.927 148 152.177 148 151.51C148.167 150.843 148.333 150.177 148.5 149.51C148.833 148.677 149 147.843 149 147.01C149.167 146.177 149.417 145.343 149.75 144.51C149.75 144.343 149.917 143.593 150.25 142.26ZM191 125.26C190.667 123.927 190.417 122.76 190.25 121.76C190.083 120.593 189.833 119.427 189.5 118.26C189.167 116.927 188.75 115.677 188.25 114.51C187.917 113.177 187.583 111.843 187.25 110.51C186.917 109.343 186.667 108.177 186.5 107.01C186.333 105.843 186.083 104.677 185.75 103.51C185.583 103.177 185.417 102.843 185.25 102.51C185.083 102.177 185 101.843 185 101.51C184.667 100.677 184.417 99.8432 184.25 99.0099C184.25 98.0099 184.167 97.0932 184 96.2599C183.667 94.9266 183.333 93.6765 183 92.5099C182.833 91.3432 182.583 90.0932 182.25 88.7599C181.917 87.4265 181.667 86.2599 181.5 85.2599C181.333 84.0932 181.083 82.9265 180.75 81.7599C180.583 80.7599 180.417 79.7599 180.25 78.7599C180.083 77.5932 179.833 76.5099 179.5 75.5099C179.167 73.6766 178.667 71.9265 178 70.2599C177.5 68.5932 177.083 66.8432 176.75 65.0099C176.417 63.6766 176.167 62.4265 176 61.2599C176 59.9265 175.833 58.5932 175.5 57.2599L174.75 54.2599H174.25C174.25 54.5932 174.083 54.9265 173.75 55.2599L173 60.5099C173 61.0099 172.917 61.5099 172.75 62.0099C172.583 62.5099 172.417 63.0932 172.25 63.7599C171.917 65.0932 171.667 66.5099 171.5 68.0099C171.5 69.3432 171.333 70.7599 171 72.2599C170.667 73.0932 170.417 74.0099 170.25 75.0099C170.25 76.0099 170.083 76.9265 169.75 77.7599C169.75 78.0932 169.583 78.5932 169.25 79.2599V80.5099L168.5 83.5099C168.5 84.0099 168.417 84.5099 168.25 85.0099C168.083 85.3432 167.917 85.7599 167.75 86.2599C167.75 86.7599 167.75 87.2599 167.75 87.7599C167.917 88.2599 167.917 88.7599 167.75 89.2599C167.583 91.0932 167.417 92.9265 167.25 94.7599C167.25 96.5932 167.083 98.4266 166.75 100.26C166.75 100.593 166.667 100.843 166.5 101.01C166.333 101.177 166.25 101.427 166.25 101.76C166.417 102.927 166.167 104.343 165.5 106.01C165.333 106.343 165.25 106.927 165.25 107.76C165.083 108.593 165 109.427 165 110.26C165 111.093 164.917 111.927 164.75 112.76C164.75 113.427 164.667 114.01 164.5 114.51C164.333 115.01 164.167 115.51 164 116.01C163.833 116.843 163.667 117.593 163.5 118.26C163.5 118.76 163.417 119.427 163.25 120.26C162.917 121.593 162.583 122.843 162.25 124.01C162.083 125.177 161.833 126.427 161.5 127.76C161.5 128.26 161.667 128.51 162 128.51H165.5C166.5 128.343 167.417 128.26 168.25 128.26C169.25 128.093 170.25 128.01 171.25 128.01C172.083 127.843 172.917 127.76 173.75 127.76C174.583 127.593 175.417 127.427 176.25 127.26C177.583 127.093 178.917 126.927 180.25 126.76C181.75 126.593 183.167 126.427 184.5 126.26C185.667 126.093 186.75 125.927 187.75 125.76C188.75 125.593 189.833 125.427 191 125.26ZM187.5 88.2599C187.667 90.0932 188 91.8432 188.5 93.5099C189 95.0099 189.417 96.6766 189.75 98.5099C190.083 98.0099 190 96.5099 189.5 94.0099C189 91.3432 188.333 89.4266 187.5 88.2599ZM187 86.0099C187.667 84.6765 187.75 83.5932 187.25 82.7599C186.917 81.9265 186.5 81.0099 186 80.0099C185.667 81.1765 185.667 82.2599 186 83.2599C186.333 84.0932 186.667 85.0099 187 86.0099ZM185 73.5099C184.667 73.6765 184.5 73.7599 184.5 73.7599C184.833 74.2599 184.833 74.8432 184.5 75.5099C184.333 76.0099 184.583 76.4266 185.25 76.7599H185.5C185.333 76.2599 185.25 75.7599 185.25 75.2599C185.25 74.5932 185.167 74.0099 185 73.5099ZM162.5 141.01C162.5 140.843 162.583 140.76 162.75 140.76C163.75 140.26 164.583 139.593 165.25 138.76C165.75 138.093 166.5 138.093 167.5 138.76C168.167 139.427 168.083 140.01 167.25 140.51C166.417 140.677 165.667 140.843 165 141.01C164.5 141.01 163.833 141.093 163 141.26C162.833 141.26 162.75 141.26 162.75 141.26C162.75 141.093 162.667 141.01 162.5 141.01ZM342.75 16.0099C342.917 14.3432 343 12.7599 343 11.2599C343.167 9.59321 343.25 8.00988 343.25 6.50988C343.25 5.17654 343.667 3.67654 344.5 2.00988C344.833 1.34321 345.583 1.17655 346.75 1.50988C347.25 1.50988 347.5 1.67655 347.5 2.00988C347.667 2.34321 347.833 2.67654 348 3.00988C348.333 4.00988 348.5 4.67655 348.5 5.00988C348.667 5.17655 348.75 5.50988 348.75 6.00987C348.417 7.00988 348.167 8.00988 348 9.00988C347.833 10.0099 347.5 10.9265 347 11.7599C346.667 12.4265 346.5 13.0099 346.5 13.5099C346.667 14.0099 346.667 14.4265 346.5 14.7599C346 16.0932 345.75 17.2599 345.75 18.2599C345.583 19.0932 345.5 19.9265 345.5 20.7599C345.5 21.4265 345.417 22.1765 345.25 23.0099C345.25 23.3432 345.167 23.7599 345 24.2599C345 24.7599 345 25.2599 345 25.7599C345 26.2599 345 26.5099 345 26.5099C345.333 27.1765 345.417 27.8432 345.25 28.5099C345.083 29.0099 345 29.5932 345 30.2599C344.667 31.5932 344.5 32.8432 344.5 34.0099C344.5 35.1765 344.417 36.4265 344.25 37.7599C344.083 38.0932 344 38.5099 344 39.0099V41.0099V42.5099C344 42.8432 343.917 43.2599 343.75 43.7599C343.75 44.2599 343.75 44.7599 343.75 45.2599C343.583 46.0932 343.417 46.8432 343.25 47.5099C343.25 48.1765 343.25 48.9265 343.25 49.7599C343.083 50.5932 343 51.5099 343 52.5099C343 53.5099 343 54.4265 343 55.2599C342.833 56.0932 342.667 56.8432 342.5 57.5099C342.5 58.1765 342.583 58.9265 342.75 59.7599C343.083 60.5932 343 61.4265 342.5 62.2599C342 62.9265 341.917 63.6765 342.25 64.5099C342.583 65.5099 342.583 66.4266 342.25 67.2599C342.083 68.0932 342.083 69.0099 342.25 70.0099C342.25 70.8432 342.167 71.7599 342 72.7599C342 73.7599 342 74.6765 342 75.5099C341.833 76.6766 341.75 77.8432 341.75 79.0099C341.917 80.0099 342 81.0099 342 82.0099C341.833 83.0099 341.667 84.0099 341.5 85.0099C341.5 86.0099 341.5 87.0099 341.5 88.0099C341.333 89.1765 341.25 90.2599 341.25 91.2599C341.25 92.2599 341.25 93.3432 341.25 94.5099C341.25 95.8432 341.25 97.2599 341.25 98.7599C341.25 100.093 341.167 101.427 341 102.76V110.51C341.167 111.843 341.167 113.26 341 114.76C341 116.093 341 117.427 341 118.76C341.167 119.593 341.167 120.51 341 121.51C341 122.343 341.167 123.177 341.5 124.01C341.667 124.51 341.583 125.343 341.25 126.51C341.25 126.677 341.25 126.843 341.25 127.01C341.417 127.177 341.5 127.343 341.5 127.51C341.833 128.01 341.917 128.343 341.75 128.51C341.583 129.677 341.583 130.843 341.75 132.01C341.917 133.01 342 134.093 342 135.26C342 136.093 342 136.927 342 137.76C342.167 138.427 342.25 139.177 342.25 140.01V141.51C342.417 142.01 342.5 142.343 342.5 142.51C342.667 142.677 342.75 142.927 342.75 143.26C342.75 144.093 342.667 144.843 342.5 145.51C342.5 146.177 342.5 146.843 342.5 147.51C342.5 147.677 342.667 147.927 343 148.26V149.01V150.51V153.26V162.01C343 162.177 343.083 162.343 343.25 162.51C343.75 164.677 344.083 166.843 344.25 169.01C344.417 171.177 344.5 173.427 344.5 175.76V179.51C344.667 179.843 344.75 180.01 344.75 180.01C345.083 180.677 345.167 181.177 345 181.51C344.667 182.343 344.167 183.093 343.5 183.76C343.167 184.093 342.417 184.343 341.25 184.51C340.083 184.51 339.333 184.26 339 183.76C338.5 183.26 338.083 182.343 337.75 181.01C337.583 180.343 337.417 179.76 337.25 179.26C337.25 178.593 337.167 177.843 337 177.01C336.833 176.343 336.667 175.76 336.5 175.26C336.333 174.76 335.917 174.343 335.25 174.01C335.083 173.843 334.75 173.343 334.25 172.51C334.25 172.01 334.167 171.677 334 171.51C333.833 171.01 333.667 170.593 333.5 170.26C333.5 169.76 333.75 169.343 334.25 169.01V168.51C333.917 167.677 333.583 166.927 333.25 166.26C332.917 165.593 332.583 164.843 332.25 164.01C331.917 163.677 331.667 163.26 331.5 162.76C331.333 162.26 331.083 161.843 330.75 161.51C330.417 160.843 330.083 160.26 329.75 159.76C329.417 159.26 329.083 158.76 328.75 158.26C328.583 157.927 328.417 157.76 328.25 157.76C328.25 157.593 328.167 157.343 328 157.01C327.667 156.177 327.167 155.343 326.5 154.51C326 153.51 325.583 152.51 325.25 151.51C324.917 150.177 324.25 149.093 323.25 148.26C322.417 147.427 321.75 146.427 321.25 145.26C320.917 144.593 320.583 143.593 320.25 142.26C320.083 141.927 319.917 141.593 319.75 141.26C319.583 140.76 319.417 140.343 319.25 140.01C319.25 139.51 319.083 139.26 318.75 139.26C318.083 138.927 317.667 138.593 317.5 138.26C317.5 137.76 317.333 137.343 317 137.01C316.833 136.677 316.667 136.427 316.5 136.26C316.5 135.927 316.417 135.593 316.25 135.26C315.917 134.927 315.583 134.593 315.25 134.26C315.083 133.927 314.833 133.51 314.5 133.01C314.667 133.343 314.667 133.677 314.5 134.01C314.5 134.343 314.583 134.677 314.75 135.01C315.25 136.01 315.667 137.01 316 138.01C316.5 139.01 317 140.01 317.5 141.01L318.25 142.51C318.417 142.843 318.333 143.177 318 143.51C317.667 144.51 317.667 145.26 318 145.76C318.167 145.76 318.25 145.927 318.25 146.26C317.917 147.093 317.917 147.843 318.25 148.51C318.75 149.177 319.167 149.843 319.5 150.51C319.667 150.843 319.833 151.177 320 151.51C320.167 151.677 320.083 151.927 319.75 152.26C319.75 152.427 319.917 152.843 320.25 153.51C320.75 154.177 320.583 154.843 319.75 155.51C317.917 156.843 316.5 156.927 315.5 155.76C315 155.427 314.583 155.01 314.25 154.51C313.917 153.843 313.583 153.26 313.25 152.76C312.75 151.927 312.25 151.01 311.75 150.01C311.417 149.01 311 148.093 310.5 147.26C309.833 146.26 309.333 145.26 309 144.26C308.667 143.26 308.167 142.343 307.5 141.51C307 140.677 306.583 139.843 306.25 139.01C306.083 138.177 305.583 137.51 304.75 137.01C304.417 136.843 304.25 136.593 304.25 136.26C304.25 135.76 304.167 135.343 304 135.01C303.667 134.343 303.25 133.76 302.75 133.26C302.417 132.593 302 131.843 301.5 131.01C301 130.177 300.5 129.343 300 128.51C299.667 127.677 299.25 126.843 298.75 126.01C298.417 125.343 298.083 124.927 297.75 124.76C297.083 124.26 296.667 123.677 296.5 123.01C296.333 122.343 296.083 121.593 295.75 120.76C295.75 120.427 295.583 120.093 295.25 119.76H295C294.833 119.593 294.833 119.51 295 119.51C295.167 118.677 295 118.01 294.5 117.51C294 117.01 293.583 116.51 293.25 116.01C292.75 115.343 292.333 114.677 292 114.01C291.833 113.343 291.417 112.677 290.75 112.01C289.917 111.177 289.25 110.26 288.75 109.26C288.417 108.093 288 106.927 287.5 105.76C287.333 105.427 287.25 105.093 287.25 104.76C287.417 104.26 287.5 103.843 287.5 103.51C288.167 103.843 288.667 104.01 289 104.01C289 103.677 289 103.427 289 103.26C289.167 103.093 289.25 102.843 289.25 102.51C289.417 102.677 289.5 102.76 289.5 102.76C289.667 102.76 289.833 102.843 290 103.01C290.333 103.343 290.5 103.76 290.5 104.26C290.667 104.76 290.917 105.177 291.25 105.51C291.583 106.177 291.917 106.843 292.25 107.51C292.583 108.01 292.917 108.593 293.25 109.26L294 110.76C294.333 111.593 294.5 112.343 294.5 113.01C294.667 113.51 294.917 114.177 295.25 115.01L295.75 115.51C296.583 116.343 297.167 117.593 297.5 119.26C297.833 119.76 298.083 120.26 298.25 120.76C298.417 121.093 298.667 121.51 299 122.01C299.333 122.677 299.667 123.343 300 124.01C300.333 124.51 300.667 125.093 301 125.76C301.333 126.093 301.583 126.427 301.75 126.76C302.25 127.26 303 128.177 304 129.51C304.833 130.343 305.5 131.26 306 132.26C306.333 132.76 306.5 133.26 306.5 133.76C306.667 134.26 306.917 134.677 307.25 135.01C307.417 135.343 307.833 135.677 308.5 136.01C308.667 136.01 308.75 135.927 308.75 135.76C308.417 135.427 308.25 135.177 308.25 135.01C308.083 134.677 308 134.26 308 133.76C308 133.427 307.917 133.26 307.75 133.26C307.75 133.093 307.75 132.927 307.75 132.76C307.417 132.26 307.167 131.76 307 131.26C307 130.76 306.833 130.343 306.5 130.01L305.75 128.51C305.417 127.843 305.167 127.177 305 126.51C305 125.843 304.833 125.26 304.5 124.76C304.167 123.76 303.75 122.843 303.25 122.01C302.917 121.01 302.583 120.01 302.25 119.01C301.917 118.177 301.583 117.26 301.25 116.26C300.917 115.26 300.583 114.26 300.25 113.26C299.917 112.427 299.583 111.677 299.25 111.01C298.917 110.343 298.583 109.593 298.25 108.76C297.917 108.427 297.667 108.01 297.5 107.51C297.5 107.01 297.333 106.51 297 106.01C297 105.677 296.75 105.26 296.25 104.76C295.917 103.927 295.5 103.177 295 102.51C294.5 101.843 294.083 101.177 293.75 100.51C293.583 100.177 293.417 99.9266 293.25 99.7599C293.083 99.5932 292.917 99.3432 292.75 99.0099C292.083 98.0099 292 97.1766 292.5 96.5099C292.167 95.6766 291.583 95.0932 290.75 94.7599C290.083 94.2599 289.917 93.4266 290.25 92.2599C289.417 92.2599 288.917 92.0099 288.75 91.5099C288.75 91.0099 288.583 90.5932 288.25 90.2599C288.083 89.7599 287.833 89.1766 287.5 88.5099C287.167 87.8432 286.833 87.2599 286.5 86.7599C286.167 86.2599 285.833 85.7599 285.5 85.2599L284.75 83.7599C284.583 83.5932 284.5 83.4265 284.5 83.2599C284.5 83.0932 284.417 82.9266 284.25 82.7599C283.75 81.9265 283.583 81.5099 283.75 81.5099C283.25 81.5099 282.917 81.4265 282.75 81.2599C282.75 80.9265 282.667 80.5932 282.5 80.2599C282.167 79.9266 281.917 79.6765 281.75 79.5099C281.583 79.1765 281.333 78.8432 281 78.5099C280.833 78.5099 280.75 78.5932 280.75 78.7599C280.75 78.7599 280.667 78.7599 280.5 78.7599C280.667 79.4265 280.75 80.0932 280.75 80.7599C280.917 81.4265 281.083 82.1765 281.25 83.0099C280.417 82.6766 279.75 82.0932 279.25 81.2599C278.917 80.4265 278.917 79.8432 279.25 79.5099C278.75 78.6765 278.333 78.0099 278 77.5099C277.667 76.8432 277.333 76.1765 277 75.5099C276.833 75.5099 276.75 75.5932 276.75 75.7599C276.75 75.7599 276.667 75.7599 276.5 75.7599C276.667 76.5932 276.75 77.5099 276.75 78.5099C276.917 79.3432 277.083 80.2599 277.25 81.2599C276.25 80.9265 275.917 81.2599 276.25 82.2599C276.25 82.7599 276.167 83.2599 276 83.7599C275.833 84.0932 275.75 84.5099 275.75 85.0099C275.583 85.1765 275.5 85.3432 275.5 85.5099C275.5 85.5099 275.417 85.5932 275.25 85.7599H274C273.833 86.5932 273.667 87.3432 273.5 88.0099C273.5 88.6765 273.5 89.4265 273.5 90.2599C273.5 90.5932 273.417 90.9266 273.25 91.2599C273.25 91.4265 273.333 91.6765 273.5 92.0099C273.833 92.5099 273.917 93.0099 273.75 93.5099C273.583 94.0099 273.417 94.5099 273.25 95.0099C273.083 95.6765 273 96.3432 273 97.0099C273.167 97.6766 273.25 98.3432 273.25 99.0099C273.25 99.3432 273.333 99.5932 273.5 99.7599C273.667 99.7599 273.75 99.8432 273.75 100.01H274.25C274.25 99.5099 274.25 99.0099 274.25 98.5099C274.417 97.8432 274.5 97.2599 274.5 96.7599H274.25C274.417 96.4266 274.583 96.1766 274.75 96.0099C274.917 95.8432 275.167 95.5932 275.5 95.2599C275.5 97.4265 275.417 98.9265 275.25 99.7599C275.25 100.093 275.333 100.343 275.5 100.51C275.5 101.177 275.25 101.593 274.75 101.76C275.083 102.427 275.167 103.01 275 103.51C275 103.677 274.833 103.76 274.5 103.76C274.333 103.76 274.167 103.843 274 104.01C273.667 104.177 273.417 104.343 273.25 104.51C273.25 104.51 273.083 104.593 272.75 104.76C272.75 104.927 272.75 105.01 272.75 105.01C272.917 105.01 273 105.093 273 105.26C273.333 104.927 273.667 104.76 274 104.76C274.833 104.26 275.25 104.427 275.25 105.26C275.25 106.593 274.833 107.427 274 107.76C274.167 107.927 274.25 108.093 274.25 108.26C274.417 108.427 274.667 108.677 275 109.01C274.667 109.343 274.333 109.593 274 109.76C273.667 109.927 273.333 110.177 273 110.51L272.75 110.26V111.76C272.75 112.593 273.083 113.01 273.75 113.01L274.25 113.51H271.75C272.083 114.177 272.333 114.593 272.5 114.76C272.833 115.093 273 115.427 273 115.76C273 116.093 273.25 116.26 273.75 116.26C273.75 116.76 273.75 117.343 273.75 118.01C273.917 118.51 274 119.01 274 119.51V120.51C274 121.177 274.083 121.76 274.25 122.26C274.417 122.76 274.417 123.26 274.25 123.76C273.75 126.76 273.583 129.593 273.75 132.26C273.75 132.927 273.667 133.593 273.5 134.26C273.333 134.927 273.167 135.593 273 136.26C272.833 137.427 272.667 138.51 272.5 139.51C272.333 140.51 272.167 141.51 272 142.51C272 142.843 272 143.177 272 143.51C272.167 143.843 272.25 144.177 272.25 144.51C272.25 145.177 272.167 145.76 272 146.26C272 146.76 272 147.26 272 147.76C272 148.093 272 148.427 272 148.76C272.167 148.927 272.25 149.177 272.25 149.51C272.417 150.343 272.5 151.177 272.5 152.01C272.5 152.843 272.5 153.677 272.5 154.51C272.667 155.51 272.833 156.51 273 157.51C273.167 158.51 273.25 159.427 273.25 160.26C273.417 161.093 273.417 161.927 273.25 162.76C273.25 163.427 273.25 164.177 273.25 165.01C273.25 165.343 272.917 165.677 272.25 166.01C271.25 166.343 271 167.093 271.5 168.26C271.5 168.593 271.417 168.927 271.25 169.26C271.25 169.427 271.25 169.677 271.25 170.01V172.26C271.083 172.593 270.833 173.26 270.5 174.26C270.5 174.927 270.417 175.593 270.25 176.26C270.25 176.76 270.25 177.343 270.25 178.01C270.083 178.843 269.833 179.677 269.5 180.51C269.167 181.343 268.583 181.927 267.75 182.26C267.25 182.593 266.583 182.593 265.75 182.26C264.917 181.927 264.417 181.427 264.25 180.76C264.083 179.927 263.917 179.177 263.75 178.51C263.75 177.677 263.667 176.843 263.5 176.01C263.5 175.177 263.5 174.343 263.5 173.51C263.5 172.51 263.417 171.593 263.25 170.76C263.25 170.093 263.167 169.51 263 169.01C263 168.51 263 167.927 263 167.26V166.76C263.333 165.76 263.167 164.76 262.5 163.76C262 162.76 262 161.593 262.5 160.26C262.667 159.927 262.75 159.26 262.75 158.26C262.75 157.427 262.833 156.843 263 156.51C263.167 155.177 263.333 153.843 263.5 152.51C263.667 151.01 263.583 149.51 263.25 148.01C263.25 147.177 263.333 146.427 263.5 145.76C263.667 145.093 263.75 144.427 263.75 143.76V135.76C263.917 134.927 264 133.843 264 132.51C264 132.177 264.083 131.927 264.25 131.76C264.417 131.427 264.5 131.177 264.5 131.01C264 130.177 263.833 129.343 264 128.51C264.167 127.677 264.25 126.843 264.25 126.01C264.417 125.51 264.417 125.01 264.25 124.51C264.25 123.843 264.25 123.26 264.25 122.76C264.417 121.427 264.5 120.177 264.5 119.01C264.5 117.843 264.5 116.593 264.5 115.26C264.667 113.927 264.75 112.677 264.75 111.51C264.75 110.343 264.833 109.093 265 107.76C265.333 106.093 265.417 104.51 265.25 103.01C265.25 101.343 265.167 99.6766 265 98.0099C265 97.8432 265 97.7599 265 97.7599C265.167 97.5932 265.25 97.4266 265.25 97.2599C265.583 96.7599 265.583 96.2599 265.25 95.7599C265.083 95.2599 265 94.7599 265 94.2599V88.2599C264.667 86.5932 264.5 85.4265 264.5 84.7599V79.2599V72.0099C264.5 70.5099 264.417 69.3432 264.25 68.5099C264.25 66.8432 264.333 65.2599 264.5 63.7599C264.667 62.0932 264.917 60.4265 265.25 58.7599C265.25 57.4265 265.333 56.5099 265.5 56.0099V55.5099C266 54.6765 266.167 53.9265 266 53.2599C266 52.4265 265.917 51.5932 265.75 50.7599C265.417 49.0932 264.917 48.0099 264.25 47.5099C263.417 46.5099 262.667 46.5099 262 47.5099C261.833 47.6765 261.75 47.7599 261.75 47.7599C261.083 47.2599 260.667 46.6765 260.5 46.0099C260.5 45.3432 260.5 44.6765 260.5 44.0099C260.5 44.0099 260.5 43.7599 260.5 43.2599C261.333 42.7599 262 42.2599 262.5 41.7599C263 41.0932 263.667 40.6765 264.5 40.5099H265.25C265.75 40.8432 266.083 40.5932 266.25 39.7599C266.583 38.5932 267.167 37.5932 268 36.7599C269.167 35.2599 270.583 35.0932 272.25 36.2599C272.583 37.5932 272.75 38.6765 272.75 39.5099C272.75 40.3432 272.583 41.5932 272.25 43.2599C272.25 44.0932 272.5 44.7599 273 45.2599C273.833 45.9265 274.667 46.6765 275.5 47.5099C276.333 48.1765 277 49.0932 277.5 50.2599C277.833 51.0932 278.25 51.8432 278.75 52.5099C279.417 53.0099 280 53.6765 280.5 54.5099C281 55.3432 281.417 56.2599 281.75 57.2599C282.25 58.0932 282.667 58.9265 283 59.7599C283.5 60.5932 283.917 61.5932 284.25 62.7599C284.75 63.7599 285.25 64.6765 285.75 65.5099C286.25 66.3432 286.5 67.1765 286.5 68.0099C286.667 68.6765 287.083 69.3432 287.75 70.0099C287.917 70.0099 288 70.2599 288 70.7599C288.167 71.0932 288.25 71.4265 288.25 71.7599C288.25 71.9265 288.333 72.1765 288.5 72.5099C289.167 73.1765 289.5 73.8432 289.5 74.5099C289.667 75.1766 289.833 75.9266 290 76.7599C290.333 77.7599 290.5 78.3432 290.5 78.5099C290.833 79.1765 291.333 80.3432 292 82.0099C292.333 82.5099 292.583 83.0099 292.75 83.5099C293.083 84.0099 293.417 84.5932 293.75 85.2599C294.083 85.5932 294.333 85.9265 294.5 86.2599C295 87.2599 295.5 88.3432 296 89.5099C296.5 90.5099 297 91.5099 297.5 92.5099C297.833 93.1766 298.167 94.0099 298.5 95.0099C298.833 95.8432 299.167 96.5932 299.5 97.2599C299.833 97.7599 300.167 98.4266 300.5 99.2599C300.833 99.9265 301.25 100.593 301.75 101.26C302.25 101.76 302.667 102.427 303 103.26C303.667 104.593 304.25 105.843 304.75 107.01C305.25 108.177 305.917 109.427 306.75 110.76C307.083 111.26 307.417 111.76 307.75 112.26C308.083 112.76 308.333 113.26 308.5 113.76C308.833 114.593 309.25 115.26 309.75 115.76C310.25 116.26 310.75 116.843 311.25 117.51C311.417 117.843 311.5 118.26 311.5 118.76C311.667 119.26 311.917 119.677 312.25 120.01C313.583 122.843 315 125.677 316.5 128.51C316.833 129.343 317.25 130.177 317.75 131.01C318.25 131.677 318.667 132.427 319 133.26C319.333 133.76 319.5 134.26 319.5 134.76C319.667 135.26 319.917 135.76 320.25 136.26C320.583 136.927 320.917 137.593 321.25 138.26C321.75 138.927 322.167 139.593 322.5 140.26C322.833 140.927 323.167 141.593 323.5 142.26C324 142.76 324.417 143.427 324.75 144.26C325.083 144.927 325.417 145.677 325.75 146.51C326.083 147.177 326.417 147.843 326.75 148.51C327.583 149.51 328.25 150.677 328.75 152.01C329.25 153.177 329.917 154.26 330.75 155.26C331.583 156.093 332.167 157.01 332.5 158.01C333 158.843 333.5 159.677 334 160.51C334.333 161.177 334.5 161.593 334.5 161.76C335.167 161.26 335.333 160.593 335 159.76C334.5 157.593 334.333 155.593 334.5 153.76V153.51C334.333 152.177 334.25 150.927 334.25 149.76C334.417 148.593 334.583 147.427 334.75 146.26C334.917 145.76 334.917 145.343 334.75 145.01C334.583 144.51 334.667 144.093 335 143.76C335 143.093 334.917 142.51 334.75 142.01C334.75 141.51 334.833 141.01 335 140.51C335.5 138.843 335.5 137.093 335 135.26C335 134.927 335 134.593 335 134.26C335.167 133.927 335.25 133.593 335.25 133.26C335.25 132.427 335.167 131.677 335 131.01C335 130.343 335 129.593 335 128.76C335.167 127.927 335.25 127.177 335.25 126.51C335.417 125.677 335.583 124.843 335.75 124.01V122.01V115.51C335.917 114.177 336 112.843 336 111.51C336 110.177 336 108.843 336 107.51C336 106.177 336 104.927 336 103.76C336 102.593 335.833 101.343 335.5 100.01C335.167 97.8432 335 95.6765 335 93.5099C335.167 91.3432 335.083 89.1765 334.75 87.0099C334.25 86.5099 334.25 86.2599 334.75 86.2599C335.083 85.9265 335.167 85.6765 335 85.5099C335 85.1765 335 84.8432 335 84.5099C334.833 83.1766 334.75 81.9266 334.75 80.7599C334.75 79.4265 334.667 78.0932 334.5 76.7599C334.5 76.0932 334.333 75.2599 334 74.2599V71.0099V69.0099V64.7599V61.2599V52.7599V50.0099C334 49.1766 333.917 48.5099 333.75 48.0099C333.75 47.3432 333.75 46.6765 333.75 46.0099V45.2599C334.083 44.2599 334.25 43.2599 334.25 42.2599C334.25 41.2599 334.25 40.2599 334.25 39.2599C334.25 38.5932 334.25 38.0099 334.25 37.5099C334.417 37.0099 334.583 36.4265 334.75 35.7599V32.0099C334.75 30.1765 334.917 28.8432 335.25 28.0099C335.583 27.3432 335.75 26.7599 335.75 26.2599C335.75 25.5932 335.833 24.9265 336 24.2599C336.333 23.0932 336.667 22.0099 337 21.0099C337.333 20.0099 337.667 19.0099 338 18.0099C338.5 16.6765 339.667 16.0099 341.5 16.0099C341.833 16.1765 342 16.2599 342 16.2599C342.167 16.2599 342.25 16.2599 342.25 16.2599C342.25 16.0932 342.417 16.0099 342.75 16.0099ZM338.75 29.5099C338.417 30.1765 338.25 30.4266 338.25 30.2599L337.5 34.7599C337.333 36.2599 337.083 37.7599 336.75 39.2599C336.417 40.7599 336.417 42.2599 336.75 43.7599V44.0099C336.583 44.8432 336.417 45.7599 336.25 46.7599C336.25 47.7599 336.25 48.6765 336.25 49.5099V54.7599C336.25 55.2599 336.25 55.7599 336.25 56.2599C336.417 56.7599 336.5 57.1766 336.5 57.5099C336.333 58.3432 336.25 59.1765 336.25 60.0099C336.25 60.6765 336.25 61.4265 336.25 62.2599C336.083 63.0932 336 64.0099 336 65.0099C336 66.0099 336 66.9265 336 67.7599C336 68.4265 336.167 69.0099 336.5 69.5099C336.833 70.0099 336.75 70.5932 336.25 71.2599C336.417 71.5932 336.5 71.7599 336.5 71.7599C336.5 72.0932 336.5 72.4265 336.5 72.7599C336.667 72.9265 336.75 73.1765 336.75 73.5099C336.75 73.8432 336.667 74.2599 336.5 74.7599C336.5 75.0932 336.5 75.4265 336.5 75.7599C336.5 76.5932 336.5 77.5099 336.5 78.5099C336.667 79.5099 336.75 80.4265 336.75 81.2599C336.917 82.5932 337 83.8432 337 85.0099C337 86.1765 337.083 87.4265 337.25 88.7599C337.417 88.4266 337.5 88.0099 337.5 87.5099C337.667 86.6765 337.75 85.8432 337.75 85.0099C337.75 84.0099 337.75 83.0099 337.75 82.0099C337.75 81.3432 337.833 80.7599 338 80.2599C338.167 79.7599 338.25 79.1765 338.25 78.5099C338.25 77.6766 338.167 76.8432 338 76.0099C338 75.1765 337.917 74.3432 337.75 73.5099C337.583 72.8432 337.5 71.8432 337.5 70.5099C337.667 69.6766 337.833 68.9266 338 68.2599C338.167 67.5932 338.333 66.8432 338.5 66.0099C338.667 65.0099 338.75 64.0099 338.75 63.0099C338.917 61.8432 339.083 60.7599 339.25 59.7599C339.417 58.7599 339.417 57.7599 339.25 56.7599C339.25 55.5932 339.25 54.5099 339.25 53.5099C339.25 52.0099 339.25 50.5099 339.25 49.0099C339.417 47.3432 339.5 45.7599 339.5 44.2599V37.0099C339.5 36.0099 339.583 35.4265 339.75 35.2599C340.083 34.5932 340.083 33.6765 339.75 32.5099C339.75 32.3432 339.667 32.2599 339.5 32.2599C339.5 32.0932 339.5 31.9265 339.5 31.7599C339.833 31.2599 339.833 30.8432 339.5 30.5099C339.333 30.1765 339.083 29.8432 338.75 29.5099ZM270.75 68.2599V82.5099L271 82.7599C271.333 82.4265 271.5 82.1765 271.5 82.0099C271.667 81.1766 271.75 80.4266 271.75 79.7599C271.75 79.0932 271.833 78.3432 272 77.5099C272 76.1766 272 75.0099 272 74.0099C272.167 72.8432 272.333 71.6765 272.5 70.5099C272.5 69.1765 271.917 68.4265 270.75 68.2599ZM281.75 66.2599C281.083 64.9265 280.417 63.6765 279.75 62.5099C279.25 61.3432 278.667 60.1765 278 59.0099H277.75C277.083 60.5099 277.083 61.7599 277.75 62.7599C278.25 63.4266 278.75 64.0099 279.25 64.5099C279.917 65.0099 280.583 65.5932 281.25 66.2599H281.75ZM313.5 130.76C314 130.093 314.083 129.593 313.75 129.26C313.583 128.76 313.333 128.343 313 128.01C312.167 127.343 311.583 126.26 311.25 124.76C310.75 123.093 310 122.177 309 122.01C309.333 122.343 309.5 122.677 309.5 123.01C309.667 123.843 309.917 124.593 310.25 125.26C310.583 125.76 310.917 126.343 311.25 127.01C311.583 127.677 311.917 128.26 312.25 128.76C312.75 129.26 313.167 129.927 313.5 130.76ZM271.75 83.5099H271.25C271.083 83.8432 270.917 84.5099 270.75 85.5099C270.583 86.5099 270.417 87.5932 270.25 88.7599C270.25 89.7599 270.25 90.8432 270.25 92.0099C270.417 93.0099 270.583 93.5932 270.75 93.7599C270.917 91.9265 271 90.2599 271 88.7599C271.167 87.0932 271.417 85.3432 271.75 83.5099ZM292.25 90.2599C292.25 89.4265 292 88.7599 291.5 88.2599C291.167 87.5932 290.833 86.9265 290.5 86.2599C290.167 85.9265 289.833 85.5932 289.5 85.2599C289.333 84.7599 289 84.5932 288.5 84.7599C289.167 85.7599 289.75 86.7599 290.25 87.7599C290.75 88.5932 291.417 89.4265 292.25 90.2599ZM307 118.01C307.167 117.843 307.333 117.76 307.5 117.76L304.5 112.51L304.25 112.76C304.417 113.26 304.583 113.76 304.75 114.26C304.917 114.593 305.083 115.01 305.25 115.51C305.583 115.843 305.833 116.26 306 116.76C306.333 117.26 306.667 117.677 307 118.01ZM288.75 104.51C288.583 104.677 288.417 104.76 288.25 104.76C288.583 105.593 289 106.343 289.5 107.01C290 107.677 290.417 108.427 290.75 109.26C290.917 109.093 291 109.01 291 109.01C290.667 107.343 289.917 105.843 288.75 104.51ZM270.75 99.2599C270.917 99.2599 271 99.3432 271 99.5099C271 98.0099 271.083 96.8432 271.25 96.0099H270.75V99.2599ZM267 165.01V167.76C267.667 167.26 268 166.927 268 166.76C268 166.427 267.667 165.843 267 165.01ZM282.75 87.0099C283.417 86.8432 283.667 87.0099 283.5 87.5099C283.333 87.6765 283.25 87.8432 283.25 88.0099C283.25 88.1766 283.167 88.4266 283 88.7599C283.333 88.9265 283.583 89.0099 283.75 89.0099C283.917 89.0099 284.167 89.0932 284.5 89.2599C284.667 89.5932 284.75 89.8432 284.75 90.0099C284.917 90.0099 285.083 90.1766 285.25 90.5099C285.417 90.8432 285.5 91.1765 285.5 91.5099C285.5 91.6766 285.583 91.9266 285.75 92.2599C285.75 92.4266 285.667 92.5932 285.5 92.7599C285.5 92.7599 285.5 92.8432 285.5 93.0099C285.167 93.0099 284.917 92.9265 284.75 92.7599C284.083 91.4265 283.417 90.1765 282.75 89.0099C282.083 87.6765 281.417 86.3432 280.75 85.0099L281 84.7599C282 85.0932 282.75 85.4265 283.25 85.7599C282.917 86.4265 282.75 86.8432 282.75 87.0099ZM288 97.7599C288.167 98.0932 288.333 98.4266 288.5 98.7599C288.667 99.0932 288.833 99.4266 289 99.7599C289 100.427 289.167 101.093 289.5 101.76C288.5 101.76 287.833 101.427 287.5 100.76C287.167 99.9265 287.333 98.9265 288 97.7599ZM274.75 92.2599C274.75 91.0932 274.833 90.2599 275 89.7599C275.667 91.4266 275.583 92.2599 274.75 92.2599ZM281 93.2599C281 92.5932 280.917 92.0932 280.75 91.7599C280.75 91.2599 280.75 90.7599 280.75 90.2599C281.917 91.0932 282 92.0932 281 93.2599ZM431.75 186.51C431.083 186.843 430.667 187.01 430.5 187.01C429.333 187.01 428.167 187.01 427 187.01C426 187.01 424.917 186.927 423.75 186.76C422.75 186.593 421.75 186.427 420.75 186.26C419.75 186.093 418.75 185.843 417.75 185.51C417.583 185.343 417.417 185.177 417.25 185.01C417.25 184.843 417.083 184.593 416.75 184.26H412.75C412.25 184.093 411.667 184.093 411 184.26C410.5 184.26 410 184.177 409.5 184.01C408.5 183.843 407.5 183.927 406.5 184.26C405.5 184.593 404.417 184.843 403.25 185.01C402.25 185.177 401.25 185.343 400.25 185.51C399.25 185.51 398.25 185.51 397.25 185.51C395.75 185.343 394.25 185.26 392.75 185.26C391.417 185.093 390 184.843 388.5 184.51C387.333 184.343 386 183.927 384.5 183.26C383.667 182.927 383.167 182.26 383 181.26C383 180.26 383.417 179.51 384.25 179.01C384.583 178.677 384.833 178.427 385 178.26C385.333 178.093 385.667 177.843 386 177.51C386.667 177.177 386.833 176.677 386.5 176.01C386.167 175.177 386.333 174.427 387 173.76C387.667 172.927 388.417 172.593 389.25 172.76C390.583 172.76 391.75 172.76 392.75 172.76C393.917 172.76 395.083 172.843 396.25 173.01C397.083 173.01 397.75 173.093 398.25 173.26C398.917 173.427 399.583 173.593 400.25 173.76C400.75 173.927 401.167 174.01 401.5 174.01C402 174.01 402.5 174.093 403 174.26C403.833 174.427 404.5 174.677 405 175.01C405.667 175.177 406.417 175.343 407.25 175.51L411 176.26C412.167 176.427 413.25 176.593 414.25 176.76C415.25 176.76 416.333 176.843 417.5 177.01H424.75H428.5C429.167 176.843 429.75 176.76 430.25 176.76C430.75 176.593 431.333 176.427 432 176.26C432.333 176.093 432.667 176.01 433 176.01C433.333 176.01 433.667 175.927 434 175.76C435.5 175.26 436.917 174.76 438.25 174.26C439.75 173.593 441.25 173.01 442.75 172.51C443.083 172.343 443.333 172.177 443.5 172.01C443.667 171.843 443.917 171.677 444.25 171.51C444.917 171.177 445.583 171.01 446.25 171.01C446.583 170.843 446.75 170.76 446.75 170.76C447.583 170.26 448.417 169.843 449.25 169.51C450.083 169.01 450.917 168.51 451.75 168.01C452.417 167.677 453.583 167.177 455.25 166.51C455.75 166.343 456.5 165.927 457.5 165.26C458.333 164.76 459.167 164.26 460 163.76C460.833 163.26 461.667 162.677 462.5 162.01C463 161.677 463.333 161.26 463.5 160.76C463.833 160.093 464.167 159.51 464.5 159.01C465.167 158.177 465.583 157.26 465.75 156.26C466.083 155.093 466.333 154.01 466.5 153.01C466.833 151.677 467.083 150.427 467.25 149.26C467.583 148.093 467.583 146.843 467.25 145.51C467.25 144.677 467.083 143.927 466.75 143.26C465.417 140.593 463.917 138.51 462.25 137.01C462.083 136.677 461.917 136.427 461.75 136.26C461.583 136.093 461.417 135.843 461.25 135.51C460.25 134.343 459.25 133.26 458.25 132.26C457.25 131.093 456.167 130.01 455 129.01C453.833 127.843 452.583 126.76 451.25 125.76C450.083 124.593 448.75 123.593 447.25 122.76C446.25 122.26 445.167 121.76 444 121.26C443 120.76 442 120.177 441 119.51C440.333 119.01 439.167 118.593 437.5 118.26C436.5 117.927 435.5 117.593 434.5 117.26C433.5 116.76 432.417 116.343 431.25 116.01C430.083 115.677 429 115.51 428 115.51C427 115.343 425.917 115.177 424.75 115.01C423.583 114.677 422.417 114.427 421.25 114.26C420.25 113.927 419.167 113.593 418 113.26C417 112.927 415.917 112.677 414.75 112.51C413.75 112.177 412.833 111.76 412 111.26C410.667 110.593 409.333 109.927 408 109.26C406.667 108.427 405.333 107.593 404 106.76L395 100.01C394.667 99.8432 394.417 99.6766 394.25 99.5099C394.083 99.1765 393.833 98.8432 393.5 98.5099C393 98.1766 392.25 97.5099 391.25 96.5099C390.083 95.6766 389.167 94.6766 388.5 93.5099C388.167 93.0099 387.667 92.5932 387 92.2599C386.333 91.7599 385.75 91.2599 385.25 90.7599C384.583 89.9266 384 89.1766 383.5 88.5099C383 87.8432 382.5 87.0932 382 86.2599C380.833 84.7599 380 83.3432 379.5 82.0099C379.167 81.0099 378.917 80.0099 378.75 79.0099C378.75 78.0099 378.583 77.0099 378.25 76.0099C378.25 75.5099 378.25 75.2599 378.25 75.2599C377.75 74.4265 377.5 73.5932 377.5 72.7599C377.5 71.7599 377.583 70.8432 377.75 70.0099C377.917 68.8432 378 67.7599 378 66.7599C378 65.7599 378.083 64.7599 378.25 63.7599C378.417 63.4265 378.5 63.1765 378.5 63.0099C378.5 62.6765 378.583 62.3432 378.75 62.0099C379.083 60.6765 379.417 59.3432 379.75 58.0099C380.25 56.6766 380.667 55.3432 381 54.0099C381.333 53.1765 381.75 52.4265 382.25 51.7599C382.75 51.0932 383.167 50.3432 383.5 49.5099C383.833 48.6765 384.25 47.9265 384.75 47.2599C385.417 46.5932 385.75 45.7599 385.75 44.7599C385.75 44.4266 385.917 44.0932 386.25 43.7599C386.583 43.4265 386.917 43.0932 387.25 42.7599C387.917 42.2599 388.5 41.7599 389 41.2599C389.5 40.7599 390 40.2599 390.5 39.7599C390.833 39.4265 391.083 39.1765 391.25 39.0099C391.583 38.6765 391.917 38.3432 392.25 38.0099C392.583 37.3432 392.917 36.3432 393.25 35.0099C393.417 34.6765 393.5 34.4265 393.5 34.2599C393.5 34.0932 393.583 33.9266 393.75 33.7599C394.083 33.2599 394.5 32.7599 395 32.2599C395.5 31.7599 395.917 31.2599 396.25 30.7599C397.083 29.5932 398.083 28.7599 399.25 28.2599C400.417 27.5932 401.667 27.0932 403 26.7599C403.333 26.5932 403.667 26.4265 404 26.2599C404.333 25.9266 404.667 25.6765 405 25.5099C405.5 25.3432 406 25.1765 406.5 25.0099C407.167 24.8432 407.833 24.6766 408.5 24.5099C409.833 24.1765 410.917 23.9265 411.75 23.7599C412.583 23.4265 413.417 23.1765 414.25 23.0099C415.25 22.6765 416.25 22.4266 417.25 22.2599C418.417 22.0932 419.5 22.0099 420.5 22.0099C421.667 22.0099 422.833 21.9265 424 21.7599C425.167 21.5932 426.333 21.5099 427.5 21.5099C428.667 21.5099 429.833 21.3432 431 21.0099C432.333 20.6765 433.5 20.4265 434.5 20.2599C435.667 19.9265 436.917 19.6765 438.25 19.5099C439.083 19.3432 439.917 19.1765 440.75 19.0099C441.583 18.8432 442.417 18.8432 443.25 19.0099C443.583 19.1765 444 19.1765 444.5 19.0099C445 18.6765 445.417 18.5099 445.75 18.5099C446.583 18.3432 447.333 18.2599 448 18.2599C448.667 18.2599 449.417 18.2599 450.25 18.2599C451.25 18.9265 452.25 19.0932 453.25 18.7599C454.25 18.2599 455.167 18.1765 456 18.5099C456.333 18.6765 456.667 18.7599 457 18.7599C457.5 18.7599 458 18.8432 458.5 19.0099C458 19.6766 457.417 20.0099 456.75 20.0099C456.25 19.8432 455.75 19.6765 455.25 19.5099C454.583 19.5099 453.667 19.9265 452.5 20.7599C453.333 20.9265 454 21.0932 454.5 21.2599C455.167 21.2599 455.833 21.3432 456.5 21.5099C458.333 22.0099 460.083 22.5099 461.75 23.0099C463.583 23.5099 465.417 24.0099 467.25 24.5099C467.917 24.6766 469.083 24.9265 470.75 25.2599C471.583 25.2599 472 25.7599 472 26.7599C472 27.4265 472.167 27.9265 472.5 28.2599C472.833 29.2599 472.75 30.3432 472.25 31.5099C471.917 32.0099 471.583 32.4265 471.25 32.7599C471.083 33.0932 470.833 33.4265 470.5 33.7599C469 36.0932 467 37.5932 464.5 38.2599C463.167 38.7599 461.417 38.8432 459.25 38.5099C457.917 38.5099 457 37.6766 456.5 36.0099H459.75C460.083 36.0099 460.417 36.0099 460.75 36.0099C461.25 35.8432 461.667 35.7599 462 35.7599C462.333 35.5932 462.583 35.5099 462.75 35.5099C463.083 35.3432 463.417 35.1766 463.75 35.0099C464.083 34.6765 464.5 34.3432 465 34.0099C465.5 33.5099 466.083 32.9265 466.75 32.2599C465.917 32.2599 465.25 32.1765 464.75 32.0099C464.417 31.6766 463.917 31.5932 463.25 31.7599C462.583 31.9265 461.917 32.0099 461.25 32.0099C460.583 31.8432 459.917 31.7599 459.25 31.7599C458.417 31.7599 457.667 31.7599 457 31.7599C456.333 31.5932 455.583 31.5099 454.75 31.5099C454.583 31.6766 454.417 31.7599 454.25 31.7599C454.25 31.7599 454.167 31.8432 454 32.0099C452.667 32.3432 451.75 32.1765 451.25 31.5099C449.917 32.1765 448.5 32.7599 447 33.2599C445.667 33.5932 444.25 33.6765 442.75 33.5099C441.75 33.5099 440.75 33.6765 439.75 34.0099C438.75 34.1765 437.75 34.3432 436.75 34.5099C435.917 34.6765 435.167 34.7599 434.5 34.7599C434 34.7599 433.417 34.8432 432.75 35.0099C431.583 35.3432 430.667 35.3432 430 35.0099C429.333 34.8432 429.083 35.1765 429.25 36.0099C428.417 36.1766 427.5 36.2599 426.5 36.2599C425.667 36.2599 424.833 36.4265 424 36.7599C422.667 37.0932 421.417 37.5099 420.25 38.0099C419.25 38.3432 418.083 38.6765 416.75 39.0099C413.75 39.8432 411.083 41.1765 408.75 43.0099C407.917 43.6765 407.083 44.3432 406.25 45.0099C405.417 45.5099 404.75 46.2599 404.25 47.2599C404.083 47.7599 403.5 48.5099 402.5 49.5099C402.333 49.6765 402.167 49.7599 402 49.7599C401.833 49.7599 401.667 49.8432 401.5 50.0099L400 53.0099C399.167 54.3432 398.333 55.6765 397.5 57.0099C396.667 58.3432 396.083 59.7599 395.75 61.2599C395.583 62.2599 395.333 63.2599 395 64.2599C394.833 65.2599 394.667 66.1765 394.5 67.0099C394.167 68.3432 394.333 69.6765 395 71.0099C395.833 72.1766 396.75 73.1766 397.75 74.0099C398.583 74.6766 399.333 75.3432 400 76.0099C400.833 76.5099 401.667 77.0932 402.5 77.7599C403.333 78.4265 404.083 79.0932 404.75 79.7599C405.417 80.4266 406.25 80.9265 407.25 81.2599C407.75 81.4265 408.167 81.6766 408.5 82.0099C408.833 82.1765 409.167 82.4265 409.5 82.7599C410.333 83.2599 411.083 83.6765 411.75 84.0099C412.417 84.3432 413.083 84.6765 413.75 85.0099C415.083 85.8432 416.333 86.6765 417.5 87.5099C418.833 88.1765 420.167 88.9265 421.5 89.7599C422.167 90.2599 423.333 90.8432 425 91.5099C425.833 91.8432 426.667 92.1765 427.5 92.5099C428.5 92.8432 429.417 93.1766 430.25 93.5099C431.083 93.8432 431.833 94.1766 432.5 94.5099C433.167 94.6765 433.917 94.9266 434.75 95.2599C435.417 95.5932 436 95.8432 436.5 96.0099C437 96.1766 437.5 96.3432 438 96.5099C438.667 96.8432 439.333 97.0932 440 97.2599C440.667 97.4266 441.333 97.6766 442 98.0099C443 98.1766 443.917 98.5932 444.75 99.2599C446.083 99.9265 447.5 100.76 449 101.76C449.667 102.093 450.25 102.427 450.75 102.76C451.417 103.093 452.083 103.51 452.75 104.01C453.417 104.343 453.917 104.843 454.25 105.51C454.75 106.01 455.25 106.51 455.75 107.01C456.417 107.51 457 108.01 457.5 108.51C458.167 109.01 458.75 109.51 459.25 110.01H459.75C460.417 111.01 461.083 112.01 461.75 113.01C462.417 113.843 463.083 114.677 463.75 115.51C464.083 115.843 464.333 116.26 464.5 116.76C464.833 117.093 465.167 117.51 465.5 118.01C465.833 118.343 466.167 119.01 466.5 120.01C466.833 120.51 467.167 121.01 467.5 121.51C467.833 121.843 468.167 122.177 468.5 122.51C468.833 122.843 469.083 123.177 469.25 123.51C469.417 123.843 469.667 124.177 470 124.51C470 124.677 470.083 124.843 470.25 125.01C470.583 126.01 471 126.927 471.5 127.76C472.167 128.593 472.75 129.427 473.25 130.26C473.583 130.76 473.917 131.343 474.25 132.01C474.583 132.51 474.667 133.177 474.5 134.01C474.5 134.677 474.667 135.343 475 136.01C475.5 136.51 475.917 137.093 476.25 137.76C476.583 138.093 476.75 138.26 476.75 138.26C476.75 139.593 476.917 140.927 477.25 142.26C477.75 143.427 477.833 144.677 477.5 146.01C477.167 146.843 476.833 147.76 476.5 148.76C476.333 149.76 476.083 150.677 475.75 151.51C475.417 152.343 475.083 153.177 474.75 154.01C474.417 154.677 474.083 155.427 473.75 156.26C473.25 157.26 472.583 158.26 471.75 159.26C471.083 160.093 470.583 161.093 470.25 162.26C469.917 162.76 469.5 163.26 469 163.76C468.667 164.093 468.333 164.51 468 165.01C467.5 165.843 467.083 166.76 466.75 167.76C466.417 168.593 466.083 169.427 465.75 170.26C465.583 170.593 465.417 170.927 465.25 171.26C465.083 171.427 464.917 171.677 464.75 172.01C464.417 172.677 464 173.343 463.5 174.01C463.167 174.677 462.75 175.343 462.25 176.01C461.75 176.51 461.333 176.843 461 177.01C460.333 177.51 459.667 178.01 459 178.51C458.5 178.843 457.917 179.26 457.25 179.76C456.583 180.093 456 180.343 455.5 180.51C454 181.343 452.583 182.01 451.25 182.51L447.5 184.01C446.667 184.343 445.75 184.593 444.75 184.76C443.917 184.927 443.083 185.093 442.25 185.26C440.417 185.76 438.667 186.01 437 186.01C436.833 186.01 436.667 186.093 436.5 186.26C436.5 186.26 436.333 186.26 436 186.26C435.333 186.593 434.167 186.927 432.5 187.26C432.5 187.26 432.25 187.01 431.75 186.51ZM466.75 135.51C466.917 135.343 467.083 135.26 467.25 135.26V134.01C467.083 133.01 466.917 132.01 466.75 131.01C466.75 130.01 466.667 129.093 466.5 128.26C466.5 127.927 466.417 127.76 466.25 127.76C466.083 127.093 465.75 126.427 465.25 125.76C465.083 125.427 465 125.093 465 124.76C465 124.427 464.833 124.093 464.5 123.76C463.667 122.427 462.75 121.177 461.75 120.01C460.75 118.677 459.75 117.343 458.75 116.01C458.083 115.177 457.333 114.427 456.5 113.76C455.833 112.927 455.167 112.093 454.5 111.26C453.333 109.927 452 108.927 450.5 108.26C449 107.427 447.583 106.51 446.25 105.51C445.417 105.01 444.583 104.593 443.75 104.26C442.917 103.76 442.083 103.26 441.25 102.76C440.583 102.427 439.417 101.927 437.75 101.26L431.75 99.0099C430.917 98.6765 430 98.3432 429 98.0099C428.167 97.6766 427.333 97.3432 426.5 97.0099C426.167 97.0099 425.917 96.9265 425.75 96.7599C424.417 96.4266 423 96.0932 421.5 95.7599C420.167 95.4266 418.833 95.0932 417.5 94.7599C417.167 94.7599 416.833 94.7599 416.5 94.7599C416.167 94.5932 415.833 94.5099 415.5 94.5099C414.667 94.1766 413.833 93.9266 413 93.7599C412.333 93.5932 411.583 93.3432 410.75 93.0099C410.083 92.6765 409.417 92.4266 408.75 92.2599C408.083 92.0932 407.417 91.8432 406.75 91.5099C405.083 91.1765 404.083 90.4265 403.75 89.2599C403.417 88.9265 403.083 88.6765 402.75 88.5099C402.417 88.1765 402.167 88.0099 402 88.0099C401.833 87.8432 401.583 87.5932 401.25 87.2599C400.417 86.5932 399.667 85.9265 399 85.2599C398.5 84.5932 397.917 83.9266 397.25 83.2599C397.083 83.0932 396.917 83.0099 396.75 83.0099C396.583 83.0099 396.417 82.9266 396.25 82.7599C396.25 83.0932 396.167 83.3432 396 83.5099C396 83.5099 396 83.6765 396 84.0099C396.667 86.0099 398 87.8432 400 89.5099C400.333 89.6765 400.5 89.8432 400.5 90.0099C400.667 90.1765 400.833 90.3432 401 90.5099L402.25 91.7599C402.417 91.9265 402.833 92.1765 403.5 92.5099C404.5 93.5099 405.25 94.1766 405.75 94.5099C406.917 95.3432 408 96.1766 409 97.0099C410.167 97.6766 411.333 98.4266 412.5 99.2599C413.333 99.9265 414.167 100.593 415 101.26C416 101.927 416.917 102.593 417.75 103.26C418.917 104.093 420 104.843 421 105.51C422.167 106.177 423.25 106.927 424.25 107.76C425.417 108.427 426.5 109.093 427.5 109.76C428.667 110.427 429.917 110.927 431.25 111.26C431.917 111.593 432.333 111.76 432.5 111.76C433 112.093 433.5 112.427 434 112.76C434.5 112.927 435 113.093 435.5 113.26C436.5 113.593 437.5 113.927 438.5 114.26C439.667 114.427 440.75 114.677 441.75 115.01C442.083 115.177 442.333 115.343 442.5 115.51C442.667 115.677 442.917 115.843 443.25 116.01C444.75 116.677 446.167 117.427 447.5 118.26C449 118.927 450.417 119.843 451.75 121.01C452.083 121.343 452.417 121.593 452.75 121.76C453.083 121.76 453.417 121.927 453.75 122.26C454.75 123.093 455.667 124.01 456.5 125.01C457.5 126.01 458.417 126.927 459.25 127.76C459.583 128.093 459.917 128.427 460.25 128.76C460.75 129.093 461.167 129.427 461.5 129.76L464 132.26C464.167 132.427 464.25 132.593 464.25 132.76C464.417 132.927 464.583 133.093 464.75 133.26C465.75 134.26 466.417 135.01 466.75 135.51ZM420.75 110.26C420.75 110.093 420.833 109.927 421 109.76C420.5 109.593 419.917 109.343 419.25 109.01C418.25 108.177 417.25 107.427 416.25 106.76C415.25 106.093 414.333 105.343 413.5 104.51C412.167 103.51 410.75 102.51 409.25 101.51C407.917 100.343 406.583 99.2599 405.25 98.2599C403.917 97.4266 402.667 96.5932 401.5 95.7599C400.5 94.7599 399.333 93.8432 398 93.0099C397 92.1766 396 91.3432 395 90.5099C394 89.6765 393.333 88.5932 393 87.2599C392.833 86.9265 392.667 86.6766 392.5 86.5099C392.333 86.3432 392.25 86.0932 392.25 85.7599C391.917 84.9265 391.583 84.0099 391.25 83.0099C391.083 81.8432 390.833 80.7599 390.5 79.7599V79.2599C390.833 78.9265 390.917 78.3432 390.75 77.5099C390.583 77.1765 390.5 76.6765 390.5 76.0099C390.5 74.3432 390.333 73.1765 390 72.5099C389.667 71.8432 389.333 71.2599 389 70.7599C388.667 70.2599 388.333 69.6765 388 69.0099C386.5 67.3432 386 65.5099 386.5 63.5099C386.833 62.8432 387 62.1765 387 61.5099C387.167 60.6766 387.333 59.8432 387.5 59.0099C387.667 58.8432 387.75 58.6765 387.75 58.5099C387.75 58.3432 387.833 58.1766 388 58.0099C389.167 57.0099 389.75 55.7599 389.75 54.2599C389.75 53.7599 389.75 53.3432 389.75 53.0099C389.917 52.5099 390 52.0099 390 51.5099C390.167 50.6765 390.25 49.5099 390.25 48.0099H389C388.833 48.3432 388.667 48.6765 388.5 49.0099C388.5 49.3432 388.417 49.6765 388.25 50.0099C388.083 50.5099 387.667 50.9265 387 51.2599C386.5 51.5932 386.417 52.1765 386.75 53.0099C386.75 53.5099 386.417 53.9265 385.75 54.2599C385.417 54.4266 385.083 55.0099 384.75 56.0099C384.75 56.5099 384.75 57.0932 384.75 57.7599C384.75 58.2599 384.333 58.6765 383.5 59.0099C383.333 59.1765 383.083 59.4266 382.75 59.7599C382.583 60.0932 382.583 60.3432 382.75 60.5099C383.083 60.8432 383.167 61.2599 383 61.7599C382.833 62.0932 382.75 62.5099 382.75 63.0099C382.75 63.8432 382.583 64.6765 382.25 65.5099C381.917 66.1765 381.917 66.9265 382.25 67.7599V68.5099C381.583 70.5099 381.5 72.6766 382 75.0099C382.333 76.3432 382.667 77.5932 383 78.7599C383.333 79.7599 383.667 80.9265 384 82.2599C384.167 82.5932 384.333 82.9265 384.5 83.2599C384.833 83.5932 385.083 83.9266 385.25 84.2599C385.583 84.5932 385.833 85.0099 386 85.5099C386.167 86.0099 386.417 86.4265 386.75 86.7599C387.083 87.0932 387.417 87.5099 387.75 88.0099C388.083 88.3432 388.417 88.6765 388.75 89.0099C389.083 89.8432 389.417 90.4265 389.75 90.7599C390.25 91.0932 390.75 91.5099 391.25 92.0099C392.917 93.0099 394.417 94.4266 395.75 96.2599C396.25 96.7599 396.667 97.2599 397 97.7599C397.5 98.0932 398.167 98.3432 399 98.5099C398.833 98.5099 399 98.7599 399.5 99.2599C399.833 99.4266 400 99.5932 400 99.7599C400.167 99.9266 400.417 100.177 400.75 100.51C401.417 100.843 402.417 101.51 403.75 102.51C405.917 104.51 408.25 105.927 410.75 106.76C411.417 107.093 412.083 107.343 412.75 107.51C413.417 107.677 414.167 107.927 415 108.26C415.833 108.593 416.75 108.927 417.75 109.26C418.75 109.593 419.75 109.927 420.75 110.26ZM394.25 48.7599H394.5C396 47.5932 397.5 46.5099 399 45.5099C400.667 44.3432 402.25 43.0932 403.75 41.7599C404.25 41.4265 404.667 41.0932 405 40.7599C405.5 40.4265 405.917 40.0932 406.25 39.7599C406.583 39.4265 406.917 39.0099 407.25 38.5099C407.75 38.0099 408.25 37.5932 408.75 37.2599C409.083 36.9265 409.5 36.5932 410 36.2599C410.5 35.9265 411 35.5932 411.5 35.2599C411.833 34.9265 412.083 34.6765 412.25 34.5099C412.583 34.1765 412.917 33.8432 413.25 33.5099C413.583 33.1765 414.083 32.8432 414.75 32.5099C414.583 32.3432 414.5 32.1765 414.5 32.0099C413.667 32.3432 412.833 32.7599 412 33.2599C411.333 33.5932 410.583 33.9266 409.75 34.2599C409.083 34.5932 408.5 34.9265 408 35.2599C407.5 35.4265 407 35.5932 406.5 35.7599C405.167 35.9266 404 36.2599 403 36.7599C402.167 37.2599 401.333 37.8432 400.5 38.5099C399.833 38.8432 399.167 39.2599 398.5 39.7599C398 40.0932 397.5 40.4265 397 40.7599C396.5 41.0932 396.25 41.3432 396.25 41.5099C395.917 42.3432 395.667 43.0932 395.5 43.7599C395.5 44.2599 395.333 44.8432 395 45.5099C394.833 45.8432 394.75 46.2599 394.75 46.7599C394.75 47.0932 394.667 47.4265 394.5 47.7599C394.333 47.9265 394.25 48.2599 394.25 48.7599ZM455.25 27.5099C449.917 27.5099 444.583 27.8432 439.25 28.5099C434.083 29.0099 429 30.4266 424 32.7599C429.333 31.9266 434.583 31.1766 439.75 30.5099C444.917 29.8432 450.083 28.8432 455.25 27.5099ZM442.75 178.26C443.917 178.593 445.333 178.593 447 178.26C448.667 177.76 450.25 177.177 451.75 176.51C453.417 175.677 454.917 174.76 456.25 173.76C457.583 172.593 458.5 171.343 459 170.01C458.667 170.177 458.333 170.26 458 170.26C457.667 170.26 457.333 170.343 457 170.51C456 171.01 455 171.593 454 172.26C453.167 172.927 452.25 173.427 451.25 173.76C449.917 174.26 448.667 174.927 447.5 175.76C446.5 176.427 445.333 177.093 444 177.76C443.833 177.76 443.417 177.927 442.75 178.26ZM413.75 28.0099C413.75 27.8432 413.667 27.6765 413.5 27.5099C413 27.5099 412.583 27.5932 412.25 27.7599C411.917 27.9265 411.5 28.1766 411 28.5099C410.5 28.6765 410.083 28.6765 409.75 28.5099C409.083 28.5099 408.5 28.6765 408 29.0099C407.5 29.1765 407.083 29.3432 406.75 29.5099C405.917 29.8432 405.083 30.2599 404.25 30.7599C403.583 31.2599 402.833 31.6766 402 32.0099C401.667 32.1765 401.417 32.3432 401.25 32.5099C401.25 32.6765 401.167 32.8432 401 33.0099C401 33.1765 401.083 33.2599 401.25 33.2599C402.083 32.9265 402.833 32.6765 403.5 32.5099C404.333 32.1765 405.167 31.8432 406 31.5099C406.833 31.1765 407.667 30.7599 408.5 30.2599C409.333 29.7599 410.25 29.3432 411.25 29.0099C411.583 29.0099 412 28.9265 412.5 28.7599C413 28.4265 413.417 28.1766 413.75 28.0099ZM472.5 142.51C472.833 141.01 472.833 139.76 472.5 138.76C472.333 137.593 471.917 136.843 471.25 136.51C471.25 137.677 471.167 138.76 471 139.76C471 140.76 471.5 141.677 472.5 142.51ZM398.75 179.26C398.417 178.76 397.917 178.427 397.25 178.26C396.583 178.093 396.083 178.177 395.75 178.51C395.583 178.51 395.5 178.677 395.5 179.01C395.667 179.343 395.75 179.51 395.75 179.51C397.083 179.51 398.083 179.427 398.75 179.26ZM403 83.0099C402.833 83.1766 402.75 83.2599 402.75 83.2599C403.083 84.0932 403.5 84.6765 404 85.0099C404.5 85.3432 405.083 85.3432 405.75 85.0099C405.25 84.6765 404.75 84.3432 404.25 84.0099C403.917 83.6765 403.5 83.3432 403 83.0099ZM428.75 183.51V183.26H426.25C426.25 183.427 426.25 183.593 426.25 183.76C426.417 183.76 426.5 183.843 426.5 184.01C427.333 184.01 428.083 183.843 428.75 183.51ZM406 85.5099C405.833 85.6765 405.75 85.8432 405.75 86.0099C406.083 86.1765 406.333 86.2599 406.5 86.2599C406.833 86.2599 407.167 86.3432 407.5 86.5099V86.0099C407.167 85.8432 406.917 85.7599 406.75 85.7599C406.583 85.7599 406.333 85.6765 406 85.5099Z" fill="#FFA0C2"/>
</g>
<defs>
<filter id="filter0_d_40_12" x="0.5" y="0.259888" width="481.5" height="223.5" filterUnits="userSpaceOnUse" color-interpolation-filters="sRGB">
<feFlood flood-opacity="0" result="BackgroundImageFix"/>
<feColorMatrix in="SourceAlpha" type="matrix" values="0 0 0 0 0 0 0 0 0 0 0 0 0 0 0 0 0 0 127 0" result="hardAlpha"/>
<feOffset dy="4"/>
<feGaussianBlur stdDeviation="2"/>
<feComposite in2="hardAlpha" operator="out"/>
<feColorMatrix type="matrix" values="0 0 0 0 0.7875 0 0 0 0 0.7875 0 0 0 0 0.7875 0 0 0 0.25 0"/>
<feBlend mode="normal" in2="BackgroundImageFix" result="effect1_dropShadow_40_12"/>
<feBlend mode="normal" in="SourceGraphic" in2="effect1_dropShadow_40_12" result="shape"/>
</filter>
</defs>
</svg>
