<svg width="123" height="50" viewBox="0 0 123 50" fill="none" xmlns="http://www.w3.org/2000/svg">
<path d="M5.16772 43.9774H3.31006L2.95806 39.99H4.81867L5.16772 43.9774ZM117.737 43.9774H119.597L119.952 39.99H118.092L117.737 43.9774ZM1.85766 39.99H0L0.354967 43.9774H2.21558L1.85766 39.99ZM120.689 43.9774H122.549L122.904 39.99H121.044L120.689 43.9774ZM14.5773 44.9477C14.5905 45.2868 14.5348 45.6252 14.4136 45.9422C14.2924 46.2593 14.1081 46.5484 13.872 46.7923C13.6359 47.0361 13.3528 47.2296 13.0399 47.361C12.7269 47.4924 12.3905 47.5589 12.0511 47.5567C11.7097 47.5549 11.372 47.4847 11.0581 47.3502C10.7443 47.2157 10.4605 47.0197 10.2236 46.7738C9.98677 46.5278 9.8016 46.2369 9.67906 45.9182C9.55651 45.5994 9.49908 45.2594 9.51015 44.9181V44.8915C9.51015 43.4805 10.5188 42.2825 12.0245 42.2825C12.3671 42.2827 12.7061 42.3517 13.0216 42.4854C13.337 42.6192 13.6223 42.8149 13.8607 43.061C14.099 43.3071 14.2856 43.5985 14.4092 43.918C14.5328 44.2375 14.591 44.5786 14.5803 44.921V44.9477M6.68521 44.9477C6.68521 47.7519 8.95699 50 12.0097 50C15.0624 50 17.3786 47.7253 17.3786 44.9181V44.8915C17.3786 42.0843 15.1068 39.8391 12.0541 39.8391C9.00136 39.8391 6.68521 42.1139 6.68521 44.921V44.9477ZM19.109 49.8048H21.863V46.3143H26.5574V44.0662H21.8571V42.4037H27.0544V40.0373H19.1031V49.7989L19.109 49.8048ZM28.6636 49.8048H31.4175V46.3143H36.1179V44.0662H31.4146V42.4037H36.6119V40.0373H28.6576V49.7989L28.6636 49.8048ZM44.3679 49.8048H47.1218V42.4097H50.1035V40.0432H41.3802V42.4097H44.3708V49.8048H44.3679ZM51.9139 49.8048H54.6678V46.0924H58.2175V49.8048H60.9714V40.0432H58.2175V43.6994H54.6678V40.0343H51.9139V49.7959V49.8048ZM62.8261 49.8048H70.8928V47.5005H65.5476V45.9505H70.3189V43.8147H65.5476V42.3357H70.8159V40.0314H62.8291V49.793L62.8261 49.8048ZM78.4595 49.8758H80.8585L82.8463 44.2555L84.8489 49.8758H87.2479L90.5697 40.0343H87.7152L85.9818 45.6872L84.065 40.0048H81.6985L79.7817 45.6872L78.0483 40.0343H75.1346L78.4595 49.8758ZM93.794 45.9534L94.9151 43.1758L96.0214 45.9534H93.7911H93.794ZM89.3777 49.7989H92.2736L92.9835 48.0536H96.829L97.5537 49.7989H100.512L96.2818 39.9574H93.6195L89.3777 49.7989ZM101.801 49.7989H109.371V47.4324H104.564V40.0373H101.81V49.7989H101.801ZM110.903 49.7989H118.473V47.4324H113.666V40.0373H110.912V49.7989H110.903Z" fill="white"/>
<path d="M106.549 15.4499H101.207C100.689 14.1366 100.109 13.116 97.1158 13.116C95.0452 13.116 94.1578 13.9679 94.1578 14.8228C94.1578 15.7576 94.8943 16.5444 97.175 17.0502L102.014 18.3399C105.182 19.186 106.718 21.7003 106.718 24.3566C106.718 25.8357 106.398 27.6105 104.996 29.0895C103.949 30.181 102.363 31.6216 97.1069 31.6216C89.8775 31.6216 87.5021 27.0514 87.5021 24.2916H93.1224C93.6756 26.309 95.06 27.0751 97.7991 27.0751C99.6982 27.0751 101.328 26.3977 101.328 24.9453C101.328 23.5639 100.145 23.0433 98.6215 22.6262L94.7967 21.5938C92.9538 21.0318 91.4127 20.5822 90.3241 19.6622C87.4755 17.2484 87.6826 12.8912 90.7797 10.6253C92.4953 9.37112 94.2524 8.71739 97.0419 8.71739C100.319 8.71739 102.192 9.65214 103.665 10.6697C104.972 11.5571 106.525 13.7402 106.525 15.4618M16.3047 0.0118348C16.3491 0.204108 27.4861 31.3672 27.4861 31.3672H34.1329L44.3707 5.42508H107.969L108.451 0.00296094H39.4988L31.0033 21.4992L23.3685 0H16.3195M71.289 20.1414L79.5893 31.3495H84.7837V9.18476H78.8025V21.2388L71.289 9.18476H65.5504V31.3495H71.289V20.1414ZM108.664 30.1988C108.664 29.9648 108.595 29.736 108.465 29.5414C108.335 29.3469 108.15 29.1952 107.934 29.1056C107.717 29.0161 107.48 28.9927 107.25 29.0383C107.02 29.084 106.81 29.1967 106.644 29.3621C106.479 29.5276 106.366 29.7384 106.32 29.968C106.275 30.1975 106.298 30.4354 106.388 30.6516C106.477 30.8678 106.629 31.0526 106.823 31.1826C107.018 31.3126 107.247 31.382 107.481 31.382C107.637 31.384 107.793 31.3548 107.938 31.2962C108.083 31.2376 108.216 31.1508 108.327 31.0407C108.439 30.9307 108.527 30.7996 108.587 30.655C108.648 30.5105 108.679 30.3554 108.679 30.1988H108.664ZM108.528 30.1988C108.527 30.4047 108.466 30.6059 108.351 30.7768C108.236 30.9477 108.073 31.0807 107.882 31.1589C107.692 31.2372 107.483 31.2572 107.281 31.2165C107.079 31.1757 106.894 31.076 106.748 30.93C106.603 30.784 106.505 30.5982 106.465 30.3961C106.425 30.194 106.447 29.9847 106.526 29.7946C106.605 29.6046 106.739 29.4424 106.911 29.3284C107.082 29.2145 107.284 29.154 107.49 29.1546C107.628 29.1522 107.765 29.1775 107.893 29.2291C108.022 29.2806 108.138 29.3573 108.236 29.4546C108.335 29.5519 108.412 29.6679 108.465 29.7957C108.518 29.9235 108.544 30.0606 108.543 30.1988H108.528ZM108.049 29.9533C108.048 29.8923 108.035 29.8321 108.009 29.7768C107.983 29.7216 107.945 29.6726 107.899 29.6333C107.852 29.5939 107.797 29.5652 107.738 29.5489C107.68 29.5327 107.618 29.5293 107.558 29.5391H107.002V30.7934H107.28V30.3911H107.499L107.765 30.7934H108.087L107.791 30.3437C107.873 30.3178 107.945 30.2654 107.994 30.1948C108.043 30.1242 108.068 30.0393 108.064 29.9533H108.049ZM107.768 29.9681C107.768 29.9949 107.763 30.0214 107.752 30.0458C107.741 30.0702 107.724 30.092 107.704 30.1094C107.684 30.1269 107.66 30.1397 107.634 30.147C107.608 30.1543 107.581 30.1558 107.555 30.1515H107.277V29.7847H107.546C107.574 29.7767 107.604 29.7756 107.633 29.7813C107.662 29.787 107.689 29.7995 107.712 29.8177C107.735 29.8358 107.753 29.8592 107.765 29.8858C107.778 29.9125 107.784 29.9417 107.783 29.971L107.768 29.9681ZM39.6378 31.3495H46.0124L47.1957 27.8826H55.635L56.8567 31.3495H63.1337L55.0996 9.18476H48.3404L39.6378 31.3495ZM48.9853 23.8715L51.4553 16.503L53.8927 23.8715H48.9705H48.9853Z" fill="white"/>
</svg>
