<svg width="527" height="186" viewBox="0 0 527 186" fill="none" xmlns="http://www.w3.org/2000/svg">
<g filter="url(#filter0_d_51_2)">
<path d="M24.7637 146.576C5.01367 139.826 4.51367 28.5763 17.2637 15.8263C18.5137 15.0763 19.7637 14.8263 20.7637 14.8263C23.2637 14.8263 25.7637 16.0763 27.0137 17.3263C27.7637 16.3263 28.2637 16.8263 28.0137 18.0763C28.2637 23.5763 25.2637 26.3263 24.7637 36.8263C22.2637 58.0763 24.0137 104.326 28.2637 123.576C28.2637 92.0763 22.7637 41.8263 31.2637 18.8263C31.7637 21.3263 33.0137 21.5763 33.2637 20.0763C33.2637 18.8263 33.2637 18.8263 35.2637 20.8263C38.2637 23.3263 38.5137 25.0763 37.7637 34.8263C36.5137 53.5763 35.5137 85.5763 37.2637 97.8263C44.0137 81.5763 77.0137 0.0762874 94.0137 0.0762874C96.2637 0.0762874 98.2637 1.32629 99.7637 4.57629C100.014 4.57629 100.264 4.82629 100.264 5.07628C100.264 6.07628 103.264 3.57629 101.764 5.57629C101.014 5.57629 101.514 9.07629 100.764 9.57628C83.0137 31.5763 48.0137 95.5763 40.5137 129.576C60.5137 86.0763 81.2637 38.0763 105.014 7.32628C105.514 7.32628 105.514 11.8263 105.014 12.3263C103.014 16.3263 109.514 5.07628 108.014 10.3263C107.764 12.0763 107.764 12.3263 108.514 11.3263C109.014 10.3263 109.264 10.3263 109.264 11.8263C112.764 15.5763 110.764 18.8263 102.264 33.0763C77.5137 73.3263 52.2637 119.326 43.2637 147.326C44.0137 148.826 43.5137 155.826 40.7637 152.826C40.7637 152.326 40.2637 152.076 39.2637 152.326C37.7637 153.076 37.2637 150.826 36.0137 150.826C34.7637 150.826 33.7637 145.326 32.0137 145.576C30.7637 145.076 30.7637 145.076 31.0137 145.826C32.5137 146.826 31.0137 147.326 29.2637 147.326C27.2637 147.326 25.0137 146.826 24.7637 146.576ZM55.7637 101.326C54.0137 105.076 41.0137 132.576 41.2637 136.576C44.0137 135.326 48.5137 119.826 51.7637 113.576C64.7637 84.0763 79.7637 56.3263 95.2637 28.5763C82.5137 47.0763 61.2637 87.3263 55.7637 101.326ZM32.0137 23.8263C27.5137 45.3263 28.5137 90.8263 31.2637 114.576C32.5137 111.076 32.5137 110.576 32.0137 104.576C29.0137 79.3263 32.2637 40.0763 32.0137 23.8263ZM71.7637 73.8263C71.7637 73.8263 73.5137 70.8263 75.7637 67.0763C82.7637 54.3263 93.5137 35.8263 101.264 22.8263C106.014 15.5763 106.514 14.3263 105.764 14.8263C104.764 14.3263 74.0137 67.0763 71.7637 73.8263ZM13.7637 72.0763C12.7637 81.5763 18.7637 130.576 16.5137 105.826C15.2637 100.576 13.2637 34.3263 13.7637 72.0763ZM53.2637 72.3263C51.5137 73.8263 37.7637 108.326 38.2637 108.326C38.5137 108.326 39.7637 105.826 42.5137 99.0763C43.7637 95.0763 56.5137 66.0763 53.2637 72.3263ZM55.0137 84.0763C54.2637 84.0763 39.5137 120.826 39.7637 120.826C40.0137 120.826 41.0137 118.326 43.7637 112.076C44.7637 108.826 58.7637 77.3263 55.0137 84.0763ZM20.7637 57.0763C21.0137 76.0763 20.5137 94.3263 23.7637 112.576C24.0137 112.326 23.7637 108.826 23.2637 104.826C21.7637 91.3263 21.0137 72.8263 20.7637 57.0763ZM74.2637 33.8263C73.5137 33.8263 57.7637 65.0763 57.7637 66.0763C57.7637 66.8263 58.0137 66.3263 66.2637 50.0763C70.7637 41.0763 74.2637 33.8263 74.2637 33.8263ZM74.5137 47.5763C76.0137 44.8263 76.5137 43.8263 76.5137 43.8263C76.2637 43.8263 60.7637 72.8263 61.5137 72.3263C62.7637 70.5763 73.2637 49.8263 74.5137 47.5763ZM62.5137 63.5763C62.2637 63.5763 58.5137 70.8263 58.7637 70.8263C59.0137 71.3263 62.7637 63.8263 62.5137 63.5763ZM55.7637 77.0763C56.0137 77.5763 59.0137 71.5763 58.7637 71.8263C58.5137 71.3263 55.7637 77.0763 55.7637 77.0763ZM18.5137 56.0763C18.5137 54.5763 18.2637 55.8263 18.2637 59.0763C18.2637 62.5763 18.5137 63.8263 18.5137 62.0763C18.7637 60.5763 18.7637 57.8263 18.5137 56.0763ZM22.5137 45.0763C22.0137 42.5763 22.0137 50.8263 22.5137 48.3263V45.0763ZM55.7637 78.0763C55.5137 77.5763 53.7637 81.3263 54.0137 81.3263C54.2637 81.8263 56.0137 78.0763 55.7637 78.0763ZM19.0137 46.5763C18.7637 43.8263 18.7637 53.0763 19.0137 50.5763C19.2637 49.5763 19.2637 47.8263 19.0137 46.5763ZM33.5137 26.8263C33.0137 29.0763 33.0137 32.8263 33.2637 32.5763C33.2637 32.3263 33.5137 30.5763 33.5137 28.3263C33.7637 25.5763 33.7637 25.3263 33.5137 26.8263ZM23.0137 39.3263C22.5137 37.3263 22.5137 43.8263 23.0137 41.8263V39.3263ZM37.7637 147.076C37.0137 146.076 36.2637 150.076 37.2637 148.326C37.5137 147.826 37.7637 147.326 37.7637 147.076ZM33.0137 34.0763C32.5137 32.0763 32.5137 38.0763 33.0137 36.3263V34.0763ZM15.5137 53.8263C15.5137 58.3263 16.0137 53.3263 15.7637 52.3263C15.5137 51.5763 15.5137 52.3263 15.5137 53.8263ZM17.7637 115.076C17.2637 113.826 17.2637 117.826 17.7637 116.576V115.076ZM19.5137 40.8263C19.2637 39.5763 19.2637 44.0763 19.5137 42.8263C19.7637 42.5763 19.7637 41.5763 19.5137 40.8263ZM22.0137 54.8263C21.5137 53.3263 21.7637 57.8263 22.0137 56.5763V54.8263ZM23.2637 35.3263C23.0137 33.8263 23.0137 38.3263 23.2637 37.0763C23.5137 36.8263 23.5137 35.8263 23.2637 35.3263ZM23.7637 31.5763C23.5137 30.5763 23.5137 34.5763 23.7637 33.3263C24.0137 32.8263 24.0137 32.0763 23.7637 31.5763ZM24.2637 114.076C24.0137 112.826 24.0137 116.826 24.2637 115.826C24.5137 115.326 24.5137 114.576 24.2637 114.076ZM104.264 14.0763C104.014 13.8263 103.014 16.0763 104.014 15.0763C104.264 14.8263 104.514 14.3263 104.264 14.0763ZM32.5137 40.3263C32.2637 39.3263 32.0137 42.5763 32.5137 41.5763V40.3263ZM18.0137 29.0763C17.5137 28.0763 17.7637 30.5763 18.0137 30.0763C18.2637 29.8263 18.2637 29.3263 18.0137 29.0763ZM65.0137 58.3263C65.5137 57.3263 64.2637 58.3263 64.5137 58.8263C64.5137 59.3263 64.7637 59.3263 65.0137 58.3263ZM24.2637 29.0763C23.7637 28.0763 24.0137 30.5763 24.2637 30.0763C24.5137 29.8263 24.5137 29.3263 24.2637 29.0763ZM24.7637 118.326C24.2637 117.076 24.5137 119.576 24.7637 119.076C25.0137 118.826 25.0137 118.326 24.7637 118.326ZM91.9941 155.826C85.9941 147.326 109.994 122.576 123.244 102.826C128.994 97.0763 125.244 93.8263 131.244 90.8263C151.244 70.0763 186.994 14.0763 207.744 6.82629C209.494 7.32628 210.744 7.82629 210.494 8.07629C210.244 8.32629 210.494 8.32629 210.744 8.32629C211.994 7.82629 211.244 9.57628 212.244 9.57628C213.244 9.32629 212.744 11.0763 213.494 10.5763C214.244 10.0763 214.744 12.8263 214.994 12.3263C216.244 10.8263 215.994 14.3263 216.994 14.5763C218.244 15.0763 218.244 17.3263 219.494 18.0763C220.994 18.0763 220.744 22.5763 220.994 24.0763C221.244 23.0763 221.994 20.8263 222.244 20.0763C229.994 37.3263 219.494 49.8263 213.994 73.0763C210.494 82.0763 187.494 160.326 186.244 155.326C182.744 158.076 182.994 155.326 183.994 154.076C180.744 155.826 185.994 144.076 185.494 144.076C185.494 144.076 185.244 144.576 184.494 145.826C183.244 148.076 180.244 151.326 179.744 150.826C179.494 150.826 180.994 145.076 181.744 143.326C181.744 142.826 181.744 142.576 180.994 142.826C179.994 142.826 180.244 144.076 179.744 144.326C177.994 143.826 180.244 142.076 179.244 141.576C178.244 140.326 178.994 142.326 178.244 142.576C177.744 143.076 176.494 146.576 175.994 143.576C175.994 139.576 175.494 142.826 173.994 143.326C173.494 143.326 172.744 141.576 173.244 140.576C173.244 140.076 173.244 140.076 172.494 140.576C165.994 140.326 175.994 115.576 176.994 109.076C168.744 110.326 152.494 111.576 142.744 111.326C129.994 127.326 104.994 151.576 100.744 164.576C100.494 166.326 98.2441 168.076 96.7441 168.076C96.2441 168.076 95.7441 167.826 95.4941 167.076C95.2441 166.576 95.2441 165.826 95.4941 165.076C96.9941 161.826 93.4941 165.076 94.2441 161.826C95.4941 157.576 94.4941 159.326 91.9941 155.826ZM193.744 52.3263C189.244 56.8263 167.744 81.8263 163.994 86.8263C167.994 86.5763 180.244 85.5763 180.994 87.3263C185.244 90.0763 184.244 82.0763 187.744 72.8263C190.994 61.8263 192.244 57.5763 193.744 52.3263ZM200.994 27.0763C200.994 24.5763 144.994 89.5763 151.494 87.8263C155.494 84.0763 199.994 32.0763 200.994 27.0763ZM210.744 59.8263C206.744 72.5763 187.994 135.076 188.244 135.076C188.494 135.076 190.744 127.826 196.744 108.576C206.244 75.3263 213.744 63.5763 219.244 34.5763C220.244 28.8263 220.744 26.5763 220.494 26.5763C218.744 32.0763 214.494 48.3263 210.744 59.8263ZM191.494 111.326C194.244 103.826 197.494 92.8263 201.494 80.3263C209.244 56.5763 211.744 48.3263 213.994 39.5763C215.994 31.8263 216.744 27.0763 216.494 27.0763C216.244 27.0763 215.494 29.0763 214.244 33.3263C209.744 48.3263 192.744 106.326 191.494 111.326ZM164.994 75.8263C163.244 77.3263 154.744 87.3263 156.244 87.3263C156.494 87.3263 157.494 86.5763 159.244 85.3263C164.244 78.3263 193.994 43.3263 198.244 37.0763C196.744 37.5763 172.994 65.3263 168.994 70.8263C169.244 70.0763 164.744 75.3263 165.744 74.8263C166.244 74.3263 165.994 74.8263 164.994 75.8263ZM105.744 148.326C103.994 150.826 105.244 149.326 110.244 143.076C120.994 128.826 130.244 120.326 136.744 111.326C129.744 114.826 109.744 144.076 105.744 148.326ZM134.244 107.826C133.744 107.576 109.744 137.826 110.244 137.826C110.244 137.826 111.494 136.576 113.994 133.576C115.994 129.826 135.244 109.826 134.244 107.826ZM202.994 62.0763C203.244 61.8263 204.744 56.8263 206.744 50.3263C210.494 37.3263 211.744 32.5763 211.744 32.5763C211.494 32.5763 203.494 57.8263 202.994 62.0763ZM138.994 89.0763C138.994 89.8263 139.494 89.0763 142.494 85.5763C150.494 75.3263 164.744 56.3263 164.244 56.8263C163.244 57.3263 138.994 88.5763 138.994 89.0763ZM197.244 40.3263C196.494 40.5763 179.744 60.5763 179.994 60.5763C180.244 60.5763 182.494 58.0763 188.744 50.8263C195.744 42.8263 198.244 39.5763 197.244 40.3263ZM201.494 43.5763C200.494 45.3263 195.744 62.8263 195.994 62.8263C196.244 62.8263 196.994 60.0763 199.244 53.0763C202.244 43.0763 202.244 42.8263 201.494 43.5763ZM183.244 35.5763C180.744 37.5763 167.744 54.3263 167.994 54.3263C167.994 54.3263 169.494 52.5763 172.744 48.5763C175.494 44.5763 182.244 37.3263 183.244 35.5763ZM146.494 88.0763C146.744 89.0763 150.994 82.8263 155.994 76.8263C161.744 69.3263 164.494 66.0763 166.994 62.8263C164.744 65.0763 149.494 84.3263 146.494 88.0763ZM173.494 55.5763C172.494 56.8263 172.244 57.3263 172.244 57.3263C172.244 57.3263 175.244 54.0763 179.244 48.8263C183.244 44.0763 184.494 42.3263 184.494 42.3263C184.244 42.3263 176.994 50.8263 173.494 55.5763ZM188.244 135.576C187.994 134.826 186.744 138.576 186.994 138.826C187.244 139.326 188.244 135.576 188.244 135.576ZM169.244 56.3263C168.244 57.8263 167.744 58.3263 168.494 57.5763C169.494 56.5763 170.994 54.5763 172.244 53.0763C173.244 51.5763 173.494 51.0763 172.744 52.0763C171.994 52.8263 170.494 54.8263 169.244 56.3263ZM166.494 60.3263C168.744 57.8263 165.244 60.5763 165.494 61.0763C165.744 61.0763 165.994 60.8263 166.494 60.3263ZM175.494 49.0763C176.994 47.0763 173.744 49.8263 174.744 49.8263C174.994 49.8263 175.244 49.3263 175.494 49.0763ZM164.994 62.3263C166.494 60.3263 163.244 63.0763 164.244 63.0763C164.494 63.0763 164.744 62.5763 164.994 62.3263ZM208.494 20.5763C208.994 18.3263 207.244 21.5763 207.994 21.5763C208.244 21.5763 208.244 21.0763 208.494 20.5763ZM169.244 61.3263C170.744 59.3263 167.494 62.0763 168.494 62.0763C168.494 62.0763 168.744 61.5763 169.244 61.3263ZM171.244 58.8263C173.244 56.5763 169.994 59.3263 169.994 59.8263C170.244 59.8263 170.744 59.3263 171.244 58.8263ZM186.244 40.5763C188.244 38.3263 184.994 41.0763 185.244 41.5763L186.244 40.5763ZM221.244 24.5763C221.244 23.3263 219.744 25.0763 220.744 25.0763C220.994 25.0763 221.244 24.8263 221.244 24.5763ZM184.244 34.0763C184.244 34.3263 184.494 34.0763 185.744 32.8263L186.994 31.3263C186.494 31.5763 184.244 33.8263 184.244 34.0763ZM159.244 109.326C157.994 109.576 162.494 109.576 161.244 109.326C160.744 109.076 159.994 109.076 159.244 109.326ZM109.244 139.326C110.994 137.576 107.494 140.326 108.494 140.076C108.744 140.076 108.994 139.826 109.244 139.326ZM104.244 150.826C105.744 149.326 103.244 151.076 103.244 151.326C103.244 151.826 103.744 151.576 104.244 150.826ZM167.244 55.3263C168.994 53.5763 165.744 56.3263 166.494 56.0763C166.744 56.0763 166.994 55.5763 167.244 55.3263ZM166.244 108.826C165.244 109.076 167.744 109.076 167.244 108.826C166.994 108.576 166.744 108.576 166.244 108.826ZM150.744 109.826C149.994 109.576 148.744 109.576 147.994 109.826H150.744ZM241.178 160.326C226.928 146.576 266.928 79.5763 276.928 57.8263C288.178 40.5763 297.678 15.5763 308.178 12.5763C310.928 13.0763 312.928 15.8263 313.928 16.5763C315.678 16.3263 313.178 19.3263 314.178 19.0763C316.178 18.8263 315.928 21.3263 317.178 22.0763C318.428 22.8263 317.928 23.3263 319.178 24.5763C320.428 26.0763 319.678 27.3263 321.428 29.0763C322.678 30.0763 322.928 30.5763 322.928 32.0763C322.928 34.3263 322.928 32.3263 323.678 32.0763C323.928 32.0763 323.928 31.8263 323.928 31.5763C324.178 30.5763 326.428 38.0763 326.928 39.5763C324.928 56.0763 321.928 104.826 323.178 106.576C333.678 86.8263 363.178 31.0763 367.178 9.07629C367.678 3.82628 369.428 0.0762874 371.428 0.0762874C372.428 0.0762874 373.178 0.826293 373.928 2.07629C373.928 3.07629 373.928 3.07629 374.428 2.32629C375.678 0.326284 375.428 2.82628 376.178 2.82628C376.678 2.57629 377.178 2.82628 377.178 3.32629C377.678 4.82629 378.678 3.82628 378.928 5.32628C379.428 6.82629 381.178 8.07629 381.178 9.32629C381.178 10.5763 383.428 10.8263 383.678 11.8263C383.928 12.3263 384.428 14.5763 384.678 15.5763C384.678 14.8263 384.428 13.0763 384.428 12.3263C395.178 28.5763 380.678 47.8263 364.928 82.5763C342.928 124.076 339.178 137.826 322.178 153.576C321.678 153.576 320.428 150.826 320.428 149.576C320.428 149.076 320.178 148.826 319.428 149.076C318.928 149.076 318.428 148.826 317.928 146.826C317.428 143.826 316.428 144.326 315.178 142.826C304.928 139.576 303.678 88.3263 302.928 76.0763C302.928 70.5763 302.928 66.0763 302.678 66.0763C291.678 82.5763 259.428 144.076 255.928 160.826C252.928 167.076 256.928 177.826 248.178 175.826C247.678 175.826 247.928 170.076 247.178 170.326C245.928 170.826 245.178 169.326 245.178 166.326C244.928 161.576 244.178 164.076 241.178 160.326ZM326.928 128.826C324.428 132.076 323.428 137.076 324.428 137.076C324.678 137.076 325.428 136.576 326.178 135.076C336.678 116.326 376.428 46.8263 378.928 22.0763C369.428 47.8263 341.428 105.826 326.928 128.826ZM325.678 139.576C323.428 142.076 325.178 144.076 327.428 141.326C333.178 134.076 384.928 36.5763 382.928 24.0763C378.678 39.0763 337.428 125.326 325.678 139.576ZM270.178 102.326C267.678 108.076 266.428 111.076 266.678 111.076C266.928 111.076 268.428 107.826 271.678 101.826C276.928 89.0763 300.178 54.8263 304.428 42.0763C304.678 40.3263 304.928 38.8263 304.678 38.5763C296.178 51.0763 277.928 85.8263 270.178 102.326ZM299.928 56.8263C289.928 71.8263 269.928 109.576 263.928 125.576C264.678 124.326 277.678 97.8263 278.928 96.3263C285.428 84.3263 297.678 65.8263 303.428 52.5763C303.428 51.5763 302.678 52.3263 299.928 56.8263ZM323.928 129.826C323.928 129.826 325.928 126.576 328.178 122.576C344.928 92.0763 367.928 48.3263 376.178 21.3263C365.428 51.5763 336.678 104.576 323.928 129.826ZM323.178 117.326C323.178 118.326 326.178 113.076 334.178 97.8263C350.928 65.0763 364.428 37.5763 370.178 18.3263C370.178 18.0763 368.678 21.3263 367.178 25.5763C358.678 48.0763 335.928 92.0763 323.178 117.326ZM270.678 80.5763C270.928 80.5763 273.178 76.3263 275.928 71.3263C286.178 51.8263 296.928 34.5763 302.678 24.0763C297.678 29.5763 271.678 75.5763 270.678 80.5763ZM274.678 86.8263C277.428 82.5763 285.178 67.3263 288.678 61.5763C291.678 55.8263 302.428 38.3263 304.678 33.5763C299.928 39.0763 275.928 82.5763 274.678 86.8263ZM306.678 21.5763C308.178 19.0763 305.178 22.8263 305.678 22.8263C306.178 22.5763 306.428 22.0763 306.678 21.5763ZM303.928 30.3263C303.428 31.5763 303.928 31.3263 304.428 30.3263C305.178 29.0763 304.428 29.3263 303.928 30.3263ZM325.928 146.326C325.178 146.326 326.428 148.076 326.428 146.826C326.428 146.576 326.178 146.326 325.928 146.326ZM379.928 8.07629C379.678 7.07629 379.178 7.82629 379.678 8.32629C380.178 9.07629 380.178 9.07629 379.928 8.07629ZM407.084 119.826C406.584 116.576 407.584 115.326 409.334 115.326C416.834 115.326 440.584 137.576 450.084 132.826C455.334 131.326 458.584 130.576 455.084 124.826C449.834 113.076 414.084 92.8263 418.584 78.3263C417.834 51.3263 454.584 6.82629 483.334 6.82629C491.084 6.82629 498.084 9.82628 503.834 17.3263C522.084 32.0763 488.834 85.0763 482.834 95.3263C479.334 98.8263 477.334 94.3263 480.584 91.5763C481.334 90.5763 483.334 87.3263 484.834 84.3263C486.584 81.0763 487.084 79.8263 487.084 79.8263C486.834 79.8263 477.834 95.5763 476.834 94.3263C478.334 84.5763 485.084 77.8263 491.084 61.3263C498.334 44.5763 501.584 35.3263 501.584 29.8263C501.584 26.0763 500.584 26.5763 499.334 31.3263C497.584 38.8263 479.584 89.3263 472.584 91.3263C464.584 87.3263 468.084 85.5763 474.334 67.3263C482.334 46.5763 487.584 31.0763 487.084 30.3263C486.584 29.8263 481.084 32.8263 476.584 35.8263C457.584 48.5763 424.084 86.3263 451.834 102.576C476.084 118.576 499.834 159.826 455.584 155.326C444.584 150.826 410.334 130.576 407.084 119.826ZM470.584 24.0763C453.334 33.5763 427.084 64.8263 432.584 80.8263C432.584 80.5763 433.334 78.5763 433.834 76.3263C439.084 54.8263 453.834 37.5763 470.584 24.0763ZM482.584 86.0763C482.584 86.0763 483.334 84.8263 484.334 83.3263C488.084 76.0763 507.334 36.5763 504.834 30.3263C501.834 40.8263 491.584 68.0763 482.584 86.0763ZM440.084 66.3263C436.084 72.5763 434.834 83.5763 435.584 83.5763C435.834 83.5763 436.584 81.8263 437.334 78.0763C438.084 72.8263 444.084 59.5763 443.834 59.5763C443.584 59.5763 442.584 61.5763 440.084 66.3263ZM443.584 63.0763C441.834 66.5763 440.834 68.8263 441.084 68.8263C441.084 68.8263 441.834 67.8263 442.834 65.8263C443.834 63.5763 446.334 59.5763 447.834 56.8263C451.334 50.3263 456.834 44.8263 460.334 40.3263C460.084 40.0763 458.334 41.5763 456.584 43.5763C452.584 47.8263 446.584 56.5763 443.584 63.0763ZM468.334 137.826C466.834 140.576 465.834 142.076 469.084 140.076C470.334 139.076 470.834 137.326 470.084 136.076C469.834 135.326 469.334 136.076 468.334 137.826ZM474.334 143.576C475.584 140.826 471.584 144.076 471.834 144.576C471.834 145.326 473.834 144.326 474.334 143.576ZM424.084 71.3263C424.334 66.0763 422.834 74.3263 423.584 73.8263C423.584 73.5763 423.834 72.5763 424.084 71.3263ZM474.584 139.326C474.084 138.326 472.334 143.576 474.334 140.576C474.584 140.076 474.834 139.576 474.584 139.326ZM492.334 28.8263C491.334 27.5763 491.084 32.5763 491.834 30.0763C492.084 29.5763 492.334 29.0763 492.334 28.8263ZM496.834 32.8263C497.334 31.5763 498.334 29.3263 498.084 28.0763V27.0763C497.584 28.5763 497.334 31.0763 496.834 32.8263ZM427.334 63.3263C426.834 65.3263 428.084 62.5763 428.084 61.8263C428.584 59.8263 427.584 62.8263 427.334 63.3263ZM429.584 73.0763C429.334 71.8263 429.334 75.3263 429.584 74.3263C429.834 74.0763 429.834 73.3263 429.584 73.0763ZM491.334 31.8263C490.834 30.5763 490.834 33.0763 491.084 32.5763C491.334 32.3263 491.334 32.0763 491.334 31.8263ZM496.834 33.5763C496.334 32.5763 496.334 34.8263 496.584 34.3263C496.834 34.3263 496.834 33.8263 496.834 33.5763Z" fill="#FFA0C2"/>
</g>
<defs>
<filter id="filter0_d_51_2" x="0.513672" y="0.0762939" width="525.57" height="185.75" filterUnits="userSpaceOnUse" color-interpolation-filters="sRGB">
<feFlood flood-opacity="0" result="BackgroundImageFix"/>
<feColorMatrix in="SourceAlpha" type="matrix" values="0 0 0 0 0 0 0 0 0 0 0 0 0 0 0 0 0 0 127 0" result="hardAlpha"/>
<feOffset dy="4"/>
<feGaussianBlur stdDeviation="2"/>
<feComposite in2="hardAlpha" operator="out"/>
<feColorMatrix type="matrix" values="0 0 0 0 0.7875 0 0 0 0 0.7875 0 0 0 0 0.7875 0 0 0 0.25 0"/>
<feBlend mode="normal" in2="BackgroundImageFix" result="effect1_dropShadow_51_2"/>
<feBlend mode="normal" in="SourceGraphic" in2="effect1_dropShadow_51_2" result="shape"/>
</filter>
</defs>
</svg>
