<svg width="154" height="68" viewBox="0 0 154 68" fill="red" xmlns="http://www.w3.org/2000/svg">
<path d="M77.0546 0.378899C76.785 0.417419 75.1864 0.55224 73.4915 0.667799C69.1195 0.995217 64.4201 1.66931 60.2985 2.61304C59.297 2.8249 58.1221 3.09454 57.6984 3.19083C57.2747 3.28713 56.331 3.53751 55.5798 3.74937C54.848 3.96123 53.8079 4.26939 53.2687 4.42347C50.9767 5.05904 47.7026 6.21464 44.2165 7.63987C42.0016 8.54508 37.7067 10.6444 32.0828 13.5719C25.1685 17.1542 19.5061 19.8699 17.5416 20.5055C17.272 20.6018 16.5786 20.8521 16.0008 21.0832C12.7459 22.3544 6.19756 23.9722 4.34861 23.9722C3.59748 23.9722 3.36636 24.0685 2.73078 24.6848C2.15299 25.2626 1.88335 25.8019 1.44037 27.1501C1.13221 28.0938 0.881836 29.3265 0.881836 29.8465C0.881836 30.848 0.978134 31.0406 7.27611 41.595C7.41093 41.8069 7.58427 42.115 7.66131 42.2691C7.73835 42.4232 8.00799 42.8661 8.25836 43.2321C8.50874 43.598 8.79764 44.0795 8.89394 44.2914C8.99024 44.5032 9.25987 44.9847 9.47173 45.3507C12.8807 51.0516 13.6704 52.2842 14.2097 52.785L14.8645 53.382L21.2588 53.4976C27.7686 53.6131 29.1361 53.748 30.4842 54.4221C31.7169 55.0576 31.8902 55.5969 31.8902 59.1215C31.8902 62.6845 31.871 62.6268 33.8162 64.0713C37.36 66.7099 42.0594 67.5958 47.7796 66.7484C50.3604 66.3632 52.4983 65.4965 54.0005 64.1868C54.9057 63.4164 55.6761 62.2223 55.6761 61.606C55.6761 60.7971 56.331 58.6977 56.7162 58.274C57.371 57.5422 57.8332 57.4651 59.9711 57.7733C64.3238 58.3703 67.5595 58.6592 72.4322 58.8133C78.7302 59.0444 77.3627 59.0444 83.6992 58.8133C90.3824 58.5822 95.1781 58.12 101.033 57.1762C104.057 56.6755 105.135 56.4636 111.684 54.9806C112.762 54.7302 113.552 54.8458 114.072 55.308C114.245 55.4621 114.688 56.2132 115.074 56.9644C116.518 59.9111 118.04 60.7586 121.795 60.7586C127.111 60.7586 132.619 58.5244 136.664 54.7495C138.262 53.2665 138.859 52.3805 139.591 50.416C140.015 49.2604 140.092 48.7597 140.131 46.2559C140.188 43.4054 140.188 43.4054 140.728 42.8276C141.036 42.5002 141.883 41.8454 142.596 41.3639C144.618 40.0157 149.761 34.8155 151.032 32.8318C152.149 31.0984 152.418 30.4821 152.842 28.7872C153.921 24.5115 151.879 21.7959 146.197 20.0047C140.227 18.098 136.433 16.7498 131.464 14.7275C128.806 13.6489 122.585 11.0103 121.256 10.394C120.524 10.0473 119.041 9.39251 117.982 8.94953C116.922 8.50656 115.979 8.08284 115.863 8.0058C115.767 7.92876 114.9 7.52431 113.937 7.13911C112.993 6.73465 112.127 6.33019 112.011 6.25315C111.915 6.17611 111.645 6.06056 111.433 6.00278C111.222 5.945 110.567 5.71387 109.989 5.48276C107.562 4.55828 105.598 3.96123 101.418 2.90194C98.1441 2.09303 92.6358 1.18781 88.2253 0.744832C85.5674 0.475194 78.0754 0.24408 77.0546 0.378899ZM96.3337 4.13457C96.6419 4.30791 96.6996 4.55829 96.6996 5.79092C96.6996 7.48579 96.6611 7.52431 94.2536 7.69765C93.4255 7.75543 91.538 7.92876 90.055 8.08284C87.2623 8.37174 83.5837 8.73768 78.3065 9.23843C69.9092 10.0473 66.3268 10.4133 62.6482 10.8177C62.0897 10.8755 61.4734 11.0681 61.2808 11.2415C60.9148 11.5689 60.7607 12.3585 59.4318 20.8906C59.2585 22.0077 58.9888 23.6063 58.8348 24.4537C58.6807 25.3012 58.5651 26.2256 58.5651 26.5145C58.5651 27.3042 57.9681 27.5738 55.7147 27.8049C52.6138 28.1324 52.4597 28.1131 52.0938 27.4005C51.9205 27.0731 51.7086 26.5723 51.6316 26.3027C51.5353 26.033 51.2849 25.3204 51.0538 24.7426C50.8227 24.1648 50.5338 23.3366 50.3797 22.9129C50.0715 21.9692 49.2819 19.8121 48.7426 18.3869C48.5115 17.8091 48.2611 17.1157 48.1648 16.8461C48.0685 16.5764 47.6833 15.4979 47.2981 14.4386C45.8921 10.5096 45.6032 9.58511 45.7188 9.29621C45.8343 8.96879 48.8774 8.42952 49.3974 8.62212C50.0715 8.89175 50.7071 10.4903 53.3842 18.7721C54.1546 21.1988 54.5398 22.0462 54.8094 22.0462C54.9635 22.0462 55.1561 21.2951 55.368 19.9662C55.5413 18.8298 55.811 17.1157 55.965 16.172C56.0999 15.209 56.3695 13.4371 56.5428 12.2237C56.7162 11.0103 56.9473 9.52733 57.0821 8.94953L57.3132 7.89024L59.5281 7.56282C60.7415 7.38948 62.186 7.23541 62.706 7.23541C63.2453 7.23541 64.7475 7.10059 66.0765 6.94651C67.4054 6.77317 69.8707 6.52279 71.5655 6.34946C74.6471 6.06056 77.6709 5.7524 83.1214 5.21313C84.72 5.03979 87.3586 4.77014 88.9957 4.61606C90.6328 4.44273 92.6743 4.25013 93.5218 4.15383C95.7367 3.92271 95.91 3.92271 96.3337 4.13457ZM95.3707 9.83549C96.9115 10.2785 97.2774 10.5674 97.2774 11.357C97.2774 11.8193 97.1041 12.1852 96.6419 12.686L96.0063 13.3408L94.504 12.8593C93.6566 12.5896 92.8284 12.4356 92.5588 12.4934C91.8269 12.686 90.9024 13.5719 90.9602 14.0341C91.0372 14.5542 92.4817 15.286 93.4447 15.3053C94.4848 15.3053 96.7767 15.9601 97.47 16.4609C98.1249 16.9231 98.7412 18.1557 98.9338 19.3499C99.2034 21.064 97.8745 23.067 95.7559 24.0878C94.8122 24.55 94.4462 24.6078 92.7514 24.6271C91.2298 24.6271 90.575 24.55 89.5735 24.1841C88.0327 23.6448 87.4549 23.2981 87.4549 22.8552C87.4549 22.3929 88.572 20.5055 88.8609 20.4862C89.4772 20.4284 90.3054 20.5632 90.7676 20.8136C91.0758 20.9677 91.8654 21.0832 92.6358 21.0832C93.8299 21.0832 94.0418 21.0255 94.4848 20.5825C95.1589 19.9084 95.0626 19.215 94.2151 18.6372C93.6566 18.252 93.3099 18.1943 91.8462 18.1943C89.9587 18.1943 89.0535 17.9246 88.1675 17.0772C86.8001 15.7868 86.4341 13.4949 87.3586 12.0311C88.6298 10.0281 92.4432 8.98805 95.3707 9.83549ZM85.3748 13.9571C85.8949 18.0787 86.3378 23.0478 86.2801 23.7796C86.203 24.3959 86.1452 24.4537 85.4326 24.5885C85.0089 24.6656 84.0459 24.7234 83.2948 24.7234C82.1199 24.7426 81.8888 24.6848 81.5421 24.2996C81.1184 23.8181 79.9436 22.0848 79.9436 21.9307C79.9436 21.7381 78.1909 19.5425 78.0176 19.5425C77.7287 19.5425 77.6516 20.101 77.825 21.2181C77.902 21.8344 78.0368 22.9129 78.1139 23.6255C78.2294 24.8197 78.2102 24.9352 77.7865 25.1856C77.5361 25.3397 76.8042 25.5323 76.1494 25.5901C74.6856 25.7441 74.6278 25.6864 74.3582 23.1826C74.2619 22.1811 74.0308 20.1973 73.8767 18.7528C73.7226 17.3083 73.5878 15.3053 73.5878 14.2845V12.4356L74.5893 12.1274C75.1286 11.9733 76.0338 11.8385 76.5924 11.8385C77.7479 11.8385 77.6709 11.7615 80.0206 15.1705C80.7717 16.2683 81.4073 17.0002 81.5229 16.9231C81.677 16.8268 81.6962 15.9794 81.6192 14.246C81.5421 12.4163 81.5614 11.6459 81.7347 11.4726C81.8888 11.3185 82.5051 11.2607 83.5066 11.2992L85.0474 11.357L85.3748 13.9571ZM68.6958 12.9556C68.9077 13.1097 70.2173 16.0564 70.6218 17.3276C70.7566 17.7513 71.007 18.4446 71.1611 18.8684C72.0855 21.3914 73.3952 25.2049 73.3952 25.4167C73.3952 26.0523 70.4099 26.3605 69.8514 25.7827C69.6781 25.6286 69.5432 25.3397 69.5432 25.1471C69.5432 24.9545 69.3121 24.55 69.0425 24.2611C68.561 23.7411 68.5225 23.7411 66.9817 23.8567C65.5565 23.9722 65.3446 24.0493 64.8824 24.5693C64.5164 24.9545 64.3431 25.3397 64.3431 25.7827C64.3431 26.6494 64.0349 26.8419 62.5327 26.996C60.9919 27.1308 60.6644 26.9382 60.7993 25.9367C61.0111 24.2996 61.4926 21.5262 62.3401 17.1735C63.149 13.0326 63.0527 13.1674 64.8438 12.9941C66.712 12.8015 68.4454 12.7822 68.6958 12.9556ZM141.845 20.1395C142.5 20.4477 142.577 20.7751 142.23 21.7188C142.076 22.1618 141.864 22.7781 141.768 23.1055C141.19 25.0508 140.959 25.513 140.477 25.513C139.707 25.513 138.686 24.993 138.686 24.5885C138.686 24.0878 139.553 21.2566 139.919 20.5247C140.265 19.8699 140.94 19.7351 141.845 20.1395ZM145.523 21.5262L146.024 21.9499L145.62 23.2981C145.08 25.0315 144.522 26.2256 144.137 26.4375C143.867 26.6108 142.943 26.3797 142.384 26.0138C141.96 25.7441 142.249 24.473 143.386 21.7959C143.655 21.1795 143.771 21.0832 144.368 21.0832C144.772 21.0832 145.215 21.2566 145.523 21.5262ZM137.03 21.6996C137.357 22.2388 137.723 24.4922 137.723 26.033C137.723 27.7086 138.282 30.5206 138.648 30.6554C138.802 30.7324 139.399 30.5398 139.938 30.2317C140.497 29.9428 141.094 29.7502 141.248 29.808C141.614 29.9428 141.96 31.0984 141.96 32.1962V33.0244L139.225 34.8155C135.528 37.223 135.104 37.4349 134.738 37.0689C134.468 36.78 134.41 36.3756 133.871 30.328C133.756 28.9991 133.544 26.6686 133.409 25.1278C133.255 23.4715 133.216 22.2003 133.313 22.0077C133.409 21.8151 133.89 21.6225 134.488 21.507C136.24 21.1988 136.722 21.2373 137.03 21.6996ZM129.769 24.0685C129.884 25.0123 130.038 26.7456 130.096 27.9205C130.212 29.885 130.693 34.0644 130.905 35.1237C131.001 35.5859 131.271 35.6052 132.754 35.2392C133.216 35.1237 133.274 35.1622 133.467 35.8363C133.582 36.26 133.679 36.9534 133.679 37.3964C133.679 38.2053 133.679 38.2053 132.099 39.149C130.096 40.3238 128.093 41.3061 127.67 41.3061C127.207 41.3061 126.995 40.8246 126.88 39.4764C126.302 33.4673 126.129 31.6569 125.878 28.402C125.724 26.3412 125.589 24.2419 125.589 23.7604C125.589 22.4507 125.955 22.2581 128.19 22.2966L129.538 22.3351L129.769 24.0685ZM120.986 23.0092C121.468 23.2789 121.853 24.0685 122.007 25.1278C122.084 25.6093 122.257 26.3027 122.392 26.6686C122.546 27.0345 122.797 27.9975 122.989 28.7872C123.163 29.5768 123.452 30.7132 123.606 31.291C123.76 31.8688 123.991 32.774 124.126 33.3133C124.28 33.8333 124.53 34.8348 124.703 35.5281C125.744 39.4572 126.225 41.672 126.09 41.9802C125.955 42.3269 123.683 43.4247 123.105 43.4247C122.643 43.4247 122.392 43.1165 122.142 42.1535C122.026 41.7298 121.757 41.2098 121.545 41.0172C121.198 40.709 121.063 40.6898 120.37 40.9016C119.927 41.0365 119.369 41.3446 119.118 41.595C118.714 41.9995 118.656 42.2498 118.656 43.4632C118.656 44.2336 118.579 44.9655 118.502 45.0618C118.232 45.447 115.728 46.5063 115.112 46.5063C114.419 46.5063 114.168 46.0633 114.303 45.0233C114.38 44.5225 114.515 41.2868 114.611 37.8393C114.708 34.3918 114.9 29.885 115.016 27.8242C115.266 23.3559 115.17 23.51 117.539 23.2981C118.829 23.2018 119.985 23.0092 120.543 22.8359C120.582 22.8166 120.774 22.9129 120.986 23.0092ZM112.839 28.8835C112.916 33.814 112.551 46.1596 112.319 47.0263C112.223 47.3537 111.953 47.5848 111.433 47.7774C109.623 48.4322 108.313 48.8174 107.832 48.8174C107.37 48.8174 107.293 48.7019 106.965 47.5078C106.445 45.7551 106.118 44.4455 105.944 43.521C105.694 42.2691 105.232 41.0172 105.058 41.0557C104.962 41.0942 104.866 41.5565 104.847 42.115C104.731 44.6766 104.365 49.1063 104.211 49.4915C104.095 49.7997 103.729 49.973 102.651 50.2234C101.861 50.416 100.783 50.5508 100.224 50.5508H99.242L98.8375 49.2219C98.6064 48.49 98.433 47.7774 98.433 47.6426C98.433 47.5078 98.3175 46.9685 98.1634 46.4292C98.0093 45.8899 97.7397 44.9077 97.5856 44.2336C97.4123 43.5788 97.1426 42.5387 96.9885 41.9224C96.6996 40.7668 94.9085 33.5251 94.5618 32.0614C94.1188 30.1932 93.7722 28.845 93.5025 27.9397C93.1366 26.7071 93.1558 26.1486 93.5795 25.9367C93.7529 25.8404 94.7929 25.7056 95.8715 25.6286C97.7589 25.513 97.8552 25.5323 98.1249 25.9367C98.2982 26.1679 98.433 26.6493 98.433 26.996C98.433 27.3427 98.5678 28.2864 98.7412 29.1146C98.8953 29.9428 99.1649 31.3102 99.319 32.1577C99.4923 33.0051 99.7427 34.2955 99.8968 35.0466C100.07 35.7785 100.224 36.6067 100.282 36.8571C100.34 37.1652 100.436 37.2615 100.571 37.1267C100.802 36.8956 101.052 33.737 101.245 28.922C101.399 24.6848 101.264 24.916 103.749 24.7811C105.251 24.7041 105.347 24.7234 105.617 25.1471C105.771 25.3975 106.041 26.2641 106.233 27.0538C106.407 27.8435 106.638 28.8835 106.753 29.365C106.984 30.328 107.119 30.9828 107.562 32.9088C107.716 33.6407 108.005 34.4111 108.217 34.6037C108.564 34.9696 108.583 34.9118 108.699 31.7532C108.776 29.9813 108.833 27.6509 108.833 26.5723C108.833 24.0685 108.91 23.9915 111.433 24.03L112.782 24.0685L112.839 28.8835ZM89.8816 26.9768C90.055 27.3812 90.1513 28.0746 90.1128 28.6524L90.055 29.6154L88.8031 29.885C88.1098 30.0391 87.2045 30.2124 86.8001 30.2895C85.6637 30.5013 85.5867 30.7517 85.9719 33.1592C86.1452 34.2955 86.2993 35.5281 86.2993 35.8748C86.2993 37.1074 86.5112 37.2615 88.2253 37.2615C90.0743 37.2615 90.1705 37.3771 90.3054 39.6112C90.3824 41.0942 90.3824 41.1135 89.8816 41.3061C89.5928 41.4024 89.1113 41.4987 88.8224 41.4987C88.5335 41.4987 87.9942 41.595 87.6475 41.7105L87.0119 41.9417L87.166 43.5017C87.2431 44.3684 87.3586 45.7359 87.4357 46.5448C87.5897 48.5286 87.7631 48.6634 89.978 48.5478C90.8832 48.49 91.7113 48.5286 91.8462 48.6056C92.1928 48.8175 92.6551 50.0886 92.6551 50.8397C92.6551 51.379 92.5588 51.5523 92.1928 51.7064C91.2298 52.0724 89.3809 52.265 86.6267 52.3227C83.4296 52.3805 83.4103 52.3613 83.4103 51.0323C83.4103 50.6086 83.2755 49.2604 83.1214 48.047C82.9674 46.8337 82.717 44.5803 82.5436 43.0395C82.0429 38.3208 81.7155 35.3548 81.4073 32.7355C80.9836 29.3072 80.9643 27.6894 81.311 27.3427C81.4844 27.1694 82.3703 26.9768 83.6029 26.8419C84.72 26.7264 86.1838 26.5723 86.8771 26.476C89.4194 26.1871 89.5542 26.2064 89.8816 26.9768ZM78.2102 27.7279C78.4798 28.0553 78.5376 28.4983 79.6547 40.0542C79.8088 41.7491 80.0784 44.3877 80.2325 45.9285C80.8295 51.8027 80.8295 51.899 80.5984 52.1109C80.2132 52.419 77.0738 52.3998 76.785 52.0724C76.5538 51.822 76.0723 48.4322 75.8027 45.2929C75.7449 44.5803 75.6101 43.7714 75.4945 43.5017C75.3212 43.001 75.2634 42.9817 74.05 43.0973C72.4707 43.2128 71.97 43.598 72.1433 44.5418C72.2011 44.8884 72.3359 46.1018 72.4322 47.2381C72.5285 48.3745 72.6633 49.8767 72.7404 50.5701C72.8945 52.1494 72.8559 52.1687 70.3714 51.8605C68.7343 51.6679 68.5225 51.5909 68.3684 51.1864C68.1758 50.6857 68.1373 50.2234 66.9432 36.2985C66.7698 34.334 66.558 31.9651 66.4617 31.0021C66.3846 30.0391 66.3846 29.1339 66.4809 28.9605C66.5965 28.7294 67.0587 28.6139 68.3299 28.4983C70.6218 28.3057 70.3714 27.8435 70.9877 33.6985C71.45 38.109 71.4885 38.263 72.0855 38.5905C72.5478 38.8601 72.7211 38.8601 73.7226 38.6097L74.8397 38.3208L74.7819 36.1059C74.7434 34.8926 74.6086 32.6969 74.4545 31.2525C74.3004 29.808 74.1656 28.5175 74.1656 28.4212C74.1656 27.6894 77.6902 27.0923 78.2102 27.7279ZM151.205 28.3827C151.532 29.0183 151.436 29.365 150.55 30.6939C149.761 31.8495 147.18 34.5844 145.716 35.7785C144.464 36.7993 140.67 39.4379 138.994 40.4587C136.837 41.7683 136.683 41.8646 135.701 42.4617C134.122 43.4439 134.603 43.155 131.464 44.9077C128.594 46.487 122.508 49.3952 122.026 49.3952C121.892 49.3952 121.718 49.4723 121.641 49.5878C121.583 49.6841 121.256 49.8575 120.909 49.9538C120.563 50.0501 119.946 50.2812 119.523 50.4353C119.099 50.5894 118.271 50.8975 117.693 51.1286C112.454 53.1124 105.309 54.9806 99.0108 56.0206C91.4224 57.2725 87.3394 57.5422 77.825 57.4266C67.7713 57.311 64.4972 57.0029 51.2464 54.8843C42.4639 53.4783 38.1111 52.9968 30.542 52.5731C22.684 52.1494 16.9831 51.7449 16.7712 51.6101C16.5016 51.4368 16.5401 50.8397 16.8483 50.0693L17.1372 49.3952H21.3358C23.7048 49.3952 26.7864 49.5108 28.4234 49.6841C31.8324 50.0308 35.9348 50.4545 39.4016 50.8397C40.7883 50.9938 43.215 51.2442 44.7943 51.4175C46.3929 51.5716 48.8196 51.8412 50.1871 51.9953C51.5738 52.1494 54.0005 52.419 55.5798 52.5731C57.1784 52.7465 59.6052 52.9968 60.9726 53.1509C73.1834 54.4991 83.9111 54.4991 94.6774 53.1317C99.6271 52.4961 105.193 51.4175 109.315 50.2427C111.414 49.6649 114.342 48.7789 114.765 48.6056C115.016 48.5093 115.767 48.2589 116.402 48.0278C117.057 47.8159 118.251 47.373 119.041 47.0648C119.831 46.7374 120.794 46.3522 121.16 46.2174C125.069 44.7729 130.135 42.2691 134.218 39.7846C135.2 39.1875 136.144 38.6097 136.336 38.5134C136.818 38.2245 140.497 35.74 142.057 34.6422C144.483 32.9473 149.838 28.8064 150.242 28.325C150.569 27.9012 150.955 27.9398 151.205 28.3827ZM64.8824 29.2302C65.1905 29.5961 65.229 32.254 64.9401 32.4466C64.8053 32.5236 64.1312 32.6392 63.4186 32.6969C61.5889 32.8703 61.5504 32.9473 61.8008 35.4704C61.9356 36.6067 62.1667 39.0142 62.3208 40.8246C62.4941 42.6158 62.7638 45.1966 62.9179 46.5255C63.2453 49.4338 63.2645 51.2635 62.9756 51.3597C62.4941 51.5138 59.7015 51.0131 59.5281 50.7434C59.4318 50.5894 59.297 49.896 59.2392 49.2026C59.1814 48.5093 59.0081 47.0455 58.854 45.9285C58.6999 44.8114 58.4496 42.558 58.2762 40.9209C57.814 36.5297 57.4288 33.9488 57.1784 33.6407C57.0051 33.4481 56.5621 33.3903 55.5028 33.4481L54.0391 33.5059L53.7887 32.7355C53.0953 30.6554 53.5768 29.7502 55.368 29.7502C55.9073 29.7502 56.9088 29.6539 57.6021 29.5383C58.7577 29.3457 61.9741 29.0761 63.8808 28.999C64.3431 28.999 64.7668 29.0953 64.8824 29.2302ZM49.2819 30.771C49.3974 30.9058 49.5515 31.5991 49.6285 32.2925C49.7441 33.5059 49.7248 33.5829 49.2626 33.8911C48.9737 34.0644 48.1263 34.2763 47.2981 34.3533C45.6032 34.5074 45.4106 34.6807 45.5455 35.8748C45.7381 37.3771 45.9114 37.5119 47.3559 37.3964C49.147 37.2615 49.2626 37.3578 49.4167 39.1297C49.5515 40.5164 49.5322 40.632 49.1278 40.9594C48.8389 41.1905 48.3767 41.3061 47.7796 41.3061C46.2388 41.3061 46.1618 41.4794 46.3544 44.561C46.4314 46.0055 46.5084 47.527 46.5277 47.9508V48.7211L44.7558 48.7019C43.735 48.7019 42.8683 48.6056 42.7143 48.4708C42.3291 48.1434 41.5587 42.3461 41.0386 35.9133C40.9231 34.4881 40.7883 33.0051 40.7305 32.6392C40.692 32.2732 40.7112 31.8495 40.8075 31.7339C41.0001 31.4451 43.2921 30.9828 45.7573 30.7517C48.3767 30.4821 49.0507 30.5013 49.2819 30.771ZM16.752 31.0791C17.3298 31.6569 18.7357 34.7 18.6202 35.0852C18.4853 35.5089 17.4646 36.1059 16.906 36.1059C16.6749 36.1059 16.3668 35.9326 16.2512 35.7207C15.5771 34.6807 14.46 32.3503 14.46 32.0421C14.46 31.6184 15.5771 30.7902 16.2512 30.7324C16.3282 30.7132 16.5594 30.8865 16.752 31.0791ZM39.0934 31.6569C39.4979 31.9073 39.7675 34.5651 39.4401 34.9118C39.3053 35.0466 38.4193 35.2585 37.4756 35.3933C35.8577 35.6244 35.7229 35.6822 35.5496 36.1637C35.434 36.5489 35.4533 36.9341 35.6459 37.5119L35.9348 38.3208L37.5141 38.3786C38.4578 38.4171 39.1512 38.5327 39.286 38.6675C39.3823 38.8023 39.4979 39.5342 39.5171 40.3046C39.5749 42.0765 39.363 42.3076 37.7645 42.4232C36.1659 42.5387 35.9733 42.8469 36.2237 44.7921C36.32 45.5818 36.4163 46.5448 36.4163 46.93V47.6619H34.6059C32.0058 47.6619 32.0828 47.7581 31.6976 43.7136C31.5435 41.9032 31.2739 39.1297 31.1198 37.5504C30.7539 33.9103 30.7539 32.7547 31.1006 32.4658C31.2354 32.3503 32.911 32.0806 34.7985 31.888C39.0741 31.445 38.766 31.4643 39.0934 31.6569ZM25.1493 32.5236C28.539 33.4096 30.2531 36.1445 30.2531 40.632C30.2531 42.9239 29.7716 44.8884 28.9435 45.8899C28.6546 46.2559 27.9419 46.8337 27.3641 47.1611C26.4204 47.6811 26.17 47.7389 24.6678 47.7389C22.761 47.7196 21.8558 47.3537 20.7388 46.1018C18.9091 44.0795 18.1387 39.4957 19.1017 36.3756C19.4291 35.297 19.6987 34.8926 20.5847 33.9874C21.278 33.294 22.0099 32.774 22.5492 32.5814C23.647 32.2154 23.9552 32.1962 25.1493 32.5236ZM14.4023 34.18C14.8645 34.9696 15.2882 35.9133 15.346 36.2793C15.4616 36.8571 15.4038 37.0112 14.9223 37.3964C14.2674 37.9164 13.6511 37.9741 13.3044 37.5504C13.0155 37.2037 12.1296 35.6052 11.5518 34.3725L11.1473 33.5251L11.6866 33.0821C12.0911 32.7547 12.4378 32.6392 12.9192 32.6777C13.5356 32.7355 13.6511 32.851 14.4023 34.18ZM136.028 47.6619C136.895 47.9122 137.184 48.3745 137.184 49.5108C137.222 51.0131 136.895 51.1286 134.16 50.5508C131.271 49.9538 127.92 50.9168 124.992 53.1702C123.702 54.1524 122.123 55.6932 122.123 55.9628C122.123 56.1362 121.583 56.9644 120.967 57.7155C120.486 58.2933 119.484 58.1585 118.733 57.4073C118.367 57.0414 118.078 56.6177 118.078 56.4443C118.078 55.8088 118.656 55.0191 120.254 53.5169C123.047 50.859 125.801 49.2412 129.518 48.047C131.213 47.5078 134.719 47.2959 136.028 47.6619ZM133.582 52.2842C134.487 53.1317 134.122 54.1717 132.35 55.7895C130.751 57.234 128.825 58.1392 126.495 58.5244C125.532 58.6978 124.106 58.0814 123.952 57.4266C123.683 56.4058 125.378 54.2295 127.246 53.1317C129.711 51.6872 132.542 51.302 133.582 52.2842ZM43.3113 55.5777C47.0862 55.9821 51.0923 57.5614 53.0375 59.3718C53.4613 59.7763 53.5576 60.0267 53.5576 60.7778C53.5576 62.1453 53.2879 62.6845 52.6331 62.6845C52.3057 62.6845 51.9205 62.5112 51.7086 62.2801C50.7649 61.2208 48.1455 59.6993 46.2966 59.1022C45.7958 58.9481 44.3899 58.6978 43.1958 58.5437C41.4046 58.3511 40.6149 58.3511 38.6697 58.5437C37.3793 58.6978 36.0503 58.9096 35.7037 59.0252C35.3762 59.1407 34.8177 59.2178 34.4518 59.1792C33.8932 59.1215 33.8162 59.0444 33.7584 58.4666C33.6814 57.677 33.9895 56.8873 34.6251 56.3095C35.4148 55.5584 39.7868 55.1732 43.3113 55.5777ZM46.3351 60.9512C47.9337 61.5867 48.9352 62.4149 48.9352 63.0697C48.9352 63.6475 48.1455 64.3602 47.1248 64.6876C45.7573 65.1305 41.4816 65.1113 40.172 64.6683C38.9008 64.2253 37.3215 63.2046 36.9941 62.5882C36.5126 61.683 37.3793 60.6815 38.8815 60.3541C39.286 60.2578 40.769 60.2385 42.1942 60.2578C44.5825 60.3348 44.9099 60.3926 46.3351 60.9512Z" fill="white"/>
<path d="M65.6912 18.1172C65.5757 18.4061 65.4986 19.0417 65.5372 19.5232L65.5949 20.4091H66.3653C67.3283 20.4091 67.4439 19.9854 66.8083 18.6758C66.269 17.5587 65.9609 17.4046 65.6912 18.1172ZM119.176 31.4258C118.983 31.7532 118.848 34.9118 118.983 35.7207C119.137 36.4911 119.214 36.5874 119.696 36.6452C120.004 36.6837 120.312 36.6067 120.389 36.4911C120.563 36.2022 120.466 35.0274 120.1 33.5059C119.966 32.8703 119.792 32.1191 119.715 31.811C119.619 31.3102 119.349 31.1369 119.176 31.4258ZM23.204 36.703C22.8958 37.0304 22.8188 37.4541 22.7803 39.072C22.7032 41.6528 23.1655 43.3476 24.0707 43.8677C24.61 44.1951 24.7255 44.2143 25.1107 43.9447C25.8811 43.4439 26.1893 41.8839 25.8426 40.2853C25.7463 39.8424 25.5537 38.9564 25.4381 38.3401C25.0722 36.5489 24.0322 35.7978 23.204 36.703ZM145.003 44.3299C144.445 44.4647 144.618 44.7729 145.234 44.7729C145.62 44.7729 145.812 44.8692 145.812 45.0618C145.812 45.2159 145.947 45.3507 146.101 45.3507C146.486 45.3507 146.467 45.1196 146.043 44.7536C145.543 44.3299 145.369 44.2529 145.003 44.3299ZM142.75 44.8884C142.538 45.1773 142.403 45.4855 142.48 45.601C142.538 45.6973 142.711 45.5625 142.866 45.2736C143.039 44.9462 143.289 44.7729 143.597 44.7729C143.848 44.7729 144.117 44.6766 144.175 44.5803C144.252 44.4647 144.06 44.3877 143.713 44.3877C143.328 44.3877 143.02 44.5418 142.75 44.8884ZM143.636 45.447C143.443 45.9092 143.482 46.93 143.674 47.2574C143.809 47.4693 143.886 47.4307 144.06 47.1033C144.349 46.6026 144.599 46.5833 144.753 47.0841C144.965 47.7582 145.157 47.5078 145.196 46.5063C145.234 45.524 145.119 45.3507 144.676 45.7744C144.483 45.9862 144.368 45.9285 144.098 45.5625C143.79 45.1581 143.732 45.1581 143.636 45.447ZM146.39 46.41C146.39 46.7759 146.486 47.0841 146.583 47.0841C146.698 47.0841 146.775 46.7759 146.775 46.41C146.775 46.044 146.698 45.7359 146.583 45.7359C146.486 45.7359 146.39 46.044 146.39 46.41Z" fill="white"/>
<path d="M142.346 47.2959C142.346 47.6811 143.482 48.5863 144.117 48.6826C144.849 48.7982 145.928 48.3552 146.197 47.8352C146.506 47.2767 146.082 47.2189 145.639 47.7774C145.061 48.5285 143.867 48.49 143.116 47.6811C142.5 47.0455 142.346 46.9685 142.346 47.2959Z" fill="none"/>
</svg>
